{"glyphs":{"0":{"ha":791,"x_min":69,"x_max":722,"o":"m 722 413 q 682 166 722 260 q 568 30 642 73 q 397 -14 495 -14 q 226 30 300 -14 q 111 166 152 73 q 69 413 69 260 l 69 578 q 110 824 69 731 q 224 959 151 917 q 395 1001 298 1001 q 567 959 494 1001 q 681 824 640 917 q 722 578 722 731 l 722 413 m 548 603 q 530 755 548 699 q 479 836 513 811 q 395 861 445 861 q 313 836 347 861 q 261 755 279 811 q 243 603 243 699 l 243 389 q 261 236 243 294 q 314 152 279 178 q 397 126 348 126 q 480 152 446 126 q 531 236 513 178 q 548 389 548 294 l 548 603 z "},"1":{"ha":791,"x_min":115,"x_max":528,"o":"m 528 0 l 354 0 l 354 782 l 115 703 l 115 848 l 507 990 l 528 990 l 528 0 z "},"2":{"ha":791,"x_min":53,"x_max":739,"o":"m 739 0 l 73 0 l 73 120 l 393 467 q 475 567 446 524 q 517 643 505 609 q 529 709 529 677 q 492 819 529 777 q 387 861 456 861 q 299 838 334 861 q 245 775 263 815 q 227 684 227 735 l 53 684 q 93 843 53 771 q 208 958 133 916 q 390 1001 283 1001 q 622 927 541 1001 q 703 726 703 853 q 677 603 703 663 q 604 482 650 543 q 496 358 557 422 l 292 140 l 739 140 l 739 0 z "},"3":{"ha":791,"x_min":50,"x_max":716,"o":"m 366 572 q 456 591 420 572 q 510 643 492 610 q 528 720 528 676 q 512 795 528 763 q 464 844 496 827 q 382 861 431 861 q 307 845 340 861 q 254 800 274 829 q 235 731 235 771 l 61 731 q 103 871 61 810 q 216 966 144 932 q 378 1001 288 1001 q 548 969 475 1001 q 661 875 621 938 q 701 721 701 812 q 681 633 701 677 q 622 554 661 590 q 526 497 583 519 q 393 476 468 476 l 267 476 l 267 572 l 366 572 m 267 530 l 393 530 q 540 511 479 530 q 641 456 602 491 q 698 375 680 421 q 716 277 716 329 q 672 119 716 184 q 551 20 627 54 q 379 -14 475 -14 q 256 4 315 -14 q 151 57 197 22 q 77 144 104 92 q 50 267 50 197 l 224 267 q 244 195 224 227 q 300 144 264 163 q 382 126 335 126 q 500 166 457 126 q 543 277 543 206 q 521 368 543 333 q 460 419 500 403 q 366 435 420 435 l 267 435 l 267 530 z "},"4":{"ha":791,"x_min":37,"x_max":756,"o":"m 756 219 l 43 219 l 37 326 l 458 987 l 597 987 l 449 728 l 216 359 l 756 359 l 756 219 m 636 0 l 463 0 l 463 987 l 636 987 l 636 0 z "},"5":{"ha":791,"x_min":83,"x_max":735,"o":"m 111 489 l 165 987 l 703 987 l 703 840 l 309 840 l 283 609 q 346 635 305 622 q 436 648 386 648 q 597 608 530 648 q 700 494 664 568 q 735 316 735 420 q 700 152 735 227 q 592 32 664 77 q 408 -14 519 -14 q 289 5 346 -14 q 186 59 231 23 q 113 149 140 96 q 83 270 85 201 l 253 270 q 301 164 260 201 q 408 126 342 126 q 494 152 460 126 q 545 221 528 177 q 561 323 561 266 q 542 421 561 378 q 486 487 524 463 q 391 511 448 511 q 304 495 334 511 q 250 454 274 478 l 111 489 z "},"6":{"ha":791,"x_min":75,"x_max":737,"o":"m 591 995 l 591 851 l 580 851 q 432 826 494 851 q 329 755 370 800 q 269 648 289 709 q 250 515 250 587 l 250 357 q 271 230 250 281 q 329 153 292 178 q 410 127 366 127 q 493 152 458 127 q 546 221 528 177 q 565 321 565 265 q 547 420 565 376 q 494 491 529 465 q 409 517 459 517 q 323 494 361 517 q 262 437 285 472 q 238 362 240 401 l 175 390 q 202 497 180 448 q 261 582 224 547 q 348 637 298 618 q 456 656 397 656 q 613 610 551 656 q 706 488 675 564 q 737 324 737 412 q 698 153 737 229 q 587 32 659 77 q 413 -14 515 -14 q 271 17 334 -14 q 165 100 208 47 q 98 224 121 153 q 75 375 75 294 l 75 445 q 105 659 75 559 q 195 834 134 759 q 349 952 256 909 q 569 995 441 995 l 591 995 z "},"7":{"ha":791,"x_min":45,"x_max":733,"o":"m 733 891 l 343 0 l 160 0 l 550 848 l 45 848 l 45 987 l 733 987 l 733 891 z "},"8":{"ha":791,"x_min":68,"x_max":723,"o":"m 397 -14 q 229 19 303 -14 q 112 115 155 52 q 68 270 68 178 q 111 413 68 352 q 227 509 153 475 q 395 543 301 543 q 564 509 490 543 q 680 413 637 475 q 723 270 723 352 q 680 115 723 178 q 564 19 637 52 q 397 -14 490 -14 m 397 126 q 478 145 444 126 q 531 198 512 163 q 549 280 549 232 q 530 363 549 328 q 476 417 511 398 q 395 437 441 437 q 314 417 349 437 q 261 363 280 398 q 243 280 243 328 q 261 198 243 232 q 315 145 280 163 q 397 126 349 126 m 397 471 q 238 504 307 471 q 130 594 169 536 q 90 727 90 652 q 130 876 90 815 q 238 969 169 937 q 396 1001 307 1001 q 554 969 485 1001 q 662 876 623 937 q 701 727 701 815 q 662 594 701 652 q 554 504 623 536 q 397 471 485 471 m 397 577 q 467 595 437 577 q 512 645 496 612 q 528 720 528 677 q 512 793 528 762 q 466 843 496 825 q 396 861 437 861 q 326 844 355 861 q 280 795 296 827 q 264 720 264 764 q 280 645 264 677 q 326 595 296 612 q 397 577 355 577 z "},"9":{"ha":791,"x_min":62,"x_max":713,"o":"m 219 138 q 372 161 310 138 q 470 225 433 184 q 524 325 507 267 q 540 451 540 382 l 540 629 q 519 757 540 705 q 463 834 498 808 q 385 861 427 861 q 303 832 337 861 q 252 759 269 804 q 234 659 234 713 q 251 560 234 606 q 301 486 267 514 q 387 458 336 458 q 453 472 422 458 q 506 510 484 486 q 541 562 528 533 q 555 623 554 591 l 620 597 q 599 498 620 547 q 541 410 578 450 q 454 347 503 370 q 348 323 405 323 q 190 369 254 323 q 94 490 126 414 q 62 654 62 565 q 100 829 62 750 q 212 954 139 907 q 385 1001 284 1001 q 525 971 464 1001 q 628 886 587 941 q 692 759 670 831 q 713 600 713 686 l 713 539 q 697 367 713 448 q 644 217 680 285 q 551 98 608 149 q 411 21 493 48 q 221 -7 330 -7 l 206 -7 l 206 138 l 219 138 z "},"A":{"ha":926,"x_min":9,"x_max":918,"o":"m 200 0 l 9 0 l 380 987 l 500 987 l 488 840 l 200 0 m 438 840 l 425 987 l 545 987 l 918 0 l 727 0 l 438 840 m 716 221 l 180 221 l 180 368 l 716 368 l 716 221 z "},"Á":{"ha":926,"x_min":9,"x_max":918,"o":"m 200 0 l 9 0 l 380 987 l 500 987 l 488 840 l 200 0 m 438 840 l 425 987 l 545 987 l 918 0 l 727 0 l 438 840 m 716 221 l 180 221 l 180 368 l 716 368 l 716 221 m 526 1272 l 720 1272 l 533 1066 l 393 1066 l 526 1272 z "},"Ă":{"ha":926,"x_min":9,"x_max":918,"o":"m 200 0 l 9 0 l 380 987 l 500 987 l 488 840 l 200 0 m 438 840 l 425 987 l 545 987 l 918 0 l 727 0 l 438 840 m 716 221 l 180 221 l 180 368 l 716 368 l 716 221 m 466 1065 q 355 1089 400 1065 q 288 1153 311 1112 q 266 1246 266 1194 q 266 1258 266 1251 q 267 1269 266 1265 l 370 1269 q 370 1260 370 1265 q 370 1251 370 1256 q 379 1203 370 1225 q 410 1168 389 1181 q 466 1156 431 1156 q 522 1168 501 1156 q 553 1203 543 1181 q 562 1251 562 1225 q 562 1260 562 1256 q 562 1269 562 1265 l 665 1269 q 665 1258 665 1265 q 665 1246 665 1251 q 643 1153 665 1194 q 576 1089 621 1112 q 466 1065 532 1065 z "},"Â":{"ha":926,"x_min":9,"x_max":918,"o":"m 200 0 l 9 0 l 380 987 l 500 987 l 488 840 l 200 0 m 438 840 l 425 987 l 545 987 l 918 0 l 727 0 l 438 840 m 716 221 l 180 221 l 180 368 l 716 368 l 716 221 m 709 1084 l 709 1076 l 570 1076 l 466 1179 l 363 1076 l 226 1076 l 226 1085 l 416 1272 l 517 1272 l 709 1084 z "},"Ä":{"ha":926,"x_min":9,"x_max":918,"o":"m 200 0 l 9 0 l 380 987 l 500 987 l 488 840 l 200 0 m 438 840 l 425 987 l 545 987 l 918 0 l 727 0 l 438 840 m 716 221 l 180 221 l 180 368 l 716 368 l 716 221 m 625 1063 q 561 1086 585 1063 q 537 1144 537 1109 q 561 1202 537 1178 q 625 1225 585 1225 q 688 1202 664 1225 q 713 1144 713 1178 q 688 1086 713 1109 q 625 1063 664 1063 m 307 1063 q 243 1086 267 1063 q 219 1144 219 1109 q 243 1202 219 1178 q 307 1225 267 1225 q 371 1202 347 1225 q 395 1144 395 1178 q 371 1086 395 1109 q 307 1063 347 1063 z "},"À":{"ha":926,"x_min":9,"x_max":918,"o":"m 200 0 l 9 0 l 380 987 l 500 987 l 488 840 l 200 0 m 438 840 l 425 987 l 545 987 l 918 0 l 727 0 l 438 840 m 716 221 l 180 221 l 180 368 l 716 368 l 716 221 m 557 1066 l 414 1066 l 230 1272 l 425 1272 l 557 1066 z "},"Ā":{"ha":926,"x_min":9,"x_max":918,"o":"m 200 0 l 9 0 l 380 987 l 500 987 l 488 840 l 200 0 m 438 840 l 425 987 l 545 987 l 918 0 l 727 0 l 438 840 m 716 221 l 180 221 l 180 368 l 716 368 l 716 221 m 699 1130 l 234 1130 l 234 1238 l 699 1238 l 699 1130 z "},"Ą":{"ha":926,"x_min":9,"x_max":921,"o":"m 200 0 l 9 0 l 380 987 l 500 987 l 488 840 l 200 0 m 438 840 l 425 987 l 545 987 l 918 0 l 727 0 l 438 840 m 716 221 l 180 221 l 180 368 l 716 368 l 716 221 m 798 -260 q 693 -229 727 -260 q 659 -161 659 -199 q 686 -84 659 -118 q 751 -27 713 -51 q 822 10 789 -3 l 918 0 q 892 -16 905 -8 q 869 -32 880 -24 q 826 -73 843 -52 q 808 -120 808 -95 q 822 -146 808 -137 q 857 -155 835 -155 q 887 -151 871 -155 q 921 -141 903 -148 l 921 -242 q 863 -254 892 -249 q 798 -260 833 -260 z "},"Å":{"ha":926,"x_min":9,"x_max":918,"o":"m 200 0 l 9 0 l 380 987 l 500 987 l 488 840 l 200 0 m 438 840 l 425 987 l 545 987 l 918 0 l 727 0 l 438 840 m 716 221 l 180 221 l 180 368 l 716 368 l 716 221 m 466 1065 q 359 1105 401 1065 q 316 1202 316 1145 q 359 1301 316 1260 q 466 1342 401 1342 q 572 1301 530 1342 q 615 1202 615 1260 q 572 1105 615 1145 q 466 1065 530 1065 m 466 1135 q 515 1155 496 1135 q 534 1202 534 1175 q 515 1251 534 1230 q 466 1272 496 1272 q 416 1251 435 1272 q 397 1202 397 1230 q 416 1155 397 1175 q 466 1135 435 1135 z "},"Ã":{"ha":926,"x_min":9,"x_max":918,"o":"m 200 0 l 9 0 l 380 987 l 500 987 l 488 840 l 200 0 m 438 840 l 425 987 l 545 987 l 918 0 l 727 0 l 438 840 m 716 221 l 180 221 l 180 368 l 716 368 l 716 221 m 320 1088 l 216 1095 q 235 1183 216 1143 q 289 1247 255 1223 q 367 1272 323 1272 q 417 1262 394 1272 q 461 1241 440 1253 q 503 1220 481 1230 q 551 1211 525 1211 q 594 1230 576 1211 q 612 1280 612 1248 l 716 1272 q 696 1182 716 1222 q 643 1120 677 1143 q 565 1097 608 1097 q 509 1106 532 1097 q 467 1127 486 1115 q 428 1148 448 1139 q 380 1157 408 1157 q 337 1138 355 1157 q 320 1088 320 1120 z "},"Æ":{"ha":1304,"x_min":-3,"x_max":1269,"o":"m 203 0 l -3 0 l 551 987 l 662 987 l 669 882 l 203 0 m 750 231 l 241 231 l 241 382 l 750 382 l 750 231 m 1269 0 l 772 0 l 772 141 l 1269 141 l 1269 0 m 837 0 l 663 0 l 621 987 l 795 987 l 837 0 m 1173 439 l 745 439 l 745 580 l 1173 580 l 1173 439 m 1227 846 l 731 846 l 731 987 l 1227 987 l 1227 846 z "},"B":{"ha":880,"x_min":97,"x_max":810,"o":"m 222 441 l 222 572 l 437 572 q 563 607 519 572 q 607 706 607 642 q 565 810 607 778 q 436 842 524 842 l 277 842 l 277 0 l 97 0 l 97 987 l 436 987 q 694 923 601 987 q 787 720 787 858 q 759 608 787 659 q 671 525 730 557 q 526 488 613 492 l 472 441 l 222 441 m 165 0 l 245 145 l 465 145 q 589 185 547 145 q 630 290 630 226 q 614 370 630 336 q 563 422 597 404 q 472 441 528 441 l 279 441 l 279 572 l 529 572 l 570 522 q 706 487 653 520 q 785 402 760 454 q 810 289 810 349 q 719 73 810 146 q 465 0 627 0 l 165 0 z "},"C":{"ha":907,"x_min":66,"x_max":857,"o":"m 857 324 q 802 150 849 227 q 671 30 755 73 q 467 -14 587 -14 q 254 44 344 -14 q 115 207 163 101 q 66 456 66 313 l 66 531 q 116 780 66 675 q 257 943 165 886 q 472 1001 349 1001 q 674 957 592 1001 q 802 836 757 913 q 857 659 848 758 l 677 659 q 622 803 667 751 q 472 854 577 854 q 348 817 398 854 q 273 709 298 781 q 248 532 248 637 l 248 456 q 271 283 248 355 q 341 172 293 211 q 467 134 389 134 q 581 155 537 134 q 647 219 624 177 q 676 324 669 262 l 857 324 z "},"Ć":{"ha":907,"x_min":66,"x_max":857,"o":"m 857 324 q 802 150 849 227 q 671 30 755 73 q 467 -14 587 -14 q 254 44 344 -14 q 115 207 163 101 q 66 456 66 313 l 66 531 q 116 780 66 675 q 257 943 165 886 q 472 1001 349 1001 q 674 957 592 1001 q 802 836 757 913 q 857 659 848 758 l 677 659 q 622 803 667 751 q 472 854 577 854 q 348 817 398 854 q 273 709 298 781 q 248 532 248 637 l 248 456 q 271 283 248 355 q 341 172 293 211 q 467 134 389 134 q 581 155 537 134 q 647 219 624 177 q 676 324 669 262 l 857 324 m 513 1272 l 707 1272 l 521 1066 l 380 1066 l 513 1272 z "},"Č":{"ha":907,"x_min":66,"x_max":857,"o":"m 857 324 q 802 150 849 227 q 671 30 755 73 q 467 -14 587 -14 q 254 44 344 -14 q 115 207 163 101 q 66 456 66 313 l 66 531 q 116 780 66 675 q 257 943 165 886 q 472 1001 349 1001 q 674 957 592 1001 q 802 836 757 913 q 857 659 848 758 l 677 659 q 622 803 667 751 q 472 854 577 854 q 348 817 398 854 q 273 709 298 781 q 248 532 248 637 l 248 456 q 271 283 248 355 q 341 172 293 211 q 467 134 389 134 q 581 155 537 134 q 647 219 624 177 q 676 324 669 262 l 857 324 m 696 1260 l 503 1072 l 402 1072 l 212 1259 l 212 1268 l 349 1268 l 452 1164 l 556 1268 l 696 1268 l 696 1260 z "},"Ç":{"ha":907,"x_min":66,"x_max":857,"o":"m 857 324 q 802 150 849 227 q 671 30 755 73 q 467 -14 587 -14 q 254 44 344 -14 q 115 207 163 101 q 66 456 66 313 l 66 531 q 116 780 66 675 q 257 943 165 886 q 472 1001 349 1001 q 674 957 592 1001 q 802 836 757 913 q 857 659 848 758 l 677 659 q 622 803 667 751 q 472 854 577 854 q 348 817 398 854 q 273 709 298 781 q 248 532 248 637 l 248 456 q 271 283 248 355 q 341 172 293 211 q 467 134 389 134 q 581 155 537 134 q 647 219 624 177 q 676 324 669 262 l 857 324 m 530 3 l 522 -35 q 593 -67 561 -41 q 625 -152 625 -94 q 567 -265 625 -222 q 397 -307 509 -307 l 393 -208 q 438 -202 418 -208 q 470 -183 458 -196 q 481 -149 481 -170 q 457 -107 481 -119 q 380 -92 433 -96 l 401 3 l 530 3 z "},"Ċ":{"ha":907,"x_min":66,"x_max":857,"o":"m 857 324 q 802 150 849 227 q 671 30 755 73 q 467 -14 587 -14 q 254 44 344 -14 q 115 207 163 101 q 66 456 66 313 l 66 531 q 116 780 66 675 q 257 943 165 886 q 472 1001 349 1001 q 674 957 592 1001 q 802 836 757 913 q 857 659 848 758 l 677 659 q 622 803 667 751 q 472 854 577 854 q 348 817 398 854 q 273 709 298 781 q 248 532 248 637 l 248 456 q 271 283 248 355 q 341 172 293 211 q 467 134 389 134 q 581 155 537 134 q 647 219 624 177 q 676 324 669 262 l 857 324 m 454 1063 q 381 1089 408 1063 q 355 1154 355 1115 q 381 1220 355 1194 q 454 1246 408 1246 q 526 1220 500 1246 q 553 1154 553 1194 q 526 1089 553 1115 q 454 1063 500 1063 z "},"D":{"ha":906,"x_min":97,"x_max":839,"o":"m 176 0 l 176 145 l 387 145 q 536 184 476 145 q 627 295 596 222 q 657 469 657 368 l 657 519 q 627 695 657 624 q 537 804 596 767 q 393 842 478 842 l 172 842 l 172 987 l 393 987 q 625 929 525 987 q 782 765 726 871 q 839 518 839 660 l 839 469 q 782 222 839 328 q 624 58 726 117 q 387 0 523 0 l 176 0 m 277 0 l 97 0 l 97 987 l 277 987 l 277 0 z "},"Ď":{"ha":906,"x_min":97,"x_max":839,"o":"m 176 0 l 176 145 l 387 145 q 536 184 476 145 q 627 295 596 222 q 657 469 657 368 l 657 519 q 627 695 657 624 q 537 804 596 767 q 393 842 478 842 l 172 842 l 172 987 l 393 987 q 625 929 525 987 q 782 765 726 871 q 839 518 839 660 l 839 469 q 782 222 839 328 q 624 58 726 117 q 387 0 523 0 l 176 0 m 277 0 l 97 0 l 97 987 l 277 987 l 277 0 m 694 1260 l 503 1072 l 401 1072 l 212 1259 l 212 1268 l 349 1268 l 452 1164 l 555 1268 l 694 1268 l 694 1260 z "},"Đ":{"ha":906,"x_min":-7,"x_max":839,"o":"m 454 440 l -7 440 l -7 557 l 454 557 l 454 440 m 176 0 l 176 145 l 387 145 q 536 184 476 145 q 627 295 596 222 q 657 469 657 368 l 657 519 q 627 695 657 624 q 537 804 596 767 q 393 842 478 842 l 172 842 l 172 987 l 393 987 q 625 929 525 987 q 782 765 726 871 q 839 518 839 660 l 839 469 q 782 222 839 328 q 624 58 726 117 q 387 0 523 0 l 176 0 m 277 0 l 97 0 l 97 987 l 277 987 l 277 0 z "},"Ð":{"ha":906,"x_min":-7,"x_max":839,"o":"m 454 440 l -7 440 l -7 557 l 454 557 l 454 440 m 176 0 l 176 145 l 387 145 q 536 184 476 145 q 627 295 596 222 q 657 469 657 368 l 657 519 q 627 695 657 624 q 537 804 596 767 q 393 842 478 842 l 172 842 l 172 987 l 393 987 q 625 929 525 987 q 782 765 726 871 q 839 518 839 660 l 839 469 q 782 222 839 328 q 624 58 726 117 q 387 0 523 0 l 176 0 m 277 0 l 97 0 l 97 987 l 277 987 l 277 0 z "},"E":{"ha":784,"x_min":97,"x_max":747,"o":"m 747 0 l 226 0 l 226 145 l 747 145 l 747 0 m 277 0 l 97 0 l 97 987 l 277 987 l 277 0 m 680 437 l 226 437 l 226 580 l 680 580 l 680 437 m 745 842 l 226 842 l 226 987 l 745 987 l 745 842 z "},"É":{"ha":784,"x_min":97,"x_max":747,"o":"m 747 0 l 226 0 l 226 145 l 747 145 l 747 0 m 277 0 l 97 0 l 97 987 l 277 987 l 277 0 m 680 437 l 226 437 l 226 580 l 680 580 l 680 437 m 745 842 l 226 842 l 226 987 l 745 987 l 745 842 m 475 1272 l 669 1272 l 482 1066 l 342 1066 l 475 1272 z "},"Ě":{"ha":784,"x_min":97,"x_max":747,"o":"m 747 0 l 226 0 l 226 145 l 747 145 l 747 0 m 277 0 l 97 0 l 97 987 l 277 987 l 277 0 m 680 437 l 226 437 l 226 580 l 680 580 l 680 437 m 745 842 l 226 842 l 226 987 l 745 987 l 745 842 m 656 1260 l 465 1072 l 363 1072 l 174 1259 l 174 1268 l 311 1268 l 414 1164 l 517 1268 l 656 1268 l 656 1260 z "},"Ê":{"ha":784,"x_min":97,"x_max":747,"o":"m 747 0 l 226 0 l 226 145 l 747 145 l 747 0 m 277 0 l 97 0 l 97 987 l 277 987 l 277 0 m 680 437 l 226 437 l 226 580 l 680 580 l 680 437 m 745 842 l 226 842 l 226 987 l 745 987 l 745 842 m 658 1084 l 658 1076 l 519 1076 l 415 1179 l 312 1076 l 175 1076 l 175 1085 l 365 1272 l 466 1272 l 658 1084 z "},"Ë":{"ha":784,"x_min":97,"x_max":747,"o":"m 747 0 l 226 0 l 226 145 l 747 145 l 747 0 m 277 0 l 97 0 l 97 987 l 277 987 l 277 0 m 680 437 l 226 437 l 226 580 l 680 580 l 680 437 m 745 842 l 226 842 l 226 987 l 745 987 l 745 842 m 574 1063 q 510 1086 534 1063 q 486 1144 486 1109 q 510 1202 486 1178 q 574 1225 534 1225 q 637 1202 613 1225 q 662 1144 662 1178 q 637 1086 662 1109 q 574 1063 613 1063 m 256 1063 q 192 1086 216 1063 q 168 1144 168 1109 q 192 1202 168 1178 q 256 1225 216 1225 q 320 1202 296 1225 q 344 1144 344 1178 q 320 1086 344 1109 q 256 1063 296 1063 z "},"Ė":{"ha":784,"x_min":97,"x_max":747,"o":"m 747 0 l 226 0 l 226 145 l 747 145 l 747 0 m 277 0 l 97 0 l 97 987 l 277 987 l 277 0 m 680 437 l 226 437 l 226 580 l 680 580 l 680 437 m 745 842 l 226 842 l 226 987 l 745 987 l 745 842 m 414 1063 q 342 1089 368 1063 q 316 1154 316 1115 q 342 1220 316 1194 q 414 1246 368 1246 q 487 1220 460 1246 q 513 1154 513 1194 q 487 1089 513 1115 q 414 1063 460 1063 z "},"È":{"ha":784,"x_min":97,"x_max":747,"o":"m 747 0 l 226 0 l 226 145 l 747 145 l 747 0 m 277 0 l 97 0 l 97 987 l 277 987 l 277 0 m 680 437 l 226 437 l 226 580 l 680 580 l 680 437 m 745 842 l 226 842 l 226 987 l 745 987 l 745 842 m 507 1066 l 363 1066 l 179 1272 l 374 1272 l 507 1066 z "},"Ē":{"ha":784,"x_min":97,"x_max":747,"o":"m 747 0 l 226 0 l 226 145 l 747 145 l 747 0 m 277 0 l 97 0 l 97 987 l 277 987 l 277 0 m 680 437 l 226 437 l 226 580 l 680 580 l 680 437 m 745 842 l 226 842 l 226 987 l 745 987 l 745 842 m 648 1130 l 183 1130 l 183 1238 l 648 1238 l 648 1130 z "},"Ę":{"ha":784,"x_min":97,"x_max":751,"o":"m 747 0 l 226 0 l 226 145 l 747 145 l 747 0 m 277 0 l 97 0 l 97 987 l 277 987 l 277 0 m 680 437 l 226 437 l 226 580 l 680 580 l 680 437 m 745 842 l 226 842 l 226 987 l 745 987 l 745 842 m 628 -260 q 523 -229 557 -260 q 488 -161 488 -199 q 515 -84 488 -118 q 581 -27 543 -51 q 652 10 619 -3 l 747 0 q 722 -16 734 -8 q 699 -32 710 -24 q 655 -73 673 -52 q 638 -120 638 -95 q 651 -146 638 -137 q 687 -155 665 -155 q 717 -151 701 -155 q 751 -141 733 -148 l 751 -242 q 692 -254 722 -249 q 628 -260 663 -260 z "},"F":{"ha":764,"x_min":97,"x_max":730,"o":"m 277 0 l 97 0 l 97 987 l 277 987 l 277 0 m 675 414 l 232 414 l 232 559 l 675 559 l 675 414 m 730 842 l 232 842 l 232 987 l 730 987 l 730 842 z "},"G":{"ha":946,"x_min":70,"x_max":862,"o":"m 862 127 q 795 66 840 99 q 677 10 751 34 q 493 -14 603 -14 q 273 42 368 -14 q 123 204 177 98 q 70 461 70 311 l 70 526 q 120 783 70 677 q 261 945 170 890 q 478 1001 353 1001 q 683 960 602 1001 q 807 847 764 920 q 861 682 850 775 l 684 682 q 654 772 677 733 q 590 833 631 811 q 482 856 548 856 q 355 818 406 856 q 278 706 304 779 q 253 528 253 633 l 253 461 q 282 281 253 355 q 367 170 311 208 q 501 132 422 132 q 592 141 557 132 q 649 163 627 150 q 681 188 670 176 l 681 375 l 483 375 l 483 511 l 862 511 l 862 127 z "},"Ğ":{"ha":946,"x_min":70,"x_max":862,"o":"m 862 127 q 795 66 840 99 q 677 10 751 34 q 493 -14 603 -14 q 273 42 368 -14 q 123 204 177 98 q 70 461 70 311 l 70 526 q 120 783 70 677 q 261 945 170 890 q 478 1001 353 1001 q 683 960 602 1001 q 807 847 764 920 q 861 682 850 775 l 684 682 q 654 772 677 733 q 590 833 631 811 q 482 856 548 856 q 355 818 406 856 q 278 706 304 779 q 253 528 253 633 l 253 461 q 282 281 253 355 q 367 170 311 208 q 501 132 422 132 q 592 141 557 132 q 649 163 627 150 q 681 188 670 176 l 681 375 l 483 375 l 483 511 l 862 511 l 862 127 m 473 1065 q 363 1089 408 1065 q 296 1153 318 1112 q 273 1246 273 1194 q 273 1258 273 1251 q 274 1269 273 1265 l 378 1269 q 377 1260 377 1265 q 377 1251 377 1256 q 387 1203 377 1225 q 417 1168 396 1181 q 473 1156 439 1156 q 530 1168 509 1156 q 560 1203 551 1181 q 570 1251 570 1225 q 570 1260 570 1256 q 569 1269 570 1265 l 672 1269 q 673 1258 673 1265 q 673 1246 673 1251 q 650 1153 673 1194 q 584 1089 628 1112 q 473 1065 540 1065 z "},"Ģ":{"ha":946,"x_min":70,"x_max":862,"o":"m 862 127 q 795 66 840 99 q 677 10 751 34 q 493 -14 603 -14 q 273 42 368 -14 q 123 204 177 98 q 70 461 70 311 l 70 526 q 120 783 70 677 q 261 945 170 890 q 478 1001 353 1001 q 683 960 602 1001 q 807 847 764 920 q 861 682 850 775 l 684 682 q 654 772 677 733 q 590 833 631 811 q 482 856 548 856 q 355 818 406 856 q 278 706 304 779 q 253 528 253 633 l 253 461 q 282 281 253 355 q 367 170 311 208 q 501 132 422 132 q 592 141 557 132 q 649 163 627 150 q 681 188 670 176 l 681 375 l 483 375 l 483 511 l 862 511 l 862 127 m 572 -214 q 548 -333 572 -286 q 466 -430 524 -381 l 374 -378 q 396 -340 387 -355 q 410 -311 406 -325 q 417 -276 415 -296 q 419 -221 419 -255 l 419 -115 l 572 -115 l 572 -214 z "},"Ġ":{"ha":946,"x_min":70,"x_max":862,"o":"m 862 127 q 795 66 840 99 q 677 10 751 34 q 493 -14 603 -14 q 273 42 368 -14 q 123 204 177 98 q 70 461 70 311 l 70 526 q 120 783 70 677 q 261 945 170 890 q 478 1001 353 1001 q 683 960 602 1001 q 807 847 764 920 q 861 682 850 775 l 684 682 q 654 772 677 733 q 590 833 631 811 q 482 856 548 856 q 355 818 406 856 q 278 706 304 779 q 253 528 253 633 l 253 461 q 282 281 253 355 q 367 170 311 208 q 501 132 422 132 q 592 141 557 132 q 649 163 627 150 q 681 188 670 176 l 681 375 l 483 375 l 483 511 l 862 511 l 862 127 m 473 1063 q 400 1089 427 1063 q 374 1154 374 1115 q 400 1220 374 1194 q 473 1246 427 1246 q 545 1220 519 1246 q 572 1154 572 1194 q 545 1089 572 1115 q 473 1063 519 1063 z "},"H":{"ha":985,"x_min":97,"x_max":886,"o":"m 749 434 l 231 434 l 231 580 l 749 580 l 749 434 m 277 0 l 97 0 l 97 987 l 277 987 l 277 0 m 886 0 l 706 0 l 706 987 l 886 987 l 886 0 z "},"Ħ":{"ha":985,"x_min":-7,"x_max":1003,"o":"m -7 728 l -7 838 l 1003 838 l 1003 728 l -7 728 m 755 434 l 237 434 l 237 580 l 755 580 l 755 434 m 283 0 l 103 0 l 103 987 l 283 987 l 283 0 m 892 0 l 712 0 l 712 987 l 892 987 l 892 0 z "},"I":{"ha":397,"x_min":109,"x_max":289,"o":"m 289 0 l 109 0 l 109 987 l 289 987 l 289 0 z "},"Ĳ":{"ha":1169,"x_min":109,"x_max":1078,"o":"m 289 0 l 109 0 l 109 987 l 289 987 l 289 0 m 897 987 l 1077 987 l 1077 299 q 1035 131 1077 201 q 919 24 993 61 q 752 -14 846 -14 q 584 19 658 -14 q 469 117 511 51 q 427 286 427 184 l 608 286 q 648 166 608 201 q 752 132 687 132 q 827 151 795 132 q 878 208 860 171 q 897 299 897 245 l 897 987 z "},"Í":{"ha":397,"x_min":109,"x_max":452,"o":"m 289 0 l 109 0 l 109 987 l 289 987 l 289 0 m 258 1272 l 452 1272 l 265 1066 l 125 1066 l 258 1272 z "},"Î":{"ha":397,"x_min":-41,"x_max":441,"o":"m 289 0 l 109 0 l 109 987 l 289 987 l 289 0 m 441 1084 l 441 1076 l 302 1076 l 199 1179 l 96 1076 l -41 1076 l -41 1085 l 149 1272 l 250 1272 l 441 1084 z "},"Ï":{"ha":397,"x_min":-49,"x_max":445,"o":"m 289 0 l 109 0 l 109 987 l 289 987 l 289 0 m 357 1063 q 293 1086 317 1063 q 269 1144 269 1109 q 293 1202 269 1178 q 357 1225 317 1225 q 420 1202 396 1225 q 445 1144 445 1178 q 420 1086 445 1109 q 357 1063 396 1063 m 39 1063 q -25 1086 -1 1063 q -49 1144 -49 1109 q -25 1202 -49 1178 q 39 1225 -1 1225 q 103 1202 79 1225 q 127 1144 127 1178 q 103 1086 127 1109 q 39 1063 79 1063 z "},"İ":{"ha":397,"x_min":100,"x_max":297,"o":"m 289 0 l 109 0 l 109 987 l 289 987 l 289 0 m 198 1063 q 126 1089 152 1063 q 100 1154 100 1115 q 126 1220 100 1194 q 198 1246 152 1246 q 271 1220 244 1246 q 297 1154 297 1194 q 271 1089 297 1115 q 198 1063 244 1063 z "},"Ì":{"ha":397,"x_min":-38,"x_max":290,"o":"m 289 0 l 109 0 l 109 987 l 289 987 l 289 0 m 290 1066 l 146 1066 l -38 1272 l 157 1272 l 290 1066 z "},"Ī":{"ha":397,"x_min":-34,"x_max":431,"o":"m 289 0 l 109 0 l 109 987 l 289 987 l 289 0 m 431 1130 l -34 1130 l -34 1238 l 431 1238 l 431 1130 z "},"Į":{"ha":397,"x_min":30,"x_max":292,"o":"m 289 0 l 109 0 l 109 987 l 289 987 l 289 0 m 170 -260 q 64 -229 98 -260 q 30 -161 30 -199 q 57 -84 30 -118 q 122 -27 84 -51 q 193 10 161 -3 l 289 0 q 264 -16 276 -8 q 241 -32 252 -24 q 197 -73 214 -52 q 180 -120 180 -95 q 193 -146 180 -137 q 229 -155 206 -155 q 259 -151 243 -155 q 292 -141 275 -148 l 292 -242 q 234 -254 264 -249 q 170 -260 204 -260 z "},"J":{"ha":773,"x_min":31,"x_max":680,"o":"m 500 987 l 680 987 l 680 299 q 638 131 680 201 q 523 24 596 61 q 355 -14 449 -14 q 188 19 261 -14 q 72 117 114 51 q 31 286 31 184 l 212 286 q 251 166 212 201 q 355 132 290 132 q 431 151 398 132 q 481 208 463 171 q 500 299 500 245 l 500 987 z "},"K":{"ha":878,"x_min":97,"x_max":887,"o":"m 277 0 l 97 0 l 97 987 l 277 987 l 277 0 m 473 507 l 244 264 l 212 444 l 372 648 l 649 987 l 870 987 l 473 507 m 358 463 l 484 584 l 887 0 l 672 0 l 358 463 z "},"Ķ":{"ha":878,"x_min":97,"x_max":887,"o":"m 277 0 l 97 0 l 97 987 l 277 987 l 277 0 m 473 507 l 244 264 l 212 444 l 372 648 l 649 987 l 870 987 l 473 507 m 358 463 l 484 584 l 887 0 l 672 0 l 358 463 m 518 -214 q 494 -333 518 -286 q 412 -430 471 -381 l 320 -378 q 343 -340 334 -355 q 357 -311 352 -325 q 363 -276 361 -296 q 366 -221 366 -255 l 366 -115 l 518 -115 l 518 -214 z "},"L":{"ha":751,"x_min":97,"x_max":721,"o":"m 721 0 l 226 0 l 226 145 l 721 145 l 721 0 m 277 0 l 97 0 l 97 987 l 277 987 l 277 0 z "},"Ĺ":{"ha":751,"x_min":97,"x_max":721,"o":"m 721 0 l 226 0 l 226 145 l 721 145 l 721 0 m 277 0 l 97 0 l 97 987 l 277 987 l 277 0 m 245 1272 l 439 1272 l 253 1066 l 113 1066 l 245 1272 z "},"Ľ":{"ha":751,"x_min":97,"x_max":758,"o":"m 721 0 l 226 0 l 226 145 l 721 145 l 721 0 m 277 0 l 97 0 l 97 987 l 277 987 l 277 0 m 589 987 l 758 987 l 652 702 l 530 702 l 589 987 z "},"Ļ":{"ha":751,"x_min":97,"x_max":721,"o":"m 721 0 l 226 0 l 226 145 l 721 145 l 721 0 m 277 0 l 97 0 l 97 987 l 277 987 l 277 0 m 495 -214 q 471 -333 495 -286 q 389 -430 448 -381 l 297 -378 q 320 -340 311 -355 q 334 -311 329 -325 q 340 -276 338 -296 q 342 -221 342 -255 l 342 -115 l 495 -115 l 495 -214 z "},"Ł":{"ha":780,"x_min":-43,"x_max":750,"o":"m 28 257 l -43 338 l 475 738 l 547 656 l 28 257 m 750 0 l 255 0 l 255 145 l 750 145 l 750 0 m 307 0 l 125 0 l 125 987 l 307 987 l 307 0 z "},"M":{"ha":1216,"x_min":97,"x_max":1118,"o":"m 332 987 l 608 242 l 882 987 l 1042 987 l 671 0 l 544 0 l 172 987 l 332 987 m 250 987 l 277 307 l 277 0 l 97 0 l 97 987 l 250 987 m 1118 987 l 1118 0 l 937 0 l 937 307 l 964 987 l 1118 987 z "},"N":{"ha":984,"x_min":97,"x_max":886,"o":"m 886 0 l 705 0 l 277 686 l 277 0 l 97 0 l 97 987 l 277 987 l 707 300 l 707 987 l 886 987 l 886 0 z "},"Ń":{"ha":984,"x_min":97,"x_max":886,"o":"m 886 0 l 705 0 l 277 686 l 277 0 l 97 0 l 97 987 l 277 987 l 707 300 l 707 987 l 886 987 l 886 0 m 551 1272 l 745 1272 l 559 1066 l 418 1066 l 551 1272 z "},"Ň":{"ha":984,"x_min":97,"x_max":886,"o":"m 886 0 l 705 0 l 277 686 l 277 0 l 97 0 l 97 987 l 277 987 l 707 300 l 707 987 l 886 987 l 886 0 m 734 1260 l 542 1072 l 440 1072 l 250 1259 l 250 1268 l 388 1268 l 490 1164 l 595 1268 l 734 1268 l 734 1260 z "},"Ņ":{"ha":984,"x_min":97,"x_max":886,"o":"m 886 0 l 705 0 l 277 686 l 277 0 l 97 0 l 97 987 l 277 987 l 707 300 l 707 987 l 886 987 l 886 0 m 571 -214 q 547 -333 571 -286 q 465 -430 524 -381 l 373 -378 q 396 -340 387 -355 q 410 -311 405 -325 q 416 -276 414 -296 q 418 -221 418 -255 l 418 -115 l 571 -115 l 571 -214 z "},"Ñ":{"ha":984,"x_min":97,"x_max":886,"o":"m 886 0 l 705 0 l 277 686 l 277 0 l 97 0 l 97 987 l 277 987 l 707 300 l 707 987 l 886 987 l 886 0 m 346 1088 l 241 1095 q 261 1183 241 1143 q 315 1247 281 1223 q 393 1272 349 1272 q 443 1262 420 1272 q 487 1241 466 1253 q 529 1220 507 1230 q 577 1211 551 1211 q 620 1230 602 1211 q 638 1280 638 1248 l 742 1272 q 722 1182 742 1222 q 668 1120 703 1143 q 591 1097 634 1097 q 534 1106 557 1097 q 492 1127 511 1115 q 453 1148 473 1139 q 406 1157 433 1157 q 363 1138 380 1157 q 346 1088 346 1120 z "},"Ŋ":{"ha":984,"x_min":97,"x_max":886,"o":"m 655 -296 q 609 -293 633 -296 q 564 -285 585 -290 l 564 -147 q 594 -152 578 -150 q 625 -153 610 -153 q 689 -131 667 -153 q 712 -56 712 -108 l 712 0 l 705 0 l 277 686 l 277 0 l 97 0 l 97 987 l 277 987 l 707 300 l 707 987 l 886 987 l 886 -56 q 827 -234 886 -172 q 655 -296 767 -296 z "},"O":{"ha":958,"x_min":65,"x_max":892,"o":"m 892 469 q 840 211 892 319 q 695 44 788 102 q 480 -14 603 -14 q 265 44 359 -14 q 118 211 171 102 q 65 469 65 319 l 65 518 q 118 776 65 668 q 264 943 170 884 q 479 1001 357 1001 q 694 943 602 1001 q 840 776 787 884 q 892 518 892 668 l 892 469 m 710 519 q 683 702 710 628 q 604 813 655 775 q 479 851 552 851 q 354 813 406 851 q 275 702 302 775 q 248 519 248 628 l 248 469 q 275 287 248 361 q 355 174 303 212 q 480 136 408 136 q 605 174 553 136 q 683 287 656 212 q 710 469 710 361 l 710 519 z "},"Ó":{"ha":958,"x_min":65,"x_max":892,"o":"m 892 469 q 840 211 892 319 q 695 44 788 102 q 480 -14 603 -14 q 265 44 359 -14 q 118 211 171 102 q 65 469 65 319 l 65 518 q 118 776 65 668 q 264 943 170 884 q 479 1001 357 1001 q 694 943 602 1001 q 840 776 787 884 q 892 518 892 668 l 892 469 m 710 519 q 683 702 710 628 q 604 813 655 775 q 479 851 552 851 q 354 813 406 851 q 275 702 302 775 q 248 519 248 628 l 248 469 q 275 287 248 361 q 355 174 303 212 q 480 136 408 136 q 605 174 553 136 q 683 287 656 212 q 710 469 710 361 l 710 519 m 538 1272 l 732 1272 l 546 1066 l 406 1066 l 538 1272 z "},"Ô":{"ha":958,"x_min":65,"x_max":892,"o":"m 892 469 q 840 211 892 319 q 695 44 788 102 q 480 -14 603 -14 q 265 44 359 -14 q 118 211 171 102 q 65 469 65 319 l 65 518 q 118 776 65 668 q 264 943 170 884 q 479 1001 357 1001 q 694 943 602 1001 q 840 776 787 884 q 892 518 892 668 l 892 469 m 710 519 q 683 702 710 628 q 604 813 655 775 q 479 851 552 851 q 354 813 406 851 q 275 702 302 775 q 248 519 248 628 l 248 469 q 275 287 248 361 q 355 174 303 212 q 480 136 408 136 q 605 174 553 136 q 683 287 656 212 q 710 469 710 361 l 710 519 m 722 1084 l 722 1076 l 583 1076 l 479 1179 l 376 1076 l 239 1076 l 239 1085 l 429 1272 l 530 1272 l 722 1084 z "},"Ö":{"ha":958,"x_min":65,"x_max":892,"o":"m 892 469 q 840 211 892 319 q 695 44 788 102 q 480 -14 603 -14 q 265 44 359 -14 q 118 211 171 102 q 65 469 65 319 l 65 518 q 118 776 65 668 q 264 943 170 884 q 479 1001 357 1001 q 694 943 602 1001 q 840 776 787 884 q 892 518 892 668 l 892 469 m 710 519 q 683 702 710 628 q 604 813 655 775 q 479 851 552 851 q 354 813 406 851 q 275 702 302 775 q 248 519 248 628 l 248 469 q 275 287 248 361 q 355 174 303 212 q 480 136 408 136 q 605 174 553 136 q 683 287 656 212 q 710 469 710 361 l 710 519 m 637 1063 q 574 1086 598 1063 q 550 1144 550 1109 q 574 1202 550 1178 q 637 1225 598 1225 q 701 1202 677 1225 q 726 1144 726 1178 q 701 1086 726 1109 q 637 1063 677 1063 m 320 1063 q 256 1086 280 1063 q 232 1144 232 1109 q 256 1202 232 1178 q 320 1225 280 1225 q 384 1202 359 1225 q 408 1144 408 1178 q 384 1086 408 1109 q 320 1063 359 1063 z "},"Ò":{"ha":958,"x_min":65,"x_max":892,"o":"m 892 469 q 840 211 892 319 q 695 44 788 102 q 480 -14 603 -14 q 265 44 359 -14 q 118 211 171 102 q 65 469 65 319 l 65 518 q 118 776 65 668 q 264 943 170 884 q 479 1001 357 1001 q 694 943 602 1001 q 840 776 787 884 q 892 518 892 668 l 892 469 m 710 519 q 683 702 710 628 q 604 813 655 775 q 479 851 552 851 q 354 813 406 851 q 275 702 302 775 q 248 519 248 628 l 248 469 q 275 287 248 361 q 355 174 303 212 q 480 136 408 136 q 605 174 553 136 q 683 287 656 212 q 710 469 710 361 l 710 519 m 570 1066 l 427 1066 l 243 1272 l 438 1272 l 570 1066 z "},"Ő":{"ha":958,"x_min":65,"x_max":892,"o":"m 892 469 q 840 211 892 319 q 695 44 788 102 q 480 -14 603 -14 q 265 44 359 -14 q 118 211 171 102 q 65 469 65 319 l 65 518 q 118 776 65 668 q 264 943 170 884 q 479 1001 357 1001 q 694 943 602 1001 q 840 776 787 884 q 892 518 892 668 l 892 469 m 710 519 q 683 702 710 628 q 604 813 655 775 q 479 851 552 851 q 354 813 406 851 q 275 702 302 775 q 248 519 248 628 l 248 469 q 275 287 248 361 q 355 174 303 212 q 480 136 408 136 q 605 174 553 136 q 683 287 656 212 q 710 469 710 361 l 710 519 m 384 1272 l 559 1272 l 428 1066 l 307 1066 l 384 1272 m 614 1272 l 789 1272 l 659 1066 l 537 1066 l 614 1272 z "},"Ō":{"ha":958,"x_min":65,"x_max":892,"o":"m 892 469 q 840 211 892 319 q 695 44 788 102 q 480 -14 603 -14 q 265 44 359 -14 q 118 211 171 102 q 65 469 65 319 l 65 518 q 118 776 65 668 q 264 943 170 884 q 479 1001 357 1001 q 694 943 602 1001 q 840 776 787 884 q 892 518 892 668 l 892 469 m 710 519 q 683 702 710 628 q 604 813 655 775 q 479 851 552 851 q 354 813 406 851 q 275 702 302 775 q 248 519 248 628 l 248 469 q 275 287 248 361 q 355 174 303 212 q 480 136 408 136 q 605 174 553 136 q 683 287 656 212 q 710 469 710 361 l 710 519 m 711 1130 l 247 1130 l 247 1238 l 711 1238 l 711 1130 z "},"Ø":{"ha":957,"x_min":68,"x_max":895,"o":"m 222 -64 l 104 -64 l 762 1029 l 879 1029 l 222 -64 m 895 469 q 843 211 895 319 q 699 44 791 102 q 483 -14 606 -14 q 268 44 362 -14 q 121 211 174 102 q 68 469 68 319 l 68 518 q 121 776 68 668 q 267 943 174 884 q 481 1001 361 1001 q 698 943 605 1001 q 843 776 791 884 q 895 518 895 668 l 895 469 m 713 519 q 686 702 713 628 q 607 813 659 775 q 481 851 555 851 q 358 813 410 851 q 278 702 306 775 q 251 519 251 628 l 251 469 q 279 287 251 361 q 359 174 307 212 q 483 136 411 136 q 608 174 557 136 q 687 287 660 212 q 713 469 713 361 l 713 519 z "},"Õ":{"ha":958,"x_min":65,"x_max":892,"o":"m 892 469 q 840 211 892 319 q 695 44 788 102 q 480 -14 603 -14 q 265 44 359 -14 q 118 211 171 102 q 65 469 65 319 l 65 518 q 118 776 65 668 q 264 943 170 884 q 479 1001 357 1001 q 694 943 602 1001 q 840 776 787 884 q 892 518 892 668 l 892 469 m 710 519 q 683 702 710 628 q 604 813 655 775 q 479 851 552 851 q 354 813 406 851 q 275 702 302 775 q 248 519 248 628 l 248 469 q 275 287 248 361 q 355 174 303 212 q 480 136 408 136 q 605 174 553 136 q 683 287 656 212 q 710 469 710 361 l 710 519 m 333 1088 l 229 1095 q 248 1183 229 1143 q 302 1247 268 1223 q 380 1272 336 1272 q 430 1262 407 1272 q 474 1241 453 1253 q 516 1220 494 1230 q 564 1211 538 1211 q 607 1230 589 1211 q 625 1280 625 1248 l 729 1272 q 709 1182 729 1222 q 655 1120 690 1143 q 578 1097 621 1097 q 522 1106 545 1097 q 479 1127 498 1115 q 440 1148 460 1139 q 393 1157 420 1157 q 350 1138 368 1157 q 333 1088 333 1120 z "},"Œ":{"ha":1339,"x_min":67,"x_max":1256,"o":"m 467 -14 q 259 37 349 -14 q 118 180 169 88 q 67 391 67 271 l 67 597 q 118 808 67 717 q 258 950 168 899 q 466 1002 347 1002 q 568 997 517 1002 q 663 987 618 993 l 663 843 q 569 856 619 850 q 466 861 519 861 q 347 832 397 861 q 269 744 296 802 q 241 598 241 686 l 241 391 q 269 244 241 304 q 348 156 297 185 q 467 126 398 126 q 570 131 520 126 q 663 144 620 136 l 663 0 q 569 -9 618 -5 q 467 -14 519 -14 m 1256 0 l 734 0 l 734 145 l 1256 145 l 1256 0 m 786 0 l 605 0 l 605 987 l 786 987 l 786 0 m 1187 437 l 734 437 l 734 580 l 1187 580 l 1187 437 m 1253 842 l 734 842 l 734 987 l 1253 987 l 1253 842 z "},"P":{"ha":890,"x_min":97,"x_max":840,"o":"m 222 361 l 222 507 l 476 507 q 580 527 541 507 q 638 585 620 548 q 657 668 657 621 q 638 753 657 713 q 580 817 620 793 q 476 842 541 842 l 277 842 l 277 0 l 97 0 l 97 987 l 476 987 q 672 946 591 987 q 797 834 753 905 q 840 669 840 762 q 797 505 840 574 q 672 398 753 435 q 476 361 591 361 l 222 361 z "},"Þ":{"ha":837,"x_min":98,"x_max":787,"o":"m 272 987 l 272 0 l 98 0 l 98 987 l 272 987 m 434 801 q 627 762 549 801 q 747 656 706 724 q 787 500 787 588 q 747 346 787 414 q 627 239 706 278 q 434 201 549 201 l 244 201 l 244 340 l 434 340 q 538 363 498 340 q 595 422 577 386 q 613 499 613 458 q 595 578 613 541 q 538 638 577 615 q 434 661 498 661 l 271 661 l 165 801 l 434 801 z "},"Q":{"ha":958,"x_min":62,"x_max":889,"o":"m 887 -70 l 770 -174 l 512 34 l 624 139 l 887 -70 m 889 469 q 838 211 889 319 q 693 44 786 102 q 477 -14 600 -14 q 262 44 356 -14 q 115 211 168 102 q 62 469 62 319 l 62 518 q 115 776 62 668 q 261 943 168 884 q 475 1001 355 1001 q 692 943 599 1001 q 837 776 785 884 q 889 518 889 668 l 889 469 m 707 519 q 680 702 707 628 q 601 813 652 775 q 475 851 549 851 q 352 813 404 851 q 272 702 300 775 q 245 519 245 628 l 245 469 q 273 287 245 361 q 353 174 300 212 q 477 136 405 136 q 602 174 551 136 q 680 287 653 212 q 707 469 707 361 l 707 519 z "},"R":{"ha":876,"x_min":97,"x_max":849,"o":"m 451 987 q 645 954 564 987 q 767 853 725 920 q 810 690 810 787 q 783 557 810 614 q 707 463 756 501 q 589 404 657 425 l 534 374 l 221 374 l 221 520 l 452 520 q 551 541 511 520 q 609 597 590 561 q 629 679 629 633 q 586 798 629 753 q 451 842 543 842 l 277 842 l 277 0 l 97 0 l 97 987 l 451 987 m 426 444 l 616 444 l 849 9 l 849 0 l 655 0 l 426 444 z "},"Ŕ":{"ha":876,"x_min":97,"x_max":849,"o":"m 451 987 q 645 954 564 987 q 767 853 725 920 q 810 690 810 787 q 783 557 810 614 q 707 463 756 501 q 589 404 657 425 l 534 374 l 221 374 l 221 520 l 452 520 q 551 541 511 520 q 609 597 590 561 q 629 679 629 633 q 586 798 629 753 q 451 842 543 842 l 277 842 l 277 0 l 97 0 l 97 987 l 451 987 m 426 444 l 616 444 l 849 9 l 849 0 l 655 0 l 426 444 m 497 1272 l 691 1272 l 505 1066 l 364 1066 l 497 1272 z "},"Ř":{"ha":876,"x_min":97,"x_max":849,"o":"m 451 987 q 645 954 564 987 q 767 853 725 920 q 810 690 810 787 q 783 557 810 614 q 707 463 756 501 q 589 404 657 425 l 534 374 l 221 374 l 221 520 l 452 520 q 551 541 511 520 q 609 597 590 561 q 629 679 629 633 q 586 798 629 753 q 451 842 543 842 l 277 842 l 277 0 l 97 0 l 97 987 l 451 987 m 426 444 l 616 444 l 849 9 l 849 0 l 655 0 l 426 444 m 680 1260 l 488 1072 l 386 1072 l 196 1259 l 196 1268 l 334 1268 l 436 1164 l 541 1268 l 680 1268 l 680 1260 z "},"Ŗ":{"ha":876,"x_min":97,"x_max":849,"o":"m 451 987 q 645 954 564 987 q 767 853 725 920 q 810 690 810 787 q 783 557 810 614 q 707 463 756 501 q 589 404 657 425 l 534 374 l 221 374 l 221 520 l 452 520 q 551 541 511 520 q 609 597 590 561 q 629 679 629 633 q 586 798 629 753 q 451 842 543 842 l 277 842 l 277 0 l 97 0 l 97 987 l 451 987 m 426 444 l 616 444 l 849 9 l 849 0 l 655 0 l 426 444 m 517 -214 q 493 -333 517 -286 q 411 -430 469 -381 l 319 -378 q 341 -340 332 -355 q 355 -311 351 -325 q 362 -276 360 -296 q 364 -221 364 -255 l 364 -115 l 517 -115 l 517 -214 z "},"S":{"ha":844,"x_min":50,"x_max":794,"o":"m 440 -14 q 299 6 368 -14 q 173 64 230 25 q 83 163 117 104 q 50 303 50 222 l 231 303 q 247 223 231 256 q 291 170 262 191 q 357 139 319 149 q 440 130 395 130 q 536 146 498 130 q 594 191 574 162 q 613 256 613 219 q 597 322 613 295 q 536 374 581 350 q 407 424 492 398 q 278 472 338 445 q 174 535 219 499 q 105 618 130 571 q 80 728 80 665 q 125 870 80 808 q 250 966 170 932 q 435 1001 330 1001 q 626 961 546 1001 q 750 852 707 920 q 793 699 793 783 l 612 699 q 593 781 612 745 q 534 837 574 817 q 433 857 494 857 q 337 840 375 857 q 280 793 298 823 q 261 728 261 764 q 284 665 261 692 q 353 615 307 637 q 467 572 399 593 q 650 497 577 541 q 758 396 722 454 q 794 258 794 337 q 750 113 794 174 q 627 19 707 52 q 440 -14 548 -14 z "},"Ś":{"ha":844,"x_min":50,"x_max":794,"o":"m 440 -14 q 299 6 368 -14 q 173 64 230 25 q 83 163 117 104 q 50 303 50 222 l 231 303 q 247 223 231 256 q 291 170 262 191 q 357 139 319 149 q 440 130 395 130 q 536 146 498 130 q 594 191 574 162 q 613 256 613 219 q 597 322 613 295 q 536 374 581 350 q 407 424 492 398 q 278 472 338 445 q 174 535 219 499 q 105 618 130 571 q 80 728 80 665 q 125 870 80 808 q 250 966 170 932 q 435 1001 330 1001 q 626 961 546 1001 q 750 852 707 920 q 793 699 793 783 l 612 699 q 593 781 612 745 q 534 837 574 817 q 433 857 494 857 q 337 840 375 857 q 280 793 298 823 q 261 728 261 764 q 284 665 261 692 q 353 615 307 637 q 467 572 399 593 q 650 497 577 541 q 758 396 722 454 q 794 258 794 337 q 750 113 794 174 q 627 19 707 52 q 440 -14 548 -14 m 481 1272 l 675 1272 l 489 1066 l 349 1066 l 481 1272 z "},"Š":{"ha":844,"x_min":50,"x_max":794,"o":"m 440 -14 q 299 6 368 -14 q 173 64 230 25 q 83 163 117 104 q 50 303 50 222 l 231 303 q 247 223 231 256 q 291 170 262 191 q 357 139 319 149 q 440 130 395 130 q 536 146 498 130 q 594 191 574 162 q 613 256 613 219 q 597 322 613 295 q 536 374 581 350 q 407 424 492 398 q 278 472 338 445 q 174 535 219 499 q 105 618 130 571 q 80 728 80 665 q 125 870 80 808 q 250 966 170 932 q 435 1001 330 1001 q 626 961 546 1001 q 750 852 707 920 q 793 699 793 783 l 612 699 q 593 781 612 745 q 534 837 574 817 q 433 857 494 857 q 337 840 375 857 q 280 793 298 823 q 261 728 261 764 q 284 665 261 692 q 353 615 307 637 q 467 572 399 593 q 650 497 577 541 q 758 396 722 454 q 794 258 794 337 q 750 113 794 174 q 627 19 707 52 q 440 -14 548 -14 m 664 1260 l 471 1072 l 370 1072 l 180 1259 l 180 1268 l 317 1268 l 420 1164 l 524 1268 l 664 1268 l 664 1260 z "},"Ş":{"ha":844,"x_min":50,"x_max":794,"o":"m 440 -14 q 299 6 368 -14 q 173 64 230 25 q 83 163 117 104 q 50 303 50 222 l 231 303 q 247 223 231 256 q 291 170 262 191 q 357 139 319 149 q 440 130 395 130 q 536 146 498 130 q 594 191 574 162 q 613 256 613 219 q 597 322 613 295 q 536 374 581 350 q 407 424 492 398 q 278 472 338 445 q 174 535 219 499 q 105 618 130 571 q 80 728 80 665 q 125 870 80 808 q 250 966 170 932 q 435 1001 330 1001 q 626 961 546 1001 q 750 852 707 920 q 793 699 793 783 l 612 699 q 593 781 612 745 q 534 837 574 817 q 433 857 494 857 q 337 840 375 857 q 280 793 298 823 q 261 728 261 764 q 284 665 261 692 q 353 615 307 637 q 467 572 399 593 q 650 497 577 541 q 758 396 722 454 q 794 258 794 337 q 750 113 794 174 q 627 19 707 52 q 440 -14 548 -14 m 498 3 l 490 -35 q 561 -67 529 -41 q 593 -152 593 -94 q 535 -265 593 -222 q 366 -307 477 -307 l 361 -208 q 406 -202 386 -208 q 438 -183 426 -196 q 450 -149 450 -170 q 426 -107 450 -119 q 349 -92 401 -96 l 370 3 l 498 3 z "},"Ș":{"ha":844,"x_min":50,"x_max":794,"o":"m 440 -14 q 299 6 368 -14 q 173 64 230 25 q 83 163 117 104 q 50 303 50 222 l 231 303 q 247 223 231 256 q 291 170 262 191 q 357 139 319 149 q 440 130 395 130 q 536 146 498 130 q 594 191 574 162 q 613 256 613 219 q 597 322 613 295 q 536 374 581 350 q 407 424 492 398 q 278 472 338 445 q 174 535 219 499 q 105 618 130 571 q 80 728 80 665 q 125 870 80 808 q 250 966 170 932 q 435 1001 330 1001 q 626 961 546 1001 q 750 852 707 920 q 793 699 793 783 l 612 699 q 593 781 612 745 q 534 837 574 817 q 433 857 494 857 q 337 840 375 857 q 280 793 298 823 q 261 728 261 764 q 284 665 261 692 q 353 615 307 637 q 467 572 399 593 q 650 497 577 541 q 758 396 722 454 q 794 258 794 337 q 750 113 794 174 q 627 19 707 52 q 440 -14 548 -14 m 501 -214 q 477 -333 501 -286 q 395 -430 454 -381 l 303 -378 q 326 -340 317 -355 q 340 -311 335 -325 q 347 -276 345 -296 q 349 -221 349 -255 l 349 -115 l 501 -115 l 501 -214 z "},"ẞ":{"ha":927,"x_min":74,"x_max":867,"o":"m 248 0 l 74 0 l 74 650 l 248 650 l 248 0 m 74 649 q 111 844 74 766 q 221 962 147 922 q 405 1001 294 1001 q 620 956 525 1001 q 801 838 714 911 l 509 492 l 398 492 l 398 575 l 588 798 q 511 842 554 823 q 405 861 467 861 q 314 836 349 861 q 264 764 279 811 q 248 649 248 716 l 74 649 m 367 159 q 430 137 391 148 q 516 126 469 126 q 647 169 601 126 q 694 280 694 211 q 671 383 694 345 q 604 439 648 422 q 492 457 559 457 l 398 457 l 398 572 l 512 579 q 774 503 681 579 q 867 281 867 427 q 823 119 867 185 q 702 19 778 53 q 530 -14 626 -14 q 414 -4 467 -14 q 317 24 362 6 l 367 159 z "},"T":{"ha":849,"x_min":30,"x_max":820,"o":"m 513 0 l 334 0 l 334 987 l 513 987 l 513 0 m 820 842 l 30 842 l 30 987 l 820 987 l 820 842 z "},"Ť":{"ha":849,"x_min":30,"x_max":820,"o":"m 513 0 l 334 0 l 334 987 l 513 987 l 513 0 m 820 842 l 30 842 l 30 987 l 820 987 l 820 842 m 666 1260 l 474 1072 l 373 1072 l 183 1259 l 183 1268 l 320 1268 l 423 1164 l 527 1268 l 666 1268 l 666 1260 z "},"Ț":{"ha":849,"x_min":30,"x_max":820,"o":"m 513 0 l 334 0 l 334 987 l 513 987 l 513 0 m 820 842 l 30 842 l 30 987 l 820 987 l 820 842 m 504 -214 q 480 -333 504 -286 q 398 -430 456 -381 l 306 -378 q 329 -340 319 -355 q 342 -311 338 -325 q 349 -276 347 -296 q 351 -221 351 -255 l 351 -115 l 504 -115 l 504 -214 z "},"U":{"ha":909,"x_min":84,"x_max":827,"o":"m 827 987 l 827 331 q 778 141 827 218 q 645 25 729 64 q 456 -14 561 -14 q 264 25 349 -14 q 132 141 180 64 q 84 331 84 218 l 84 987 l 264 987 l 264 331 q 288 218 264 262 q 354 153 311 174 q 456 132 397 132 q 558 153 515 132 q 623 218 600 174 q 646 331 646 262 l 646 987 l 827 987 z "},"Ú":{"ha":909,"x_min":84,"x_max":827,"o":"m 827 987 l 827 331 q 778 141 827 218 q 645 25 729 64 q 456 -14 561 -14 q 264 25 349 -14 q 132 141 180 64 q 84 331 84 218 l 84 987 l 264 987 l 264 331 q 288 218 264 262 q 354 153 311 174 q 456 132 397 132 q 558 153 515 132 q 623 218 600 174 q 646 331 646 262 l 646 987 l 827 987 m 515 1272 l 709 1272 l 522 1066 l 382 1066 l 515 1272 z "},"Ŭ":{"ha":909,"x_min":84,"x_max":827,"o":"m 827 987 l 827 331 q 778 141 827 218 q 645 25 729 64 q 456 -14 561 -14 q 264 25 349 -14 q 132 141 180 64 q 84 331 84 218 l 84 987 l 264 987 l 264 331 q 288 218 264 262 q 354 153 311 174 q 456 132 397 132 q 558 153 515 132 q 623 218 600 174 q 646 331 646 262 l 646 987 l 827 987 m 455 1065 q 345 1089 389 1065 q 277 1153 300 1112 q 255 1246 255 1194 q 255 1258 255 1251 q 256 1269 255 1265 l 359 1269 q 359 1260 359 1265 q 359 1251 359 1256 q 368 1203 359 1225 q 399 1168 378 1181 q 455 1156 420 1156 q 511 1168 490 1156 q 542 1203 532 1181 q 551 1251 551 1225 q 551 1260 551 1256 q 551 1269 551 1265 l 654 1269 q 654 1258 654 1265 q 654 1246 654 1251 q 632 1153 654 1194 q 566 1089 610 1112 q 455 1065 522 1065 z "},"Û":{"ha":909,"x_min":84,"x_max":827,"o":"m 827 987 l 827 331 q 778 141 827 218 q 645 25 729 64 q 456 -14 561 -14 q 264 25 349 -14 q 132 141 180 64 q 84 331 84 218 l 84 987 l 264 987 l 264 331 q 288 218 264 262 q 354 153 311 174 q 456 132 397 132 q 558 153 515 132 q 623 218 600 174 q 646 331 646 262 l 646 987 l 827 987 m 698 1084 l 698 1076 l 559 1076 l 455 1179 l 352 1076 l 215 1076 l 215 1085 l 405 1272 l 506 1272 l 698 1084 z "},"Ü":{"ha":909,"x_min":84,"x_max":827,"o":"m 827 987 l 827 331 q 778 141 827 218 q 645 25 729 64 q 456 -14 561 -14 q 264 25 349 -14 q 132 141 180 64 q 84 331 84 218 l 84 987 l 264 987 l 264 331 q 288 218 264 262 q 354 153 311 174 q 456 132 397 132 q 558 153 515 132 q 623 218 600 174 q 646 331 646 262 l 646 987 l 827 987 m 613 1063 q 550 1086 574 1063 q 526 1144 526 1109 q 550 1202 526 1178 q 613 1225 574 1225 q 677 1202 652 1225 q 701 1144 701 1178 q 677 1086 701 1109 q 613 1063 652 1063 m 296 1063 q 232 1086 256 1063 q 208 1144 208 1109 q 232 1202 208 1178 q 296 1225 256 1225 q 359 1202 335 1225 q 383 1144 383 1178 q 359 1086 383 1109 q 296 1063 335 1063 z "},"Ù":{"ha":909,"x_min":84,"x_max":827,"o":"m 827 987 l 827 331 q 778 141 827 218 q 645 25 729 64 q 456 -14 561 -14 q 264 25 349 -14 q 132 141 180 64 q 84 331 84 218 l 84 987 l 264 987 l 264 331 q 288 218 264 262 q 354 153 311 174 q 456 132 397 132 q 558 153 515 132 q 623 218 600 174 q 646 331 646 262 l 646 987 l 827 987 m 547 1066 l 403 1066 l 219 1272 l 414 1272 l 547 1066 z "},"Ű":{"ha":909,"x_min":84,"x_max":827,"o":"m 827 987 l 827 331 q 778 141 827 218 q 645 25 729 64 q 456 -14 561 -14 q 264 25 349 -14 q 132 141 180 64 q 84 331 84 218 l 84 987 l 264 987 l 264 331 q 288 218 264 262 q 354 153 311 174 q 456 132 397 132 q 558 153 515 132 q 623 218 600 174 q 646 331 646 262 l 646 987 l 827 987 m 360 1272 l 535 1272 l 404 1066 l 283 1066 l 360 1272 m 591 1272 l 766 1272 l 635 1066 l 513 1066 l 591 1272 z "},"Ū":{"ha":909,"x_min":84,"x_max":827,"o":"m 827 987 l 827 331 q 778 141 827 218 q 645 25 729 64 q 456 -14 561 -14 q 264 25 349 -14 q 132 141 180 64 q 84 331 84 218 l 84 987 l 264 987 l 264 331 q 288 218 264 262 q 354 153 311 174 q 456 132 397 132 q 558 153 515 132 q 623 218 600 174 q 646 331 646 262 l 646 987 l 827 987 m 688 1130 l 223 1130 l 223 1238 l 688 1238 l 688 1130 z "},"Ų":{"ha":909,"x_min":84,"x_max":827,"o":"m 827 987 l 827 331 q 778 141 827 218 q 645 25 729 64 q 456 -14 561 -14 q 264 25 349 -14 q 132 141 180 64 q 84 331 84 218 l 84 987 l 264 987 l 264 331 q 288 218 264 262 q 354 153 311 174 q 456 132 397 132 q 558 153 515 132 q 623 218 600 174 q 646 331 646 262 l 646 987 l 827 987 m 543 -226 q 438 -195 472 -226 q 404 -127 404 -165 q 431 -51 404 -84 q 496 7 458 -17 q 567 44 534 31 l 663 34 q 637 18 650 26 q 614 2 625 10 q 571 -39 588 -18 q 553 -86 553 -61 q 567 -112 553 -103 q 602 -121 580 -121 q 632 -117 616 -121 q 666 -107 648 -114 l 666 -208 q 608 -220 637 -215 q 543 -226 578 -226 z "},"Ů":{"ha":909,"x_min":84,"x_max":827,"o":"m 827 987 l 827 331 q 778 141 827 218 q 645 25 729 64 q 456 -14 561 -14 q 264 25 349 -14 q 132 141 180 64 q 84 331 84 218 l 84 987 l 264 987 l 264 331 q 288 218 264 262 q 354 153 311 174 q 456 132 397 132 q 558 153 515 132 q 623 218 600 174 q 646 331 646 262 l 646 987 l 827 987 m 455 1065 q 348 1105 391 1065 q 305 1202 305 1145 q 348 1301 305 1260 q 455 1342 391 1342 q 562 1301 519 1342 q 604 1202 604 1260 q 562 1105 604 1145 q 455 1065 519 1065 m 455 1135 q 505 1155 486 1135 q 524 1202 524 1175 q 505 1251 524 1230 q 455 1272 486 1272 q 405 1251 424 1272 q 387 1202 387 1230 q 405 1155 387 1175 q 455 1135 424 1135 z "},"V":{"ha":901,"x_min":10,"x_max":892,"o":"m 692 987 l 892 987 l 541 0 l 406 0 l 440 191 l 692 987 m 460 191 l 495 0 l 360 0 l 10 987 l 209 987 l 460 191 z "},"W":{"ha":1221,"x_min":30,"x_max":1196,"o":"m 538 987 l 645 987 l 642 812 l 433 0 l 321 0 l 343 197 l 538 987 m 368 201 l 375 0 l 255 0 l 30 987 l 210 987 l 368 201 m 1016 987 l 1196 987 l 971 0 l 851 0 l 860 203 l 1016 987 m 884 195 l 905 0 l 793 0 l 587 812 l 585 987 l 690 987 l 884 195 z "},"Ẃ":{"ha":1221,"x_min":30,"x_max":1196,"o":"m 538 987 l 645 987 l 642 812 l 433 0 l 321 0 l 343 197 l 538 987 m 368 201 l 375 0 l 255 0 l 30 987 l 210 987 l 368 201 m 1016 987 l 1196 987 l 971 0 l 851 0 l 860 203 l 1016 987 m 884 195 l 905 0 l 793 0 l 587 812 l 585 987 l 690 987 l 884 195 m 673 1272 l 867 1272 l 681 1066 l 541 1066 l 673 1272 z "},"Ŵ":{"ha":1221,"x_min":30,"x_max":1196,"o":"m 538 987 l 645 987 l 642 812 l 433 0 l 321 0 l 343 197 l 538 987 m 368 201 l 375 0 l 255 0 l 30 987 l 210 987 l 368 201 m 1016 987 l 1196 987 l 971 0 l 851 0 l 860 203 l 1016 987 m 884 195 l 905 0 l 793 0 l 587 812 l 585 987 l 690 987 l 884 195 m 857 1084 l 857 1076 l 718 1076 l 614 1179 l 511 1076 l 374 1076 l 374 1085 l 564 1272 l 665 1272 l 857 1084 z "},"Ẅ":{"ha":1221,"x_min":30,"x_max":1196,"o":"m 538 987 l 645 987 l 642 812 l 433 0 l 321 0 l 343 197 l 538 987 m 368 201 l 375 0 l 255 0 l 30 987 l 210 987 l 368 201 m 1016 987 l 1196 987 l 971 0 l 851 0 l 860 203 l 1016 987 m 884 195 l 905 0 l 793 0 l 587 812 l 585 987 l 690 987 l 884 195 m 772 1063 q 709 1086 733 1063 q 685 1144 685 1109 q 709 1202 685 1178 q 772 1225 733 1225 q 836 1202 812 1225 q 861 1144 861 1178 q 836 1086 861 1109 q 772 1063 812 1063 m 455 1063 q 391 1086 415 1063 q 367 1144 367 1109 q 391 1202 367 1178 q 455 1225 415 1225 q 518 1202 494 1225 q 543 1144 543 1178 q 518 1086 543 1109 q 455 1063 494 1063 z "},"Ẁ":{"ha":1221,"x_min":30,"x_max":1196,"o":"m 538 987 l 645 987 l 642 812 l 433 0 l 321 0 l 343 197 l 538 987 m 368 201 l 375 0 l 255 0 l 30 987 l 210 987 l 368 201 m 1016 987 l 1196 987 l 971 0 l 851 0 l 860 203 l 1016 987 m 884 195 l 905 0 l 793 0 l 587 812 l 585 987 l 690 987 l 884 195 m 705 1066 l 562 1066 l 378 1272 l 573 1272 l 705 1066 z "},"X":{"ha":880,"x_min":24,"x_max":857,"o":"m 441 635 l 642 987 l 850 987 l 555 498 l 857 0 l 647 0 l 441 359 l 233 0 l 24 0 l 326 498 l 31 987 l 239 987 l 441 635 z "},"Y":{"ha":851,"x_min":4,"x_max":846,"o":"m 425 526 l 646 987 l 846 987 l 516 362 l 516 0 l 334 0 l 334 362 l 4 987 l 204 987 l 425 526 z "},"Ý":{"ha":851,"x_min":4,"x_max":846,"o":"m 425 526 l 646 987 l 846 987 l 516 362 l 516 0 l 334 0 l 334 362 l 4 987 l 204 987 l 425 526 m 485 1272 l 679 1272 l 492 1066 l 352 1066 l 485 1272 z "},"Ŷ":{"ha":851,"x_min":4,"x_max":846,"o":"m 425 526 l 646 987 l 846 987 l 516 362 l 516 0 l 334 0 l 334 362 l 4 987 l 204 987 l 425 526 m 668 1084 l 668 1076 l 529 1076 l 425 1179 l 322 1076 l 185 1076 l 185 1085 l 375 1272 l 476 1272 l 668 1084 z "},"Ÿ":{"ha":851,"x_min":4,"x_max":846,"o":"m 425 526 l 646 987 l 846 987 l 516 362 l 516 0 l 334 0 l 334 362 l 4 987 l 204 987 l 425 526 m 584 1063 q 520 1086 545 1063 q 496 1144 496 1109 q 520 1202 496 1178 q 584 1225 545 1225 q 648 1202 623 1225 q 672 1144 672 1178 q 648 1086 672 1109 q 584 1063 623 1063 m 267 1063 q 202 1086 227 1063 q 178 1144 178 1109 q 202 1202 178 1178 q 267 1225 227 1225 q 330 1202 306 1225 q 354 1144 354 1178 q 330 1086 354 1109 q 267 1063 306 1063 z "},"Ỳ":{"ha":851,"x_min":4,"x_max":846,"o":"m 425 526 l 646 987 l 846 987 l 516 362 l 516 0 l 334 0 l 334 362 l 4 987 l 204 987 l 425 526 m 517 1066 l 373 1066 l 189 1272 l 385 1272 l 517 1066 z "},"Z":{"ha":839,"x_min":53,"x_max":793,"o":"m 793 0 l 106 0 l 106 145 l 793 145 l 793 0 m 176 0 l 53 0 l 53 113 l 659 987 l 779 987 l 779 878 l 176 0 m 713 842 l 56 842 l 56 987 l 713 987 l 713 842 z "},"Ź":{"ha":839,"x_min":53,"x_max":793,"o":"m 793 0 l 106 0 l 106 145 l 793 145 l 793 0 m 176 0 l 53 0 l 53 113 l 659 987 l 779 987 l 779 878 l 176 0 m 713 842 l 56 842 l 56 987 l 713 987 l 713 842 m 479 1272 l 673 1272 l 486 1066 l 346 1066 l 479 1272 z "},"Ž":{"ha":839,"x_min":53,"x_max":793,"o":"m 793 0 l 106 0 l 106 145 l 793 145 l 793 0 m 176 0 l 53 0 l 53 113 l 659 987 l 779 987 l 779 878 l 176 0 m 713 842 l 56 842 l 56 987 l 713 987 l 713 842 m 661 1260 l 469 1072 l 368 1072 l 178 1259 l 178 1268 l 315 1268 l 418 1164 l 522 1268 l 661 1268 l 661 1260 z "},"Ż":{"ha":839,"x_min":53,"x_max":793,"o":"m 793 0 l 106 0 l 106 145 l 793 145 l 793 0 m 176 0 l 53 0 l 53 113 l 659 987 l 779 987 l 779 878 l 176 0 m 713 842 l 56 842 l 56 987 l 713 987 l 713 842 m 419 1063 q 347 1089 373 1063 q 321 1154 321 1115 q 347 1220 321 1194 q 419 1246 373 1246 q 492 1220 465 1246 q 518 1154 518 1194 q 492 1089 518 1115 q 419 1063 465 1063 z "},"a":{"ha":749,"x_min":56,"x_max":693,"o":"m 490 495 q 460 584 490 551 q 368 616 430 616 q 303 604 330 616 q 260 570 275 591 q 245 519 245 548 l 72 519 q 110 632 72 580 q 216 715 147 684 q 377 747 284 747 q 525 719 460 747 q 627 635 590 691 q 665 494 665 578 l 665 172 q 672 80 665 119 q 693 12 680 41 l 693 0 l 516 0 q 497 70 503 27 q 490 154 490 113 l 490 495 m 515 341 l 403 341 q 273 308 316 341 q 229 221 229 275 q 258 151 229 179 q 339 123 287 123 q 424 143 388 123 q 480 191 460 163 q 501 244 500 219 l 555 167 q 527 109 546 140 q 477 50 508 77 q 404 4 446 22 q 304 -14 361 -14 q 177 15 233 -14 q 88 93 120 43 q 56 205 56 143 q 143 385 56 322 q 392 448 230 448 l 515 448 l 515 341 z "},"á":{"ha":749,"x_min":56,"x_max":693,"o":"m 490 495 q 460 584 490 551 q 368 616 430 616 q 303 604 330 616 q 260 570 275 591 q 245 519 245 548 l 72 519 q 110 632 72 580 q 216 715 147 684 q 377 747 284 747 q 525 719 460 747 q 627 635 590 691 q 665 494 665 578 l 665 172 q 672 80 665 119 q 693 12 680 41 l 693 0 l 516 0 q 497 70 503 27 q 490 154 490 113 l 490 495 m 515 341 l 403 341 q 273 308 316 341 q 229 221 229 275 q 258 151 229 179 q 339 123 287 123 q 424 143 388 123 q 480 191 460 163 q 501 244 500 219 l 555 167 q 527 109 546 140 q 477 50 508 77 q 404 4 446 22 q 304 -14 361 -14 q 177 15 233 -14 q 88 93 120 43 q 56 205 56 143 q 143 385 56 322 q 392 448 230 448 l 515 448 l 515 341 m 434 1018 l 628 1018 l 441 812 l 301 812 l 434 1018 z "},"ă":{"ha":749,"x_min":56,"x_max":693,"o":"m 490 495 q 460 584 490 551 q 368 616 430 616 q 303 604 330 616 q 260 570 275 591 q 245 519 245 548 l 72 519 q 110 632 72 580 q 216 715 147 684 q 377 747 284 747 q 525 719 460 747 q 627 635 590 691 q 665 494 665 578 l 665 172 q 672 80 665 119 q 693 12 680 41 l 693 0 l 516 0 q 497 70 503 27 q 490 154 490 113 l 490 495 m 515 341 l 403 341 q 273 308 316 341 q 229 221 229 275 q 258 151 229 179 q 339 123 287 123 q 424 143 388 123 q 480 191 460 163 q 501 244 500 219 l 555 167 q 527 109 546 140 q 477 50 508 77 q 404 4 446 22 q 304 -14 361 -14 q 177 15 233 -14 q 88 93 120 43 q 56 205 56 143 q 143 385 56 322 q 392 448 230 448 l 515 448 l 515 341 m 374 812 q 264 835 309 812 q 197 899 219 859 q 174 992 174 940 q 174 1004 174 997 q 175 1015 174 1011 l 279 1015 q 278 1007 278 1011 q 278 998 278 1002 q 288 949 278 971 q 318 915 297 928 q 374 902 340 902 q 431 915 410 902 q 461 949 452 928 q 471 998 471 971 q 471 1007 471 1002 q 470 1015 471 1011 l 573 1015 q 574 1004 574 1011 q 574 992 574 997 q 551 899 574 940 q 485 835 529 859 q 374 812 441 812 z "},"â":{"ha":749,"x_min":56,"x_max":693,"o":"m 490 495 q 460 584 490 551 q 368 616 430 616 q 303 604 330 616 q 260 570 275 591 q 245 519 245 548 l 72 519 q 110 632 72 580 q 216 715 147 684 q 377 747 284 747 q 525 719 460 747 q 627 635 590 691 q 665 494 665 578 l 665 172 q 672 80 665 119 q 693 12 680 41 l 693 0 l 516 0 q 497 70 503 27 q 490 154 490 113 l 490 495 m 515 341 l 403 341 q 273 308 316 341 q 229 221 229 275 q 258 151 229 179 q 339 123 287 123 q 424 143 388 123 q 480 191 460 163 q 501 244 500 219 l 555 167 q 527 109 546 140 q 477 50 508 77 q 404 4 446 22 q 304 -14 361 -14 q 177 15 233 -14 q 88 93 120 43 q 56 205 56 143 q 143 385 56 322 q 392 448 230 448 l 515 448 l 515 341 m 617 830 l 617 822 l 478 822 l 374 926 l 271 822 l 134 822 l 134 831 l 324 1018 l 425 1018 l 617 830 z "},"ä":{"ha":749,"x_min":56,"x_max":693,"o":"m 490 495 q 460 584 490 551 q 368 616 430 616 q 303 604 330 616 q 260 570 275 591 q 245 519 245 548 l 72 519 q 110 632 72 580 q 216 715 147 684 q 377 747 284 747 q 525 719 460 747 q 627 635 590 691 q 665 494 665 578 l 665 172 q 672 80 665 119 q 693 12 680 41 l 693 0 l 516 0 q 497 70 503 27 q 490 154 490 113 l 490 495 m 515 341 l 403 341 q 273 308 316 341 q 229 221 229 275 q 258 151 229 179 q 339 123 287 123 q 424 143 388 123 q 480 191 460 163 q 501 244 500 219 l 555 167 q 527 109 546 140 q 477 50 508 77 q 404 4 446 22 q 304 -14 361 -14 q 177 15 233 -14 q 88 93 120 43 q 56 205 56 143 q 143 385 56 322 q 392 448 230 448 l 515 448 l 515 341 m 532 809 q 469 832 493 809 q 445 890 445 856 q 469 948 445 924 q 532 972 493 972 q 596 948 572 972 q 621 890 621 924 q 596 832 621 856 q 532 809 572 809 m 215 809 q 151 832 175 809 q 127 890 127 856 q 151 948 127 924 q 215 972 175 972 q 278 948 254 972 q 302 890 302 924 q 278 832 302 856 q 215 809 254 809 z "},"à":{"ha":749,"x_min":56,"x_max":693,"o":"m 490 495 q 460 584 490 551 q 368 616 430 616 q 303 604 330 616 q 260 570 275 591 q 245 519 245 548 l 72 519 q 110 632 72 580 q 216 715 147 684 q 377 747 284 747 q 525 719 460 747 q 627 635 590 691 q 665 494 665 578 l 665 172 q 672 80 665 119 q 693 12 680 41 l 693 0 l 516 0 q 497 70 503 27 q 490 154 490 113 l 490 495 m 515 341 l 403 341 q 273 308 316 341 q 229 221 229 275 q 258 151 229 179 q 339 123 287 123 q 424 143 388 123 q 480 191 460 163 q 501 244 500 219 l 555 167 q 527 109 546 140 q 477 50 508 77 q 404 4 446 22 q 304 -14 361 -14 q 177 15 233 -14 q 88 93 120 43 q 56 205 56 143 q 143 385 56 322 q 392 448 230 448 l 515 448 l 515 341 m 466 812 l 322 812 l 138 1018 l 334 1018 l 466 812 z "},"ā":{"ha":749,"x_min":56,"x_max":693,"o":"m 490 495 q 460 584 490 551 q 368 616 430 616 q 303 604 330 616 q 260 570 275 591 q 245 519 245 548 l 72 519 q 110 632 72 580 q 216 715 147 684 q 377 747 284 747 q 525 719 460 747 q 627 635 590 691 q 665 494 665 578 l 665 172 q 672 80 665 119 q 693 12 680 41 l 693 0 l 516 0 q 497 70 503 27 q 490 154 490 113 l 490 495 m 515 341 l 403 341 q 273 308 316 341 q 229 221 229 275 q 258 151 229 179 q 339 123 287 123 q 424 143 388 123 q 480 191 460 163 q 501 244 500 219 l 555 167 q 527 109 546 140 q 477 50 508 77 q 404 4 446 22 q 304 -14 361 -14 q 177 15 233 -14 q 88 93 120 43 q 56 205 56 143 q 143 385 56 322 q 392 448 230 448 l 515 448 l 515 341 m 607 876 l 142 876 l 142 984 l 607 984 l 607 876 z "},"ą":{"ha":749,"x_min":56,"x_max":696,"o":"m 490 495 q 460 584 490 551 q 368 616 430 616 q 303 604 330 616 q 260 570 275 591 q 245 519 245 548 l 72 519 q 110 632 72 580 q 216 715 147 684 q 377 747 284 747 q 525 719 460 747 q 627 635 590 691 q 665 494 665 578 l 665 172 q 672 80 665 119 q 693 12 680 41 l 693 0 l 516 0 q 497 70 503 27 q 490 154 490 113 l 490 495 m 515 341 l 403 341 q 273 308 316 341 q 229 221 229 275 q 258 151 229 179 q 339 123 287 123 q 424 143 388 123 q 480 191 460 163 q 501 244 500 219 l 555 167 q 527 109 546 140 q 477 50 508 77 q 404 4 446 22 q 304 -14 361 -14 q 177 15 233 -14 q 88 93 120 43 q 56 205 56 143 q 143 385 56 322 q 392 448 230 448 l 515 448 l 515 341 m 574 -260 q 468 -229 503 -260 q 434 -161 434 -199 q 461 -84 434 -118 q 527 -27 488 -51 q 597 10 565 -3 l 693 0 q 668 -16 680 -8 q 645 -32 656 -24 q 601 -73 618 -52 q 584 -120 584 -95 q 597 -146 584 -137 q 633 -155 610 -155 q 663 -151 647 -155 q 696 -141 679 -148 l 696 -242 q 638 -254 668 -249 q 574 -260 608 -260 z "},"å":{"ha":749,"x_min":56,"x_max":693,"o":"m 490 495 q 460 584 490 551 q 368 616 430 616 q 303 604 330 616 q 260 570 275 591 q 245 519 245 548 l 72 519 q 110 632 72 580 q 216 715 147 684 q 377 747 284 747 q 525 719 460 747 q 627 635 590 691 q 665 494 665 578 l 665 172 q 672 80 665 119 q 693 12 680 41 l 693 0 l 516 0 q 497 70 503 27 q 490 154 490 113 l 490 495 m 515 341 l 403 341 q 273 308 316 341 q 229 221 229 275 q 258 151 229 179 q 339 123 287 123 q 424 143 388 123 q 480 191 460 163 q 501 244 500 219 l 555 167 q 527 109 546 140 q 477 50 508 77 q 404 4 446 22 q 304 -14 361 -14 q 177 15 233 -14 q 88 93 120 43 q 56 205 56 143 q 143 385 56 322 q 392 448 230 448 l 515 448 l 515 341 m 374 812 q 267 851 310 812 q 224 949 224 891 q 267 1047 224 1006 q 374 1088 310 1088 q 481 1047 438 1088 q 524 949 524 1006 q 481 851 524 891 q 374 812 438 812 m 374 881 q 424 901 405 881 q 443 949 443 922 q 424 998 443 977 q 374 1019 405 1019 q 325 998 343 1019 q 306 949 306 977 q 325 901 306 922 q 374 881 343 881 z "},"ã":{"ha":749,"x_min":56,"x_max":693,"o":"m 490 495 q 460 584 490 551 q 368 616 430 616 q 303 604 330 616 q 260 570 275 591 q 245 519 245 548 l 72 519 q 110 632 72 580 q 216 715 147 684 q 377 747 284 747 q 525 719 460 747 q 627 635 590 691 q 665 494 665 578 l 665 172 q 672 80 665 119 q 693 12 680 41 l 693 0 l 516 0 q 497 70 503 27 q 490 154 490 113 l 490 495 m 515 341 l 403 341 q 273 308 316 341 q 229 221 229 275 q 258 151 229 179 q 339 123 287 123 q 424 143 388 123 q 480 191 460 163 q 501 244 500 219 l 555 167 q 527 109 546 140 q 477 50 508 77 q 404 4 446 22 q 304 -14 361 -14 q 177 15 233 -14 q 88 93 120 43 q 56 205 56 143 q 143 385 56 322 q 392 448 230 448 l 515 448 l 515 341 m 229 835 l 124 841 q 144 930 124 890 q 197 994 163 970 q 275 1018 231 1018 q 326 1009 302 1018 q 369 988 349 1000 q 412 967 390 976 q 460 958 433 958 q 503 976 485 958 q 521 1026 521 994 l 625 1018 q 605 929 625 968 q 551 866 585 889 q 473 843 517 843 q 417 852 440 843 q 375 873 394 861 q 336 894 356 885 q 289 903 316 903 q 246 885 263 903 q 229 835 229 866 z "},"æ":{"ha":1173,"x_min":47,"x_max":1134,"o":"m 849 -14 q 659 32 736 -14 q 541 158 581 77 q 500 341 500 238 l 500 382 q 540 572 500 490 q 653 702 580 655 q 828 747 727 748 q 1054 658 974 747 q 1134 416 1134 568 l 1134 316 l 578 316 l 578 436 l 962 436 l 962 456 q 948 533 962 499 q 905 588 935 568 q 828 608 876 608 q 737 578 772 608 q 684 497 701 548 q 667 382 667 446 l 667 341 q 687 233 667 281 q 750 155 707 184 q 863 126 793 126 q 983 145 937 126 q 1067 185 1029 165 l 1117 68 q 1059 33 1097 52 q 968 0 1021 14 q 849 -14 916 -14 m 309 -14 q 115 48 182 -14 q 47 213 47 110 q 131 379 47 320 q 374 437 214 437 l 526 437 l 527 321 l 375 321 q 290 305 324 321 q 239 264 256 290 q 222 210 222 239 q 251 143 222 170 q 342 117 280 117 q 406 128 374 117 q 467 158 439 140 q 511 196 494 176 q 528 235 528 216 l 612 131 q 555 65 594 98 q 454 8 515 31 q 309 -14 393 -14 m 497 124 l 497 482 q 467 574 497 540 q 378 608 436 608 q 279 578 315 608 q 243 509 243 549 l 70 522 q 108 638 70 587 q 216 718 146 689 q 380 747 286 747 q 587 681 509 747 q 666 481 666 614 l 666 148 l 497 124 z "},"b":{"ha":781,"x_min":82,"x_max":730,"o":"m 446 -14 q 294 33 353 -14 q 202 161 235 80 q 157 347 169 243 l 157 387 q 202 574 169 493 q 294 701 235 655 q 444 747 353 747 q 603 700 539 747 q 699 568 667 652 q 730 374 730 484 l 730 360 q 699 166 730 251 q 603 34 667 82 q 446 -14 539 -14 m 82 0 l 82 1042 l 256 1042 l 256 161 l 239 0 l 82 0 m 401 128 q 495 159 461 128 q 543 242 528 189 q 557 360 557 294 l 557 374 q 543 490 557 437 q 495 574 529 543 q 400 606 461 606 q 329 592 359 606 q 278 553 298 578 q 247 494 258 528 q 232 420 235 460 l 232 313 q 256 219 237 261 q 310 153 275 177 q 401 128 346 128 z "},"c":{"ha":726,"x_min":51,"x_max":686,"o":"m 386 -14 q 199 36 273 -14 q 87 170 124 86 q 51 355 51 254 l 51 378 q 88 564 51 480 q 199 697 125 648 q 385 747 273 747 q 542 712 474 747 q 647 615 609 677 q 686 467 685 552 l 523 467 q 505 538 522 506 q 457 589 488 570 q 382 608 426 608 q 285 574 319 608 q 238 489 251 541 q 224 378 224 436 l 224 355 q 237 244 224 297 q 285 159 250 192 q 384 126 319 126 q 453 141 422 126 q 503 184 484 157 q 523 247 522 211 l 686 247 q 644 115 685 174 q 536 21 604 56 q 386 -14 469 -14 z "},"ć":{"ha":726,"x_min":51,"x_max":686,"o":"m 386 -14 q 199 36 273 -14 q 87 170 124 86 q 51 355 51 254 l 51 378 q 88 564 51 480 q 199 697 125 648 q 385 747 273 747 q 542 712 474 747 q 647 615 609 677 q 686 467 685 552 l 523 467 q 505 538 522 506 q 457 589 488 570 q 382 608 426 608 q 285 574 319 608 q 238 489 251 541 q 224 378 224 436 l 224 355 q 237 244 224 297 q 285 159 250 192 q 384 126 319 126 q 453 141 422 126 q 503 184 484 157 q 523 247 522 211 l 686 247 q 644 115 685 174 q 536 21 604 56 q 386 -14 469 -14 m 444 1018 l 637 1018 l 451 812 l 311 812 l 444 1018 z "},"č":{"ha":726,"x_min":51,"x_max":686,"o":"m 386 -14 q 199 36 273 -14 q 87 170 124 86 q 51 355 51 254 l 51 378 q 88 564 51 480 q 199 697 125 648 q 385 747 273 747 q 542 712 474 747 q 647 615 609 677 q 686 467 685 552 l 523 467 q 505 538 522 506 q 457 589 488 570 q 382 608 426 608 q 285 574 319 608 q 238 489 251 541 q 224 378 224 436 l 224 355 q 237 244 224 297 q 285 159 250 192 q 384 126 319 126 q 453 141 422 126 q 503 184 484 157 q 523 247 522 211 l 686 247 q 644 115 685 174 q 536 21 604 56 q 386 -14 469 -14 m 625 1006 l 433 819 l 332 819 l 142 1005 l 142 1015 l 279 1015 l 382 911 l 486 1015 l 625 1015 l 625 1006 z "},"ç":{"ha":726,"x_min":51,"x_max":686,"o":"m 386 -14 q 199 36 273 -14 q 87 170 124 86 q 51 355 51 254 l 51 378 q 88 564 51 480 q 199 697 125 648 q 385 747 273 747 q 542 712 474 747 q 647 615 609 677 q 686 467 685 552 l 523 467 q 505 538 522 506 q 457 589 488 570 q 382 608 426 608 q 285 574 319 608 q 238 489 251 541 q 224 378 224 436 l 224 355 q 237 244 224 297 q 285 159 250 192 q 384 126 319 126 q 453 141 422 126 q 503 184 484 157 q 523 247 522 211 l 686 247 q 644 115 685 174 q 536 21 604 56 q 386 -14 469 -14 m 412 3 l 404 -35 q 475 -67 443 -41 q 507 -152 507 -94 q 449 -265 507 -222 q 279 -307 391 -307 l 275 -208 q 320 -202 300 -208 q 352 -183 340 -196 q 363 -149 363 -170 q 339 -107 363 -119 q 262 -92 315 -96 l 283 3 l 412 3 z "},"ċ":{"ha":726,"x_min":51,"x_max":686,"o":"m 386 -14 q 199 36 273 -14 q 87 170 124 86 q 51 355 51 254 l 51 378 q 88 564 51 480 q 199 697 125 648 q 385 747 273 747 q 542 712 474 747 q 647 615 609 677 q 686 467 685 552 l 523 467 q 505 538 522 506 q 457 589 488 570 q 382 608 426 608 q 285 574 319 608 q 238 489 251 541 q 224 378 224 436 l 224 355 q 237 244 224 297 q 285 159 250 192 q 384 126 319 126 q 453 141 422 126 q 503 184 484 157 q 523 247 522 211 l 686 247 q 644 115 685 174 q 536 21 604 56 q 386 -14 469 -14 m 384 809 q 312 835 338 809 q 286 900 286 861 q 312 966 286 940 q 384 992 338 992 q 456 966 430 992 q 483 900 483 940 q 456 835 483 861 q 384 809 430 809 z "},"d":{"ha":784,"x_min":52,"x_max":699,"o":"m 338 -14 q 185 35 250 -14 q 86 168 121 83 q 52 359 52 252 l 52 373 q 86 569 52 484 q 185 700 121 653 q 340 747 250 747 q 488 701 429 747 q 582 573 547 654 q 627 384 616 491 l 627 344 q 582 160 616 241 q 488 33 548 79 q 338 -14 429 -14 m 382 129 q 472 153 437 129 q 526 217 507 176 q 552 309 545 258 l 552 418 q 536 493 548 458 q 504 553 524 528 q 454 592 484 578 q 384 606 425 606 q 292 574 327 606 q 241 490 257 543 q 225 373 225 437 l 225 359 q 241 243 225 295 q 291 160 256 191 q 382 129 326 129 m 542 0 l 525 155 l 525 1042 l 699 1042 l 699 0 l 542 0 z "},"ď":{"ha":818,"x_min":52,"x_max":1004,"o":"m 338 -14 q 185 35 250 -14 q 86 168 121 83 q 52 359 52 252 l 52 373 q 86 569 52 484 q 185 700 121 653 q 340 747 250 747 q 488 701 429 747 q 582 573 547 654 q 627 384 616 491 l 627 344 q 582 160 616 241 q 488 33 548 79 q 338 -14 429 -14 m 382 129 q 472 153 437 129 q 526 217 507 176 q 552 309 545 258 l 552 418 q 536 493 548 458 q 504 553 524 528 q 454 592 484 578 q 384 606 425 606 q 292 574 327 606 q 241 490 257 543 q 225 373 225 437 l 225 359 q 241 243 225 295 q 291 160 256 191 q 382 129 326 129 m 542 0 l 525 155 l 525 1042 l 699 1042 l 699 0 l 542 0 m 836 1042 l 1004 1042 l 899 756 l 777 756 l 836 1042 z "},"đ":{"ha":786,"x_min":52,"x_max":800,"o":"m 239 835 l 239 945 l 800 945 l 800 835 l 239 835 m 338 -14 q 185 35 250 -14 q 86 168 121 83 q 52 359 52 252 l 52 373 q 86 569 52 484 q 185 700 121 653 q 340 747 250 747 q 488 701 429 747 q 582 573 547 654 q 627 384 616 491 l 627 344 q 582 160 616 241 q 488 33 548 79 q 338 -14 429 -14 m 382 129 q 472 153 437 129 q 526 217 507 176 q 552 309 545 258 l 552 418 q 536 493 548 458 q 504 553 524 528 q 454 592 484 578 q 384 606 425 606 q 292 574 327 606 q 241 490 257 543 q 225 373 225 437 l 225 359 q 241 243 225 295 q 291 160 256 191 q 382 129 326 129 m 542 0 l 525 155 l 525 1042 l 699 1042 l 699 0 l 542 0 z "},"ð":{"ha":804,"x_min":66,"x_max":742,"o":"m 217 1072 q 490 953 372 1039 q 675 736 608 867 q 742 437 742 606 l 742 382 q 698 176 742 265 q 577 36 654 86 q 401 -14 500 -14 q 227 31 302 -14 q 109 150 151 75 q 66 317 66 225 q 104 496 66 420 q 210 615 141 573 q 372 658 279 658 q 510 623 449 658 q 608 531 571 589 q 648 405 645 473 l 586 406 q 575 445 586 425 q 543 484 564 466 q 489 513 522 502 q 412 524 456 524 q 318 499 356 524 q 260 428 280 474 q 240 317 240 381 q 259 224 240 268 q 315 154 279 180 q 404 127 352 127 q 493 158 457 127 q 549 245 530 190 q 568 369 568 300 l 568 439 q 535 633 568 549 q 446 776 503 716 q 316 874 389 836 q 163 934 243 913 l 217 1072 m 293 705 l 241 779 l 619 1025 l 670 951 l 293 705 z "},"e":{"ha":747,"x_min":54,"x_max":706,"o":"m 410 -14 q 219 34 299 -14 q 97 161 140 81 q 54 341 54 242 l 54 369 q 97 568 54 483 q 216 700 140 653 q 389 747 292 747 q 565 702 495 747 q 671 575 635 656 q 706 387 706 494 l 706 313 l 136 313 l 136 436 l 534 436 l 534 450 q 518 528 533 492 q 472 586 503 564 q 389 608 440 608 q 299 578 335 608 q 246 494 264 548 q 228 369 228 441 l 228 341 q 251 231 228 280 q 316 154 273 182 q 420 126 359 126 q 523 149 477 126 q 602 214 569 172 l 692 123 q 588 29 658 71 q 410 -14 517 -14 z "},"é":{"ha":747,"x_min":54,"x_max":706,"o":"m 410 -14 q 219 34 299 -14 q 97 161 140 81 q 54 341 54 242 l 54 369 q 97 568 54 483 q 216 700 140 653 q 389 747 292 747 q 565 702 495 747 q 671 575 635 656 q 706 387 706 494 l 706 313 l 136 313 l 136 436 l 534 436 l 534 450 q 518 528 533 492 q 472 586 503 564 q 389 608 440 608 q 299 578 335 608 q 246 494 264 548 q 228 369 228 441 l 228 341 q 251 231 228 280 q 316 154 273 182 q 420 126 359 126 q 523 149 477 126 q 602 214 569 172 l 692 123 q 588 29 658 71 q 410 -14 517 -14 m 450 1018 l 644 1018 l 457 812 l 317 812 l 450 1018 z "},"ě":{"ha":747,"x_min":54,"x_max":706,"o":"m 410 -14 q 219 34 299 -14 q 97 161 140 81 q 54 341 54 242 l 54 369 q 97 568 54 483 q 216 700 140 653 q 389 747 292 747 q 565 702 495 747 q 671 575 635 656 q 706 387 706 494 l 706 313 l 136 313 l 136 436 l 534 436 l 534 450 q 518 528 533 492 q 472 586 503 564 q 389 608 440 608 q 299 578 335 608 q 246 494 264 548 q 228 369 228 441 l 228 341 q 251 231 228 280 q 316 154 273 182 q 420 126 359 126 q 523 149 477 126 q 602 214 569 172 l 692 123 q 588 29 658 71 q 410 -14 517 -14 m 632 1006 l 439 819 l 338 819 l 149 1005 l 149 1015 l 286 1015 l 389 911 l 492 1015 l 632 1015 l 632 1006 z "},"ê":{"ha":747,"x_min":54,"x_max":706,"o":"m 410 -14 q 219 34 299 -14 q 97 161 140 81 q 54 341 54 242 l 54 369 q 97 568 54 483 q 216 700 140 653 q 389 747 292 747 q 565 702 495 747 q 671 575 635 656 q 706 387 706 494 l 706 313 l 136 313 l 136 436 l 534 436 l 534 450 q 518 528 533 492 q 472 586 503 564 q 389 608 440 608 q 299 578 335 608 q 246 494 264 548 q 228 369 228 441 l 228 341 q 251 231 228 280 q 316 154 273 182 q 420 126 359 126 q 523 149 477 126 q 602 214 569 172 l 692 123 q 588 29 658 71 q 410 -14 517 -14 m 633 830 l 633 822 l 494 822 l 390 926 l 287 822 l 150 822 l 150 831 l 340 1018 l 441 1018 l 633 830 z "},"ë":{"ha":747,"x_min":54,"x_max":706,"o":"m 410 -14 q 219 34 299 -14 q 97 161 140 81 q 54 341 54 242 l 54 369 q 97 568 54 483 q 216 700 140 653 q 389 747 292 747 q 565 702 495 747 q 671 575 635 656 q 706 387 706 494 l 706 313 l 136 313 l 136 436 l 534 436 l 534 450 q 518 528 533 492 q 472 586 503 564 q 389 608 440 608 q 299 578 335 608 q 246 494 264 548 q 228 369 228 441 l 228 341 q 251 231 228 280 q 316 154 273 182 q 420 126 359 126 q 523 149 477 126 q 602 214 569 172 l 692 123 q 588 29 658 71 q 410 -14 517 -14 m 549 809 q 485 832 509 809 q 461 890 461 856 q 485 948 461 924 q 549 972 509 972 q 612 948 588 972 q 637 890 637 924 q 612 832 637 856 q 549 809 588 809 m 231 809 q 167 832 191 809 q 143 890 143 856 q 167 948 143 924 q 231 972 191 972 q 295 948 271 972 q 319 890 319 924 q 295 832 319 856 q 231 809 271 809 z "},"ė":{"ha":747,"x_min":54,"x_max":706,"o":"m 410 -14 q 219 34 299 -14 q 97 161 140 81 q 54 341 54 242 l 54 369 q 97 568 54 483 q 216 700 140 653 q 389 747 292 747 q 565 702 495 747 q 671 575 635 656 q 706 387 706 494 l 706 313 l 136 313 l 136 436 l 534 436 l 534 450 q 518 528 533 492 q 472 586 503 564 q 389 608 440 608 q 299 578 335 608 q 246 494 264 548 q 228 369 228 441 l 228 341 q 251 231 228 280 q 316 154 273 182 q 420 126 359 126 q 523 149 477 126 q 602 214 569 172 l 692 123 q 588 29 658 71 q 410 -14 517 -14 m 390 809 q 318 835 344 809 q 292 900 292 861 q 318 966 292 940 q 390 992 344 992 q 463 966 436 992 q 489 900 489 940 q 463 835 489 861 q 390 809 436 809 z "},"è":{"ha":747,"x_min":54,"x_max":706,"o":"m 410 -14 q 219 34 299 -14 q 97 161 140 81 q 54 341 54 242 l 54 369 q 97 568 54 483 q 216 700 140 653 q 389 747 292 747 q 565 702 495 747 q 671 575 635 656 q 706 387 706 494 l 706 313 l 136 313 l 136 436 l 534 436 l 534 450 q 518 528 533 492 q 472 586 503 564 q 389 608 440 608 q 299 578 335 608 q 246 494 264 548 q 228 369 228 441 l 228 341 q 251 231 228 280 q 316 154 273 182 q 420 126 359 126 q 523 149 477 126 q 602 214 569 172 l 692 123 q 588 29 658 71 q 410 -14 517 -14 m 481 812 l 338 812 l 154 1018 l 349 1018 l 481 812 z "},"ē":{"ha":747,"x_min":54,"x_max":706,"o":"m 410 -14 q 219 34 299 -14 q 97 161 140 81 q 54 341 54 242 l 54 369 q 97 568 54 483 q 216 700 140 653 q 389 747 292 747 q 565 702 495 747 q 671 575 635 656 q 706 387 706 494 l 706 313 l 136 313 l 136 436 l 534 436 l 534 450 q 518 528 533 492 q 472 586 503 564 q 389 608 440 608 q 299 578 335 608 q 246 494 264 548 q 228 369 228 441 l 228 341 q 251 231 228 280 q 316 154 273 182 q 420 126 359 126 q 523 149 477 126 q 602 214 569 172 l 692 123 q 588 29 658 71 q 410 -14 517 -14 m 623 876 l 158 876 l 158 984 l 623 984 l 623 876 z "},"ę":{"ha":747,"x_min":54,"x_max":706,"o":"m 410 -14 q 219 34 299 -14 q 97 161 140 81 q 54 341 54 242 l 54 369 q 97 568 54 483 q 216 700 140 653 q 389 747 292 747 q 565 702 495 747 q 671 575 635 656 q 706 387 706 494 l 706 313 l 136 313 l 136 436 l 534 436 l 534 450 q 518 528 533 492 q 472 586 503 564 q 389 608 440 608 q 299 578 335 608 q 246 494 264 548 q 228 369 228 441 l 228 341 q 251 231 228 280 q 316 154 273 182 q 420 126 359 126 q 523 149 477 126 q 602 214 569 172 l 692 123 q 588 29 658 71 q 410 -14 517 -14 m 459 -235 q 354 -204 388 -235 q 319 -136 319 -174 q 347 -59 319 -93 q 412 -2 374 -26 q 483 35 450 22 l 578 25 q 553 9 566 17 q 530 -7 541 1 q 487 -48 504 -26 q 469 -95 469 -70 q 483 -121 469 -112 q 518 -130 496 -130 q 548 -126 532 -130 q 582 -116 564 -123 l 582 -217 q 524 -229 553 -224 q 459 -235 494 -235 z "},"f":{"ha":493,"x_min":27,"x_max":494,"o":"m 138 0 l 138 802 q 208 990 138 925 q 399 1056 278 1056 q 448 1053 424 1056 q 494 1044 471 1049 l 490 908 q 461 912 477 911 q 428 913 446 913 q 342 885 373 913 q 312 802 312 856 l 312 0 l 138 0 m 461 606 l 27 606 l 27 734 l 461 734 l 461 606 z "},"g":{"ha":789,"x_min":53,"x_max":707,"o":"m 368 -289 q 274 -277 326 -289 q 175 -239 223 -265 q 95 -170 127 -212 l 175 -65 q 260 -131 213 -109 q 359 -153 307 -153 q 487 -108 441 -153 q 533 20 533 -64 l 533 566 l 550 734 l 707 734 l 707 22 q 665 -147 707 -77 q 545 -253 622 -217 q 368 -289 469 -289 m 347 -14 q 191 35 256 -14 q 89 168 125 83 q 53 359 53 252 l 53 373 q 89 569 53 484 q 191 700 124 653 q 348 747 257 747 q 471 721 420 747 q 555 646 522 694 q 607 531 588 597 q 635 384 626 464 l 635 344 q 590 160 623 241 q 497 33 557 79 q 347 -14 438 -14 m 391 129 q 482 153 447 129 q 537 217 517 176 q 564 309 557 258 l 564 418 q 548 493 559 458 q 516 553 536 528 q 464 592 495 578 q 392 606 433 606 q 298 574 335 606 q 244 490 262 543 q 227 373 227 437 l 227 359 q 244 243 227 295 q 297 160 261 191 q 391 129 334 129 z "},"ğ":{"ha":789,"x_min":53,"x_max":707,"o":"m 368 -289 q 274 -277 326 -289 q 175 -239 223 -265 q 95 -170 127 -212 l 175 -65 q 260 -131 213 -109 q 359 -153 307 -153 q 487 -108 441 -153 q 533 20 533 -64 l 533 566 l 550 734 l 707 734 l 707 22 q 665 -147 707 -77 q 545 -253 622 -217 q 368 -289 469 -289 m 347 -14 q 191 35 256 -14 q 89 168 125 83 q 53 359 53 252 l 53 373 q 89 569 53 484 q 191 700 124 653 q 348 747 257 747 q 471 721 420 747 q 555 646 522 694 q 607 531 588 597 q 635 384 626 464 l 635 344 q 590 160 623 241 q 497 33 557 79 q 347 -14 438 -14 m 391 129 q 482 153 447 129 q 537 217 517 176 q 564 309 557 258 l 564 418 q 548 493 559 458 q 516 553 536 528 q 464 592 495 578 q 392 606 433 606 q 298 574 335 606 q 244 490 262 543 q 227 373 227 437 l 227 359 q 244 243 227 295 q 297 160 261 191 q 391 129 334 129 m 395 812 q 284 835 329 812 q 217 899 239 859 q 195 992 195 940 q 195 1004 195 997 q 195 1015 195 1011 l 299 1015 q 298 1007 298 1011 q 298 998 298 1002 q 308 949 298 971 q 339 915 317 928 q 395 902 360 902 q 451 915 430 902 q 481 949 472 928 q 491 998 491 971 q 491 1007 491 1002 q 490 1015 491 1011 l 593 1015 q 594 1004 594 1011 q 594 992 594 997 q 572 899 594 940 q 505 835 549 859 q 395 812 461 812 z "},"ģ":{"ha":789,"x_min":53,"x_max":707,"o":"m 368 -289 q 274 -277 326 -289 q 175 -239 223 -265 q 95 -170 127 -212 l 175 -65 q 260 -131 213 -109 q 359 -153 307 -153 q 487 -108 441 -153 q 533 20 533 -64 l 533 566 l 550 734 l 707 734 l 707 22 q 665 -147 707 -77 q 545 -253 622 -217 q 368 -289 469 -289 m 347 -14 q 191 35 256 -14 q 89 168 125 83 q 53 359 53 252 l 53 373 q 89 569 53 484 q 191 700 124 653 q 348 747 257 747 q 471 721 420 747 q 555 646 522 694 q 607 531 588 597 q 635 384 626 464 l 635 344 q 590 160 623 241 q 497 33 557 79 q 347 -14 438 -14 m 391 129 q 482 153 447 129 q 537 217 517 176 q 564 309 557 258 l 564 418 q 548 493 559 458 q 516 553 536 528 q 464 592 495 578 q 392 606 433 606 q 298 574 335 606 q 244 490 262 543 q 227 373 227 437 l 227 359 q 244 243 227 295 q 297 160 261 191 q 391 129 334 129 m 307 968 q 331 1089 307 1041 q 413 1185 355 1137 l 505 1133 q 482 1095 491 1110 q 469 1065 473 1080 q 461 1030 464 1051 q 459 976 459 1010 l 459 869 l 307 869 l 307 968 z "},"ġ":{"ha":789,"x_min":53,"x_max":707,"o":"m 368 -289 q 274 -277 326 -289 q 175 -239 223 -265 q 95 -170 127 -212 l 175 -65 q 260 -131 213 -109 q 359 -153 307 -153 q 487 -108 441 -153 q 533 20 533 -64 l 533 566 l 550 734 l 707 734 l 707 22 q 665 -147 707 -77 q 545 -253 622 -217 q 368 -289 469 -289 m 347 -14 q 191 35 256 -14 q 89 168 125 83 q 53 359 53 252 l 53 373 q 89 569 53 484 q 191 700 124 653 q 348 747 257 747 q 471 721 420 747 q 555 646 522 694 q 607 531 588 597 q 635 384 626 464 l 635 344 q 590 160 623 241 q 497 33 557 79 q 347 -14 438 -14 m 391 129 q 482 153 447 129 q 537 217 517 176 q 564 309 557 258 l 564 418 q 548 493 559 458 q 516 553 536 528 q 464 592 495 578 q 392 606 433 606 q 298 574 335 606 q 244 490 262 543 q 227 373 227 437 l 227 359 q 244 243 227 295 q 297 160 261 191 q 391 129 334 129 m 394 809 q 322 835 348 809 q 296 900 296 861 q 322 966 296 940 q 394 992 348 992 q 467 966 440 992 q 493 900 493 940 q 467 835 493 861 q 394 809 440 809 z "},"h":{"ha":773,"x_min":79,"x_max":694,"o":"m 253 0 l 79 0 l 79 1042 l 253 1042 l 253 0 m 169 392 q 205 575 170 495 q 305 701 241 655 q 454 747 369 747 q 581 720 527 747 q 665 631 635 692 q 694 469 694 570 l 694 0 l 520 0 l 520 470 q 506 550 520 521 q 463 593 491 580 q 394 606 435 606 q 319 589 351 606 q 266 544 287 573 q 234 476 244 515 q 223 393 223 437 l 169 392 z "},"ħ":{"ha":779,"x_min":-18,"x_max":700,"o":"m -18 835 l -18 945 l 543 945 l 543 835 l -18 835 m 258 0 l 84 0 l 84 1042 l 258 1042 l 258 0 m 174 392 q 211 575 175 495 q 310 701 246 655 q 460 747 374 747 q 586 720 532 747 q 670 631 640 692 q 700 469 700 570 l 700 0 l 526 0 l 526 470 q 511 550 526 521 q 468 593 496 580 q 399 606 440 606 q 324 589 356 606 q 271 544 292 573 q 239 476 250 515 q 229 393 229 437 l 174 392 z "},"i":{"ha":363,"x_min":83,"x_max":280,"o":"m 181 1017 q 254 990 227 1017 q 280 925 280 964 q 254 860 280 886 q 181 833 227 833 q 109 860 135 833 q 83 925 83 886 q 109 990 83 964 q 181 1017 135 1017 m 269 0 l 94 0 l 94 734 l 269 734 l 269 0 z "},"ı":{"ha":369,"x_min":96,"x_max":270,"o":"m 270 0 l 96 0 l 96 734 l 270 734 l 270 0 z "},"í":{"ha":369,"x_min":96,"x_max":438,"o":"m 270 0 l 96 0 l 96 734 l 270 734 l 270 0 m 244 1018 l 438 1018 l 252 812 l 111 812 l 244 1018 z "},"î":{"ha":369,"x_min":-56,"x_max":427,"o":"m 270 0 l 96 0 l 96 734 l 270 734 l 270 0 m 427 830 l 427 822 l 288 822 l 184 926 l 81 822 l -56 822 l -56 831 l 134 1018 l 235 1018 l 427 830 z "},"ï":{"ha":369,"x_min":-62,"x_max":431,"o":"m 270 0 l 96 0 l 96 734 l 270 734 l 270 0 m 343 809 q 280 832 304 809 q 256 890 256 856 q 280 948 256 924 q 343 972 304 972 q 407 948 382 972 q 431 890 431 924 q 407 832 431 856 q 343 809 382 809 m 26 809 q -38 832 -14 809 q -62 890 -62 856 q -38 948 -62 924 q 26 972 -14 972 q 89 948 65 972 q 113 890 113 924 q 89 832 113 856 q 26 809 65 809 z "},"ì":{"ha":369,"x_min":-52,"x_max":276,"o":"m 270 0 l 96 0 l 96 734 l 270 734 l 270 0 m 276 812 l 132 812 l -52 1018 l 144 1018 l 276 812 z "},"ī":{"ha":369,"x_min":-47,"x_max":416,"o":"m 270 0 l 96 0 l 96 734 l 270 734 l 270 0 m 417 876 l -47 876 l -47 984 l 417 984 l 417 876 z "},"į":{"ha":369,"x_min":10,"x_max":283,"o":"m 270 0 l 96 0 l 96 734 l 270 734 l 270 0 m 184 809 q 112 835 138 809 q 85 900 85 861 q 112 966 85 940 q 184 992 138 992 q 256 966 230 992 q 283 900 283 940 q 256 835 283 861 q 184 809 230 809 m 150 -260 q 44 -229 79 -260 q 10 -161 10 -199 q 37 -84 10 -118 q 103 -27 64 -51 q 174 10 141 -3 l 269 0 q 244 -16 256 -8 q 221 -32 232 -24 q 177 -73 195 -52 q 160 -120 160 -95 q 173 -146 160 -137 q 209 -155 186 -155 q 239 -151 223 -155 q 273 -141 255 -148 l 273 -242 q 214 -254 244 -249 q 150 -260 184 -260 z "},"ĳ":{"ha":737,"x_min":83,"x_max":639,"o":"m 181 1017 q 254 990 227 1017 q 280 925 280 964 q 254 860 280 886 q 181 833 227 833 q 109 860 135 833 q 83 925 83 886 q 109 990 83 964 q 181 1017 135 1017 m 269 0 l 94 0 l 94 734 l 269 734 l 269 0 m 627 734 l 627 -56 q 568 -234 627 -172 q 397 -296 509 -296 q 351 -293 374 -296 q 305 -285 327 -290 l 305 -147 q 336 -152 320 -150 q 366 -153 351 -153 q 431 -131 408 -153 q 453 -56 453 -108 l 453 734 l 627 734 m 541 809 q 468 835 494 809 q 442 900 442 861 q 468 966 442 940 q 541 992 494 992 q 613 966 587 992 q 640 900 640 940 q 613 835 640 861 q 541 809 587 809 z "},"j":{"ha":374,"x_min":-58,"x_max":276,"o":"m 264 734 l 264 -56 q 205 -234 264 -172 q 34 -296 146 -296 q -12 -293 12 -296 q -58 -285 -36 -290 l -58 -147 q -27 -152 -43 -150 q 3 -153 -12 -153 q 68 -131 45 -153 q 90 -56 90 -108 l 90 734 l 264 734 m 177 809 q 105 835 131 809 q 79 900 79 861 q 105 966 79 940 q 177 992 131 992 q 250 966 223 992 q 276 900 276 940 q 250 835 276 861 q 177 809 223 809 z "},"ȷ":{"ha":374,"x_min":-58,"x_max":264,"o":"m 264 734 l 264 -56 q 205 -234 264 -172 q 34 -296 146 -296 q -12 -293 12 -296 q -58 -285 -36 -290 l -58 -147 q -27 -152 -43 -150 q 3 -153 -12 -153 q 68 -131 45 -153 q 90 -56 90 -108 l 90 734 l 264 734 z "},"k":{"ha":730,"x_min":82,"x_max":739,"o":"m 256 0 l 82 0 l 82 1042 l 256 1042 l 256 0 m 395 376 l 218 197 l 170 339 l 303 507 l 503 734 l 712 734 l 395 376 m 308 341 l 420 458 l 739 0 l 538 0 l 308 341 z "},"ķ":{"ha":730,"x_min":82,"x_max":739,"o":"m 256 0 l 82 0 l 82 1042 l 256 1042 l 256 0 m 395 376 l 218 197 l 170 339 l 303 507 l 503 734 l 712 734 l 395 376 m 308 341 l 420 458 l 739 0 l 538 0 l 308 341 m 444 -214 q 420 -333 444 -286 q 338 -430 397 -381 l 246 -378 q 269 -340 260 -355 q 283 -311 278 -325 q 290 -276 288 -296 q 292 -221 292 -255 l 292 -115 l 444 -115 l 444 -214 z "},"l":{"ha":359,"x_min":92,"x_max":267,"o":"m 267 0 l 92 0 l 92 1042 l 267 1042 l 267 0 z "},"ĺ":{"ha":359,"x_min":92,"x_max":433,"o":"m 267 0 l 92 0 l 92 1042 l 267 1042 l 267 0 m 239 1326 l 433 1326 l 246 1120 l 106 1120 l 239 1326 z "},"ľ":{"ha":389,"x_min":92,"x_max":572,"o":"m 267 0 l 92 0 l 92 1042 l 267 1042 l 267 0 m 402 1042 l 571 1042 l 465 756 l 344 756 l 402 1042 z "},"ļ":{"ha":359,"x_min":60,"x_max":267,"o":"m 267 0 l 92 0 l 92 1042 l 267 1042 l 267 0 m 258 -214 q 235 -333 258 -286 q 153 -430 211 -381 l 60 -378 q 83 -340 74 -355 q 97 -311 92 -325 q 104 -276 102 -296 q 106 -221 106 -255 l 106 -115 l 258 -115 l 258 -214 z "},"ł":{"ha":525,"x_min":-64,"x_max":525,"o":"m 7 302 l -64 385 l 454 784 l 525 701 l 7 302 m 294 0 l 119 0 l 119 1042 l 294 1042 l 294 0 z "},"m":{"ha":1207,"x_min":81,"x_max":1126,"o":"m 256 0 l 81 0 l 81 734 l 245 734 l 256 584 l 256 0 m 171 392 q 204 575 171 495 q 302 701 237 655 q 463 747 367 747 q 627 687 563 747 q 690 489 690 627 l 690 0 l 517 0 l 517 472 q 502 552 517 523 q 458 593 486 581 q 391 606 429 606 q 316 589 347 606 q 266 544 286 573 q 237 476 246 515 q 228 393 228 437 l 171 392 m 601 414 q 633 581 601 505 q 730 702 666 657 q 887 747 793 747 q 1015 720 961 747 q 1097 632 1068 692 q 1126 473 1126 572 l 1126 0 l 951 0 l 951 473 q 936 555 951 526 q 893 594 921 583 q 827 606 865 606 q 762 592 789 606 q 716 554 734 578 q 688 498 697 530 q 678 429 678 466 l 601 414 z "},"n":{"ha":774,"x_min":79,"x_max":694,"o":"m 253 0 l 79 0 l 79 734 l 243 734 l 253 577 l 253 0 m 170 392 q 207 579 170 499 q 309 703 243 659 q 462 747 374 747 q 585 721 532 747 q 666 633 637 694 q 694 471 694 573 l 694 0 l 520 0 l 520 473 q 506 552 520 523 q 464 593 492 581 q 395 606 435 606 q 322 589 353 606 q 268 544 290 573 q 235 476 246 515 q 224 393 224 437 l 170 392 z "},"ń":{"ha":774,"x_min":79,"x_max":694,"o":"m 253 0 l 79 0 l 79 734 l 243 734 l 253 577 l 253 0 m 170 392 q 207 579 170 499 q 309 703 243 659 q 462 747 374 747 q 585 721 532 747 q 666 633 637 694 q 694 471 694 573 l 694 0 l 520 0 l 520 473 q 506 552 520 523 q 464 593 492 581 q 395 606 435 606 q 322 589 353 606 q 268 544 290 573 q 235 476 246 515 q 224 393 224 437 l 170 392 m 447 1018 l 641 1018 l 454 812 l 314 812 l 447 1018 z "},"ň":{"ha":774,"x_min":79,"x_max":694,"o":"m 253 0 l 79 0 l 79 734 l 243 734 l 253 577 l 253 0 m 170 392 q 207 579 170 499 q 309 703 243 659 q 462 747 374 747 q 585 721 532 747 q 666 633 637 694 q 694 471 694 573 l 694 0 l 520 0 l 520 473 q 506 552 520 523 q 464 593 492 581 q 395 606 435 606 q 322 589 353 606 q 268 544 290 573 q 235 476 246 515 q 224 393 224 437 l 170 392 m 629 1006 l 437 819 l 336 819 l 146 1005 l 146 1015 l 283 1015 l 386 911 l 490 1015 l 629 1015 l 629 1006 z "},"ņ":{"ha":774,"x_min":79,"x_max":694,"o":"m 253 0 l 79 0 l 79 734 l 243 734 l 253 577 l 253 0 m 170 392 q 207 579 170 499 q 309 703 243 659 q 462 747 374 747 q 585 721 532 747 q 666 633 637 694 q 694 471 694 573 l 694 0 l 520 0 l 520 473 q 506 552 520 523 q 464 593 492 581 q 395 606 435 606 q 322 589 353 606 q 268 544 290 573 q 235 476 246 515 q 224 393 224 437 l 170 392 m 467 -214 q 443 -333 467 -286 q 361 -430 419 -381 l 269 -378 q 291 -340 282 -355 q 305 -311 300 -325 q 312 -276 310 -296 q 314 -221 314 -255 l 314 -115 l 467 -115 l 467 -214 z "},"ñ":{"ha":774,"x_min":79,"x_max":694,"o":"m 253 0 l 79 0 l 79 734 l 243 734 l 253 577 l 253 0 m 170 392 q 207 579 170 499 q 309 703 243 659 q 462 747 374 747 q 585 721 532 747 q 666 633 637 694 q 694 471 694 573 l 694 0 l 520 0 l 520 473 q 506 552 520 523 q 464 593 492 581 q 395 606 435 606 q 322 589 353 606 q 268 544 290 573 q 235 476 246 515 q 224 393 224 437 l 170 392 m 241 835 l 137 841 q 157 930 137 890 q 210 994 176 970 q 288 1018 244 1018 q 338 1009 315 1018 q 382 988 361 1000 q 425 967 403 976 q 473 958 446 958 q 516 976 498 958 q 534 1026 534 994 l 637 1018 q 618 929 637 968 q 564 866 598 889 q 486 843 530 843 q 430 852 453 843 q 388 873 407 861 q 349 894 369 885 q 302 903 329 903 q 259 885 276 903 q 241 835 241 866 z "},"ŋ":{"ha":774,"x_min":79,"x_max":694,"o":"m 464 -296 q 418 -293 441 -296 q 372 -285 394 -290 l 372 -147 q 403 -152 387 -150 q 433 -153 419 -153 q 498 -131 475 -153 q 520 -56 520 -108 l 520 473 q 506 552 520 523 q 464 593 492 581 q 395 606 435 606 q 322 589 353 606 q 268 544 290 573 q 235 476 246 515 q 224 393 224 437 l 170 392 q 207 579 170 499 q 309 703 243 659 q 462 747 374 747 q 585 721 532 747 q 666 633 637 694 q 694 471 694 573 l 694 -56 q 635 -234 694 -172 q 464 -296 576 -296 m 79 0 l 79 734 l 243 734 l 253 577 l 253 0 l 79 0 z "},"o":{"ha":788,"x_min":51,"x_max":737,"o":"m 51 374 q 92 565 51 481 q 209 698 132 649 q 393 747 285 747 q 579 698 502 747 q 697 565 656 649 q 737 374 737 481 l 737 359 q 697 169 737 253 q 579 35 656 84 q 394 -14 503 -14 q 209 35 286 -14 q 92 169 132 84 q 51 359 51 253 l 51 374 m 224 359 q 242 242 224 296 q 297 158 260 189 q 394 126 334 126 q 491 158 454 126 q 546 242 528 189 q 563 359 563 296 l 563 374 q 546 490 563 437 q 491 575 528 543 q 393 608 453 608 q 296 575 334 608 q 242 490 259 543 q 224 374 224 437 l 224 359 z "},"ó":{"ha":788,"x_min":51,"x_max":737,"o":"m 51 374 q 92 565 51 481 q 209 698 132 649 q 393 747 285 747 q 579 698 502 747 q 697 565 656 649 q 737 374 737 481 l 737 359 q 697 169 737 253 q 579 35 656 84 q 394 -14 503 -14 q 209 35 286 -14 q 92 169 132 84 q 51 359 51 253 l 51 374 m 224 359 q 242 242 224 296 q 297 158 260 189 q 394 126 334 126 q 491 158 454 126 q 546 242 528 189 q 563 359 563 296 l 563 374 q 546 490 563 437 q 491 575 528 543 q 393 608 453 608 q 296 575 334 608 q 242 490 259 543 q 224 374 224 437 l 224 359 m 454 1018 l 648 1018 l 461 812 l 321 812 l 454 1018 z "},"ô":{"ha":788,"x_min":51,"x_max":737,"o":"m 51 374 q 92 565 51 481 q 209 698 132 649 q 393 747 285 747 q 579 698 502 747 q 697 565 656 649 q 737 374 737 481 l 737 359 q 697 169 737 253 q 579 35 656 84 q 394 -14 503 -14 q 209 35 286 -14 q 92 169 132 84 q 51 359 51 253 l 51 374 m 224 359 q 242 242 224 296 q 297 158 260 189 q 394 126 334 126 q 491 158 454 126 q 546 242 528 189 q 563 359 563 296 l 563 374 q 546 490 563 437 q 491 575 528 543 q 393 608 453 608 q 296 575 334 608 q 242 490 259 543 q 224 374 224 437 l 224 359 m 637 830 l 637 822 l 498 822 l 394 926 l 291 822 l 154 822 l 154 831 l 344 1018 l 445 1018 l 637 830 z "},"ö":{"ha":788,"x_min":51,"x_max":737,"o":"m 51 374 q 92 565 51 481 q 209 698 132 649 q 393 747 285 747 q 579 698 502 747 q 697 565 656 649 q 737 374 737 481 l 737 359 q 697 169 737 253 q 579 35 656 84 q 394 -14 503 -14 q 209 35 286 -14 q 92 169 132 84 q 51 359 51 253 l 51 374 m 224 359 q 242 242 224 296 q 297 158 260 189 q 394 126 334 126 q 491 158 454 126 q 546 242 528 189 q 563 359 563 296 l 563 374 q 546 490 563 437 q 491 575 528 543 q 393 608 453 608 q 296 575 334 608 q 242 490 259 543 q 224 374 224 437 l 224 359 m 552 809 q 489 832 513 809 q 465 890 465 856 q 489 948 465 924 q 552 972 513 972 q 616 948 591 972 q 640 890 640 924 q 616 832 640 856 q 552 809 591 809 m 235 809 q 171 832 195 809 q 146 890 146 856 q 171 948 146 924 q 235 972 195 972 q 298 948 274 972 q 322 890 322 924 q 298 832 322 856 q 235 809 274 809 z "},"ò":{"ha":788,"x_min":51,"x_max":737,"o":"m 51 374 q 92 565 51 481 q 209 698 132 649 q 393 747 285 747 q 579 698 502 747 q 697 565 656 649 q 737 374 737 481 l 737 359 q 697 169 737 253 q 579 35 656 84 q 394 -14 503 -14 q 209 35 286 -14 q 92 169 132 84 q 51 359 51 253 l 51 374 m 224 359 q 242 242 224 296 q 297 158 260 189 q 394 126 334 126 q 491 158 454 126 q 546 242 528 189 q 563 359 563 296 l 563 374 q 546 490 563 437 q 491 575 528 543 q 393 608 453 608 q 296 575 334 608 q 242 490 259 543 q 224 374 224 437 l 224 359 m 486 812 l 342 812 l 158 1018 l 353 1018 l 486 812 z "},"ő":{"ha":788,"x_min":51,"x_max":737,"o":"m 51 374 q 92 565 51 481 q 209 698 132 649 q 393 747 285 747 q 579 698 502 747 q 697 565 656 649 q 737 374 737 481 l 737 359 q 697 169 737 253 q 579 35 656 84 q 394 -14 503 -14 q 209 35 286 -14 q 92 169 132 84 q 51 359 51 253 l 51 374 m 224 359 q 242 242 224 296 q 297 158 260 189 q 394 126 334 126 q 491 158 454 126 q 546 242 528 189 q 563 359 563 296 l 563 374 q 546 490 563 437 q 491 575 528 543 q 393 608 453 608 q 296 575 334 608 q 242 490 259 543 q 224 374 224 437 l 224 359 m 299 1018 l 474 1018 l 343 812 l 222 812 l 299 1018 m 530 1018 l 705 1018 l 574 812 l 452 812 l 530 1018 z "},"ō":{"ha":788,"x_min":51,"x_max":737,"o":"m 51 374 q 92 565 51 481 q 209 698 132 649 q 393 747 285 747 q 579 698 502 747 q 697 565 656 649 q 737 374 737 481 l 737 359 q 697 169 737 253 q 579 35 656 84 q 394 -14 503 -14 q 209 35 286 -14 q 92 169 132 84 q 51 359 51 253 l 51 374 m 224 359 q 242 242 224 296 q 297 158 260 189 q 394 126 334 126 q 491 158 454 126 q 546 242 528 189 q 563 359 563 296 l 563 374 q 546 490 563 437 q 491 575 528 543 q 393 608 453 608 q 296 575 334 608 q 242 490 259 543 q 224 374 224 437 l 224 359 m 627 876 l 162 876 l 162 984 l 627 984 l 627 876 z "},"ø":{"ha":785,"x_min":51,"x_max":737,"o":"m 222 -95 l 121 -95 l 571 823 l 672 823 l 222 -95 m 51 374 q 92 565 51 481 q 209 698 132 649 q 393 747 285 747 q 579 698 502 747 q 697 565 656 649 q 737 374 737 481 l 737 359 q 697 169 737 253 q 579 35 656 84 q 394 -14 503 -14 q 209 35 286 -14 q 92 169 132 84 q 51 359 51 253 l 51 374 m 224 359 q 242 242 224 296 q 297 158 260 189 q 394 126 334 126 q 491 158 454 126 q 546 242 528 189 q 563 359 563 296 l 563 374 q 546 490 563 437 q 491 575 528 543 q 393 608 453 608 q 296 575 334 608 q 242 490 259 543 q 224 374 224 437 l 224 359 z "},"õ":{"ha":788,"x_min":51,"x_max":737,"o":"m 51 374 q 92 565 51 481 q 209 698 132 649 q 393 747 285 747 q 579 698 502 747 q 697 565 656 649 q 737 374 737 481 l 737 359 q 697 169 737 253 q 579 35 656 84 q 394 -14 503 -14 q 209 35 286 -14 q 92 169 132 84 q 51 359 51 253 l 51 374 m 224 359 q 242 242 224 296 q 297 158 260 189 q 394 126 334 126 q 491 158 454 126 q 546 242 528 189 q 563 359 563 296 l 563 374 q 546 490 563 437 q 491 575 528 543 q 393 608 453 608 q 296 575 334 608 q 242 490 259 543 q 224 374 224 437 l 224 359 m 248 835 l 144 841 q 163 930 144 890 q 217 994 183 970 q 295 1018 251 1018 q 345 1009 322 1018 q 389 988 368 1000 q 431 967 410 976 q 479 958 453 958 q 523 976 505 958 q 541 1026 541 994 l 644 1018 q 625 929 644 968 q 571 866 605 889 q 493 843 536 843 q 437 852 460 843 q 395 873 414 861 q 356 894 376 885 q 309 903 336 903 q 266 885 283 903 q 248 835 248 866 z "},"œ":{"ha":1255,"x_min":60,"x_max":1206,"o":"m 400 -14 q 216 35 292 -14 q 100 169 140 84 q 60 359 60 253 l 60 374 q 100 565 60 481 q 215 698 140 649 q 399 747 291 747 q 584 698 508 747 q 700 565 660 649 q 739 374 739 481 l 739 359 q 700 169 739 253 q 584 35 660 84 q 400 -14 509 -14 m 400 126 q 496 158 460 126 q 549 243 532 190 q 566 359 566 296 l 566 374 q 549 490 566 437 q 496 575 532 543 q 399 608 459 608 q 303 575 340 608 q 250 490 267 543 q 233 374 233 437 l 233 359 q 250 243 233 296 q 303 158 267 190 q 400 126 340 126 m 916 -14 q 733 33 810 -14 q 614 163 656 81 q 572 348 572 245 l 572 376 q 614 567 572 483 q 728 700 655 652 q 897 747 802 748 q 1067 706 999 747 q 1171 590 1136 665 q 1206 417 1206 516 l 1206 316 l 654 316 l 654 439 l 1034 439 l 1034 457 q 1020 533 1034 499 q 976 588 1006 568 q 897 608 945 608 q 814 576 848 608 q 764 492 781 545 q 747 376 747 439 l 747 348 q 767 238 747 288 q 827 157 787 187 q 929 126 868 126 q 1049 143 1003 126 q 1135 186 1096 160 l 1187 73 q 1082 13 1150 40 q 916 -14 1013 -14 z "},"p":{"ha":781,"x_min":82,"x_max":730,"o":"m 445 -14 q 325 13 376 -14 q 239 86 274 39 q 183 198 204 134 q 153 338 162 262 l 153 385 q 199 574 165 492 q 293 701 233 655 q 444 747 353 747 q 600 701 536 747 q 697 570 664 654 q 730 374 730 486 l 730 360 q 697 169 730 253 q 601 35 664 84 q 445 -14 537 -14 m 82 -282 l 82 734 l 242 734 l 256 593 l 256 -282 l 82 -282 m 397 126 q 489 158 454 126 q 540 243 524 190 q 556 360 556 296 l 556 374 q 540 492 556 439 q 488 575 524 544 q 396 606 453 606 q 324 592 354 606 q 274 554 294 578 q 243 495 254 529 q 228 419 232 460 l 228 304 q 254 214 235 254 q 307 150 272 174 q 397 126 342 126 z "},"þ":{"ha":793,"x_min":85,"x_max":733,"o":"m 448 -14 q 328 13 379 -14 q 242 86 277 39 q 186 198 207 134 q 156 338 165 262 l 156 385 q 202 574 168 492 q 295 701 235 655 q 446 747 355 747 q 603 701 539 747 q 700 570 667 654 q 733 374 733 486 l 733 360 q 700 169 733 253 q 604 35 667 84 q 448 -14 540 -14 m 85 -282 l 85 1042 l 259 1042 l 259 -282 l 85 -282 m 401 126 q 492 158 458 126 q 543 243 527 190 q 559 360 559 296 l 559 374 q 543 492 559 439 q 491 575 526 544 q 399 606 456 606 q 328 592 358 606 q 277 554 298 578 q 246 495 257 529 q 231 419 235 460 l 231 304 q 256 214 238 254 q 310 150 275 174 q 401 126 345 126 z "},"q":{"ha":787,"x_min":52,"x_max":699,"o":"m 340 -14 q 184 35 248 -14 q 85 168 119 84 q 52 359 52 252 l 52 374 q 85 569 52 485 q 184 701 119 654 q 341 747 249 747 q 492 701 432 747 q 585 573 551 655 q 631 385 618 492 l 631 345 q 601 202 621 267 q 545 88 580 136 q 459 13 510 40 q 340 -14 408 -14 m 384 126 q 475 151 440 126 q 530 217 511 176 q 555 311 549 259 l 555 418 q 540 494 551 460 q 508 554 529 528 q 457 594 488 580 q 385 608 427 608 q 293 576 328 608 q 241 491 258 545 q 225 374 225 438 l 225 359 q 241 243 225 296 q 292 158 257 190 q 384 126 328 126 m 524 -282 l 524 587 l 545 734 l 699 734 l 699 -282 l 524 -282 z "},"r":{"ha":495,"x_min":82,"x_max":477,"o":"m 256 0 l 82 0 l 82 734 l 247 734 l 256 586 l 256 0 m 476 573 q 443 577 460 576 q 408 578 425 578 q 316 559 353 578 q 261 504 279 540 q 239 417 242 467 l 200 420 q 224 587 200 513 q 297 704 249 661 q 418 747 346 747 q 450 745 433 747 q 477 739 468 743 l 476 573 z "},"ŕ":{"ha":495,"x_min":82,"x_max":501,"o":"m 256 0 l 82 0 l 82 734 l 247 734 l 256 586 l 256 0 m 476 573 q 443 577 460 576 q 408 578 425 578 q 316 559 353 578 q 261 504 279 540 q 239 417 242 467 l 200 420 q 224 587 200 513 q 297 704 249 661 q 418 747 346 747 q 450 745 433 747 q 477 739 468 743 l 476 573 m 307 1018 l 501 1018 l 315 812 l 174 812 l 307 1018 z "},"ř":{"ha":495,"x_min":6,"x_max":489,"o":"m 256 0 l 82 0 l 82 734 l 247 734 l 256 586 l 256 0 m 476 573 q 443 577 460 576 q 408 578 425 578 q 316 559 353 578 q 261 504 279 540 q 239 417 242 467 l 200 420 q 224 587 200 513 q 297 704 249 661 q 418 747 346 747 q 450 745 433 747 q 477 739 468 743 l 476 573 m 489 1006 l 297 819 l 195 819 l 6 1005 l 6 1015 l 143 1015 l 246 911 l 350 1015 l 489 1015 l 489 1006 z "},"ŗ":{"ha":495,"x_min":51,"x_max":477,"o":"m 256 0 l 82 0 l 82 734 l 247 734 l 256 586 l 256 0 m 476 573 q 443 577 460 576 q 408 578 425 578 q 316 559 353 578 q 261 504 279 540 q 239 417 242 467 l 200 420 q 224 587 200 513 q 297 704 249 661 q 418 747 346 747 q 450 745 433 747 q 477 739 468 743 l 476 573 m 249 -214 q 225 -333 249 -286 q 143 -430 201 -381 l 51 -378 q 74 -340 64 -355 q 87 -311 83 -325 q 94 -276 92 -296 q 96 -221 96 -255 l 96 -115 l 249 -115 l 249 -214 z "},"s":{"ha":715,"x_min":47,"x_max":659,"o":"m 358 -14 q 188 23 257 -14 q 82 115 118 59 q 47 231 47 172 l 214 231 q 238 163 216 189 q 292 125 259 137 q 361 114 325 114 q 431 125 403 114 q 474 156 460 136 q 489 201 489 175 q 477 242 489 224 q 432 276 465 260 q 333 305 398 292 q 197 349 256 321 q 104 419 138 376 q 71 524 71 462 q 105 635 71 584 q 204 716 140 686 q 357 747 269 747 q 516 716 450 747 q 619 633 583 686 q 655 513 655 581 l 481 513 q 450 588 481 557 q 356 620 419 620 q 292 608 318 620 q 252 575 265 595 q 239 532 239 555 q 253 491 239 509 q 298 461 266 474 q 387 435 330 448 q 531 392 469 418 q 626 321 592 365 q 659 209 659 277 q 622 94 659 144 q 517 15 585 43 q 358 -14 450 -14 z "},"ś":{"ha":715,"x_min":47,"x_max":659,"o":"m 358 -14 q 188 23 257 -14 q 82 115 118 59 q 47 231 47 172 l 214 231 q 238 163 216 189 q 292 125 259 137 q 361 114 325 114 q 431 125 403 114 q 474 156 460 136 q 489 201 489 175 q 477 242 489 224 q 432 276 465 260 q 333 305 398 292 q 197 349 256 321 q 104 419 138 376 q 71 524 71 462 q 105 635 71 584 q 204 716 140 686 q 357 747 269 747 q 516 716 450 747 q 619 633 583 686 q 655 513 655 581 l 481 513 q 450 588 481 557 q 356 620 419 620 q 292 608 318 620 q 252 575 265 595 q 239 532 239 555 q 253 491 239 509 q 298 461 266 474 q 387 435 330 448 q 531 392 469 418 q 626 321 592 365 q 659 209 659 277 q 622 94 659 144 q 517 15 585 43 q 358 -14 450 -14 m 418 1018 l 612 1018 l 425 812 l 285 812 l 418 1018 z "},"š":{"ha":715,"x_min":47,"x_max":659,"o":"m 358 -14 q 188 23 257 -14 q 82 115 118 59 q 47 231 47 172 l 214 231 q 238 163 216 189 q 292 125 259 137 q 361 114 325 114 q 431 125 403 114 q 474 156 460 136 q 489 201 489 175 q 477 242 489 224 q 432 276 465 260 q 333 305 398 292 q 197 349 256 321 q 104 419 138 376 q 71 524 71 462 q 105 635 71 584 q 204 716 140 686 q 357 747 269 747 q 516 716 450 747 q 619 633 583 686 q 655 513 655 581 l 481 513 q 450 588 481 557 q 356 620 419 620 q 292 608 318 620 q 252 575 265 595 q 239 532 239 555 q 253 491 239 509 q 298 461 266 474 q 387 435 330 448 q 531 392 469 418 q 626 321 592 365 q 659 209 659 277 q 622 94 659 144 q 517 15 585 43 q 358 -14 450 -14 m 600 1006 l 408 819 l 306 819 l 117 1005 l 117 1015 l 254 1015 l 357 911 l 460 1015 l 600 1015 l 600 1006 z "},"ş":{"ha":715,"x_min":47,"x_max":659,"o":"m 358 -14 q 188 23 257 -14 q 82 115 118 59 q 47 231 47 172 l 214 231 q 238 163 216 189 q 292 125 259 137 q 361 114 325 114 q 431 125 403 114 q 474 156 460 136 q 489 201 489 175 q 477 242 489 224 q 432 276 465 260 q 333 305 398 292 q 197 349 256 321 q 104 419 138 376 q 71 524 71 462 q 105 635 71 584 q 204 716 140 686 q 357 747 269 747 q 516 716 450 747 q 619 633 583 686 q 655 513 655 581 l 481 513 q 450 588 481 557 q 356 620 419 620 q 292 608 318 620 q 252 575 265 595 q 239 532 239 555 q 253 491 239 509 q 298 461 266 474 q 387 435 330 448 q 531 392 469 418 q 626 321 592 365 q 659 209 659 277 q 622 94 659 144 q 517 15 585 43 q 358 -14 450 -14 m 408 3 l 399 -35 q 470 -67 438 -41 q 502 -152 502 -94 q 444 -265 502 -222 q 275 -307 387 -307 l 270 -208 q 315 -202 295 -208 q 347 -183 335 -196 q 359 -149 359 -170 q 335 -107 359 -119 q 258 -92 311 -96 l 279 3 l 408 3 z "},"ș":{"ha":715,"x_min":47,"x_max":659,"o":"m 358 -14 q 188 23 257 -14 q 82 115 118 59 q 47 231 47 172 l 214 231 q 238 163 216 189 q 292 125 259 137 q 361 114 325 114 q 431 125 403 114 q 474 156 460 136 q 489 201 489 175 q 477 242 489 224 q 432 276 465 260 q 333 305 398 292 q 197 349 256 321 q 104 419 138 376 q 71 524 71 462 q 105 635 71 584 q 204 716 140 686 q 357 747 269 747 q 516 716 450 747 q 619 633 583 686 q 655 513 655 581 l 481 513 q 450 588 481 557 q 356 620 419 620 q 292 608 318 620 q 252 575 265 595 q 239 532 239 555 q 253 491 239 509 q 298 461 266 474 q 387 435 330 448 q 531 392 469 418 q 626 321 592 365 q 659 209 659 277 q 622 94 659 144 q 517 15 585 43 q 358 -14 450 -14 m 437 -214 q 413 -333 437 -286 q 331 -430 389 -381 l 239 -378 q 261 -340 252 -355 q 275 -311 271 -325 q 282 -276 280 -296 q 284 -221 284 -255 l 284 -115 l 437 -115 l 437 -214 z "},"ß":{"ha":860,"x_min":93,"x_max":810,"o":"m 266 0 l 93 0 l 93 749 q 176 979 93 901 q 397 1057 258 1057 q 536 1030 474 1057 q 636 949 599 1003 q 673 813 673 895 q 661 729 673 762 q 634 673 649 697 q 607 625 619 650 q 595 561 595 600 q 617 504 595 530 q 671 451 639 477 q 735 393 703 424 q 788 323 767 362 q 810 233 810 283 q 775 98 810 153 q 676 15 741 43 q 522 -14 612 -14 q 448 -8 486 -14 q 378 7 410 -2 q 328 28 346 16 l 361 167 q 425 140 384 155 q 514 126 466 126 q 583 139 555 126 q 623 175 610 152 q 636 228 636 198 q 615 290 636 263 q 561 342 593 317 q 497 397 529 368 q 444 464 465 426 q 422 555 422 503 q 434 629 422 600 q 462 684 446 659 q 491 736 478 708 q 503 803 503 764 q 488 864 503 839 q 448 903 473 890 q 389 917 422 917 q 299 878 332 917 q 266 747 266 839 l 266 0 z "},"ſ":{"ha":356,"x_min":89,"x_max":451,"o":"m 89 0 l 89 802 q 157 990 89 925 q 347 1056 226 1056 q 399 1052 373 1056 q 451 1042 425 1048 l 435 909 q 406 914 421 912 q 371 916 391 916 q 291 886 319 916 q 262 802 262 856 l 262 0 l 89 0 z "},"t":{"ha":465,"x_min":7,"x_max":431,"o":"m 425 606 l 7 606 l 7 734 l 425 734 l 425 606 m 296 913 l 296 210 q 306 160 296 177 q 333 136 315 142 q 374 130 350 130 q 406 132 391 130 q 431 136 422 134 l 431 3 q 382 -9 410 -4 q 319 -14 355 -14 q 217 7 262 -14 q 148 74 172 28 q 123 197 123 120 l 123 913 l 296 913 z "},"ť":{"ha":465,"x_min":7,"x_max":600,"o":"m 425 606 l 7 606 l 7 734 l 425 734 l 425 606 m 296 913 l 296 210 q 306 160 296 177 q 333 136 315 142 q 374 130 350 130 q 406 132 391 130 q 431 136 422 134 l 431 3 q 382 -9 410 -4 q 319 -14 355 -14 q 217 7 262 -14 q 148 74 172 28 q 123 197 123 120 l 123 913 l 296 913 m 431 1104 l 600 1104 l 494 819 l 372 819 l 431 1104 z "},"ț":{"ha":465,"x_min":7,"x_max":431,"o":"m 425 606 l 7 606 l 7 734 l 425 734 l 425 606 m 296 913 l 296 210 q 306 160 296 177 q 333 136 315 142 q 374 130 350 130 q 406 132 391 130 q 431 136 422 134 l 431 3 q 382 -9 410 -4 q 319 -14 355 -14 q 217 7 262 -14 q 148 74 172 28 q 123 197 123 120 l 123 913 l 296 913 m 364 -214 q 340 -333 364 -286 q 258 -430 317 -381 l 166 -378 q 189 -340 180 -355 q 203 -311 198 -325 q 210 -276 208 -296 q 212 -221 212 -255 l 212 -115 l 364 -115 l 364 -214 z "},"u":{"ha":774,"x_min":78,"x_max":694,"o":"m 519 734 l 694 734 l 694 0 l 530 0 l 519 174 l 519 734 m 600 328 q 570 153 600 230 q 479 31 541 75 q 321 -14 418 -14 q 145 50 212 -14 q 78 260 78 114 l 78 734 l 252 734 l 252 258 q 267 181 252 209 q 308 141 282 153 q 366 129 334 129 q 471 155 433 129 q 527 226 510 181 q 543 327 543 271 l 600 328 z "},"ú":{"ha":774,"x_min":78,"x_max":694,"o":"m 519 734 l 694 734 l 694 0 l 530 0 l 519 174 l 519 734 m 600 328 q 570 153 600 230 q 479 31 541 75 q 321 -14 418 -14 q 145 50 212 -14 q 78 260 78 114 l 78 734 l 252 734 l 252 258 q 267 181 252 209 q 308 141 282 153 q 366 129 334 129 q 471 155 433 129 q 527 226 510 181 q 543 327 543 271 l 600 328 m 446 1018 l 640 1018 l 454 812 l 313 812 l 446 1018 z "},"ŭ":{"ha":774,"x_min":78,"x_max":694,"o":"m 519 734 l 694 734 l 694 0 l 530 0 l 519 174 l 519 734 m 600 328 q 570 153 600 230 q 479 31 541 75 q 321 -14 418 -14 q 145 50 212 -14 q 78 260 78 114 l 78 734 l 252 734 l 252 258 q 267 181 252 209 q 308 141 282 153 q 366 129 334 129 q 471 155 433 129 q 527 226 510 181 q 543 327 543 271 l 600 328 m 387 812 q 276 835 321 812 q 209 899 231 859 q 186 992 186 940 q 186 1004 186 997 q 187 1015 186 1011 l 291 1015 q 290 1007 290 1011 q 290 998 290 1002 q 300 949 290 971 q 331 915 309 928 q 387 902 352 902 q 443 915 422 902 q 473 949 464 928 q 483 998 483 971 q 483 1007 483 1002 q 482 1015 483 1011 l 585 1015 q 586 1004 586 1011 q 586 992 586 997 q 564 899 586 940 q 497 835 541 859 q 387 812 453 812 z "},"û":{"ha":774,"x_min":78,"x_max":694,"o":"m 519 734 l 694 734 l 694 0 l 530 0 l 519 174 l 519 734 m 600 328 q 570 153 600 230 q 479 31 541 75 q 321 -14 418 -14 q 145 50 212 -14 q 78 260 78 114 l 78 734 l 252 734 l 252 258 q 267 181 252 209 q 308 141 282 153 q 366 129 334 129 q 471 155 433 129 q 527 226 510 181 q 543 327 543 271 l 600 328 m 630 830 l 630 822 l 491 822 l 387 926 l 284 822 l 147 822 l 147 831 l 337 1018 l 438 1018 l 630 830 z "},"ü":{"ha":774,"x_min":78,"x_max":694,"o":"m 519 734 l 694 734 l 694 0 l 530 0 l 519 174 l 519 734 m 600 328 q 570 153 600 230 q 479 31 541 75 q 321 -14 418 -14 q 145 50 212 -14 q 78 260 78 114 l 78 734 l 252 734 l 252 258 q 267 181 252 209 q 308 141 282 153 q 366 129 334 129 q 471 155 433 129 q 527 226 510 181 q 543 327 543 271 l 600 328 m 545 809 q 482 832 506 809 q 458 890 458 856 q 482 948 458 924 q 545 972 506 972 q 609 948 585 972 q 633 890 633 924 q 609 832 633 856 q 545 809 585 809 m 228 809 q 164 832 188 809 q 140 890 140 856 q 164 948 140 924 q 228 972 188 972 q 291 948 267 972 q 315 890 315 924 q 291 832 315 856 q 228 809 267 809 z "},"ù":{"ha":774,"x_min":78,"x_max":694,"o":"m 519 734 l 694 734 l 694 0 l 530 0 l 519 174 l 519 734 m 600 328 q 570 153 600 230 q 479 31 541 75 q 321 -14 418 -14 q 145 50 212 -14 q 78 260 78 114 l 78 734 l 252 734 l 252 258 q 267 181 252 209 q 308 141 282 153 q 366 129 334 129 q 471 155 433 129 q 527 226 510 181 q 543 327 543 271 l 600 328 m 478 812 l 334 812 l 151 1018 l 346 1018 l 478 812 z "},"ű":{"ha":774,"x_min":78,"x_max":698,"o":"m 519 734 l 694 734 l 694 0 l 530 0 l 519 174 l 519 734 m 600 328 q 570 153 600 230 q 479 31 541 75 q 321 -14 418 -14 q 145 50 212 -14 q 78 260 78 114 l 78 734 l 252 734 l 252 258 q 267 181 252 209 q 308 141 282 153 q 366 129 334 129 q 471 155 433 129 q 527 226 510 181 q 543 327 543 271 l 600 328 m 292 1018 l 467 1018 l 336 812 l 214 812 l 292 1018 m 522 1018 l 697 1018 l 566 812 l 445 812 l 522 1018 z "},"ū":{"ha":774,"x_min":78,"x_max":694,"o":"m 519 734 l 694 734 l 694 0 l 530 0 l 519 174 l 519 734 m 600 328 q 570 153 600 230 q 479 31 541 75 q 321 -14 418 -14 q 145 50 212 -14 q 78 260 78 114 l 78 734 l 252 734 l 252 258 q 267 181 252 209 q 308 141 282 153 q 366 129 334 129 q 471 155 433 129 q 527 226 510 181 q 543 327 543 271 l 600 328 m 619 876 l 155 876 l 155 984 l 619 984 l 619 876 z "},"ų":{"ha":774,"x_min":78,"x_max":697,"o":"m 519 734 l 694 734 l 694 0 l 530 0 l 519 174 l 519 734 m 600 328 q 570 153 600 230 q 479 31 541 75 q 321 -14 418 -14 q 145 50 212 -14 q 78 260 78 114 l 78 734 l 252 734 l 252 258 q 267 181 252 209 q 308 141 282 153 q 366 129 334 129 q 471 155 433 129 q 527 226 510 181 q 543 327 543 271 l 600 328 m 574 -260 q 469 -229 503 -260 q 435 -161 435 -199 q 462 -84 435 -118 q 527 -27 489 -51 q 598 10 566 -3 l 694 0 q 669 -16 681 -8 q 646 -32 656 -24 q 602 -73 619 -52 q 585 -120 585 -95 q 598 -146 585 -137 q 633 -155 611 -155 q 664 -151 648 -155 q 697 -141 680 -148 l 697 -242 q 639 -254 669 -249 q 574 -260 609 -260 z "},"ů":{"ha":774,"x_min":78,"x_max":694,"o":"m 519 734 l 694 734 l 694 0 l 530 0 l 519 174 l 519 734 m 600 328 q 570 153 600 230 q 479 31 541 75 q 321 -14 418 -14 q 145 50 212 -14 q 78 260 78 114 l 78 734 l 252 734 l 252 258 q 267 181 252 209 q 308 141 282 153 q 366 129 334 129 q 471 155 433 129 q 527 226 510 181 q 543 327 543 271 l 600 328 m 387 812 q 280 851 323 812 q 237 949 237 891 q 280 1047 237 1006 q 387 1088 323 1088 q 494 1047 451 1088 q 536 949 536 1006 q 494 851 536 891 q 387 812 451 812 m 387 881 q 437 901 418 881 q 456 949 456 922 q 437 998 456 977 q 387 1019 418 1019 q 337 998 356 1019 q 319 949 319 977 q 337 901 319 922 q 387 881 356 881 z "},"v":{"ha":693,"x_min":13,"x_max":677,"o":"m 496 734 l 677 734 l 425 0 l 313 0 l 323 136 l 496 734 m 371 134 l 378 0 l 267 0 l 13 734 l 194 734 l 371 134 z "},"w":{"ha":1028,"x_min":22,"x_max":1003,"o":"m 448 734 l 559 734 l 529 547 l 361 0 l 264 0 l 282 172 l 448 734 m 319 171 l 328 0 l 218 0 l 22 734 l 191 734 l 319 171 m 834 734 l 1003 734 l 808 0 l 698 0 l 711 178 l 834 734 m 742 178 l 761 0 l 663 0 l 494 547 l 465 734 l 577 734 l 742 178 z "},"ẃ":{"ha":1028,"x_min":22,"x_max":1003,"o":"m 448 734 l 559 734 l 529 547 l 361 0 l 264 0 l 282 172 l 448 734 m 319 171 l 328 0 l 218 0 l 22 734 l 191 734 l 319 171 m 834 734 l 1003 734 l 808 0 l 698 0 l 711 178 l 834 734 m 742 178 l 761 0 l 663 0 l 494 547 l 465 734 l 577 734 l 742 178 m 574 1018 l 768 1018 l 581 812 l 441 812 l 574 1018 z "},"ŵ":{"ha":1028,"x_min":22,"x_max":1003,"o":"m 448 734 l 559 734 l 529 547 l 361 0 l 264 0 l 282 172 l 448 734 m 319 171 l 328 0 l 218 0 l 22 734 l 191 734 l 319 171 m 834 734 l 1003 734 l 808 0 l 698 0 l 711 178 l 834 734 m 742 178 l 761 0 l 663 0 l 494 547 l 465 734 l 577 734 l 742 178 m 757 830 l 757 822 l 618 822 l 514 926 l 411 822 l 274 822 l 274 831 l 464 1018 l 565 1018 l 757 830 z "},"ẅ":{"ha":1028,"x_min":22,"x_max":1003,"o":"m 448 734 l 559 734 l 529 547 l 361 0 l 264 0 l 282 172 l 448 734 m 319 171 l 328 0 l 218 0 l 22 734 l 191 734 l 319 171 m 834 734 l 1003 734 l 808 0 l 698 0 l 711 178 l 834 734 m 742 178 l 761 0 l 663 0 l 494 547 l 465 734 l 577 734 l 742 178 m 673 809 q 609 832 633 809 q 585 890 585 856 q 609 948 585 924 q 673 972 633 972 q 736 948 712 972 q 761 890 761 924 q 736 832 761 856 q 673 809 712 809 m 355 809 q 291 832 315 809 q 267 890 267 856 q 291 948 267 924 q 355 972 315 972 q 419 948 395 972 q 443 890 443 924 q 419 832 443 856 q 355 809 395 809 z "},"ẁ":{"ha":1028,"x_min":22,"x_max":1003,"o":"m 448 734 l 559 734 l 529 547 l 361 0 l 264 0 l 282 172 l 448 734 m 319 171 l 328 0 l 218 0 l 22 734 l 191 734 l 319 171 m 834 734 l 1003 734 l 808 0 l 698 0 l 711 178 l 834 734 m 742 178 l 761 0 l 663 0 l 494 547 l 465 734 l 577 734 l 742 178 m 606 812 l 462 812 l 278 1018 l 473 1018 l 606 812 z "},"x":{"ha":701,"x_min":19,"x_max":684,"o":"m 351 500 l 486 734 l 676 734 l 457 374 l 684 0 l 495 0 l 352 245 l 210 0 l 19 0 l 246 374 l 28 734 l 218 734 l 351 500 z "},"y":{"ha":684,"x_min":7,"x_max":677,"o":"m 492 734 l 677 734 l 384 -111 q 357 -170 374 -138 q 314 -231 340 -202 q 249 -278 288 -260 q 154 -296 210 -296 q 125 -295 139 -296 q 98 -290 111 -293 q 73 -284 85 -288 l 73 -151 q 88 -152 79 -151 q 104 -153 98 -153 q 194 -132 164 -153 q 241 -60 224 -111 l 294 81 l 492 734 m 361 195 l 391 6 l 271 -18 l 7 734 l 194 734 l 361 195 z "},"ý":{"ha":684,"x_min":7,"x_max":677,"o":"m 492 734 l 677 734 l 384 -111 q 357 -170 374 -138 q 314 -231 340 -202 q 249 -278 288 -260 q 154 -296 210 -296 q 125 -295 139 -296 q 98 -290 111 -293 q 73 -284 85 -288 l 73 -151 q 88 -152 79 -151 q 104 -153 98 -153 q 194 -132 164 -153 q 241 -60 224 -111 l 294 81 l 492 734 m 361 195 l 391 6 l 271 -18 l 7 734 l 194 734 l 361 195 m 401 1018 l 595 1018 l 409 812 l 269 812 l 401 1018 z "},"ŷ":{"ha":684,"x_min":7,"x_max":677,"o":"m 492 734 l 677 734 l 384 -111 q 357 -170 374 -138 q 314 -231 340 -202 q 249 -278 288 -260 q 154 -296 210 -296 q 125 -295 139 -296 q 98 -290 111 -293 q 73 -284 85 -288 l 73 -151 q 88 -152 79 -151 q 104 -153 98 -153 q 194 -132 164 -153 q 241 -60 224 -111 l 294 81 l 492 734 m 361 195 l 391 6 l 271 -18 l 7 734 l 194 734 l 361 195 m 585 830 l 585 822 l 446 822 l 342 926 l 239 822 l 102 822 l 102 831 l 292 1018 l 393 1018 l 585 830 z "},"ÿ":{"ha":684,"x_min":7,"x_max":677,"o":"m 492 734 l 677 734 l 384 -111 q 357 -170 374 -138 q 314 -231 340 -202 q 249 -278 288 -260 q 154 -296 210 -296 q 125 -295 139 -296 q 98 -290 111 -293 q 73 -284 85 -288 l 73 -151 q 88 -152 79 -151 q 104 -153 98 -153 q 194 -132 164 -153 q 241 -60 224 -111 l 294 81 l 492 734 m 361 195 l 391 6 l 271 -18 l 7 734 l 194 734 l 361 195 m 500 809 q 437 832 461 809 q 413 890 413 856 q 437 948 413 924 q 500 972 461 972 q 564 948 540 972 q 589 890 589 924 q 564 832 589 856 q 500 809 540 809 m 183 809 q 119 832 143 809 q 95 890 95 856 q 119 948 95 924 q 183 972 143 972 q 247 948 222 972 q 271 890 271 924 q 247 832 271 856 q 183 809 222 809 z "},"ỳ":{"ha":684,"x_min":7,"x_max":677,"o":"m 492 734 l 677 734 l 384 -111 q 357 -170 374 -138 q 314 -231 340 -202 q 249 -278 288 -260 q 154 -296 210 -296 q 125 -295 139 -296 q 98 -290 111 -293 q 73 -284 85 -288 l 73 -151 q 88 -152 79 -151 q 104 -153 98 -153 q 194 -132 164 -153 q 241 -60 224 -111 l 294 81 l 492 734 m 361 195 l 391 6 l 271 -18 l 7 734 l 194 734 l 361 195 m 433 812 l 290 812 l 106 1018 l 301 1018 l 433 812 z "},"z":{"ha":701,"x_min":54,"x_max":654,"o":"m 654 0 l 106 0 l 106 140 l 654 140 l 654 0 m 168 0 l 54 0 l 54 111 l 525 734 l 640 734 l 640 627 l 168 0 m 575 593 l 62 593 l 62 734 l 575 734 l 575 593 z "},"ź":{"ha":701,"x_min":54,"x_max":654,"o":"m 654 0 l 106 0 l 106 140 l 654 140 l 654 0 m 168 0 l 54 0 l 54 111 l 525 734 l 640 734 l 640 627 l 168 0 m 575 593 l 62 593 l 62 734 l 575 734 l 575 593 m 410 1018 l 604 1018 l 418 812 l 277 812 l 410 1018 z "},"ž":{"ha":701,"x_min":54,"x_max":654,"o":"m 654 0 l 106 0 l 106 140 l 654 140 l 654 0 m 168 0 l 54 0 l 54 111 l 525 734 l 640 734 l 640 627 l 168 0 m 575 593 l 62 593 l 62 734 l 575 734 l 575 593 m 592 1006 l 400 819 l 299 819 l 109 1005 l 109 1015 l 246 1015 l 349 911 l 453 1015 l 592 1015 l 592 1006 z "},"ż":{"ha":701,"x_min":54,"x_max":654,"o":"m 654 0 l 106 0 l 106 140 l 654 140 l 654 0 m 168 0 l 54 0 l 54 111 l 525 734 l 640 734 l 640 627 l 168 0 m 575 593 l 62 593 l 62 734 l 575 734 l 575 593 m 351 809 q 278 835 304 809 q 252 900 252 861 q 278 966 252 940 q 351 992 304 992 q 423 966 397 992 q 450 900 450 940 q 423 835 450 861 q 351 809 397 809 z "},"ﬁ":{"ha":821,"x_min":16,"x_max":726,"o":"m 127 0 l 127 775 q 208 984 127 911 q 432 1056 289 1056 q 538 1044 486 1056 q 644 1015 589 1033 l 618 872 q 542 894 584 884 q 444 904 499 904 q 336 871 371 904 q 302 775 302 839 l 302 0 l 127 0 m 447 606 l 16 606 l 16 734 l 447 734 l 447 606 m 726 0 l 552 0 l 552 734 l 726 734 l 726 0 z "},"ª":{"ha":618,"x_min":96,"x_max":531,"o":"m 397 815 q 377 880 397 857 q 317 903 357 903 q 247 885 272 903 q 221 834 221 867 l 106 844 q 163 957 106 912 q 317 1002 221 1002 q 459 955 405 1002 q 513 814 513 907 l 513 602 q 517 538 513 568 q 531 479 522 509 l 413 479 q 401 530 405 503 q 397 585 397 557 l 397 815 m 426 701 l 327 701 q 240 679 267 701 q 212 626 212 656 q 232 582 212 597 q 292 566 252 566 q 350 578 321 566 q 398 609 378 591 q 417 644 417 627 l 429 566 q 398 522 419 545 q 343 484 376 499 q 264 469 311 469 q 139 511 183 469 q 96 623 96 553 q 153 739 96 698 q 326 780 210 780 l 425 780 l 426 701 z "},"º":{"ha":634,"x_min":81,"x_max":550,"o":"m 81 761 q 145 934 81 866 q 315 1002 208 1002 q 487 934 424 1002 q 550 761 550 866 l 550 708 q 487 536 550 603 q 317 469 425 469 q 145 536 208 469 q 81 708 81 603 l 81 761 m 198 708 q 227 607 198 647 q 317 566 256 566 q 405 607 376 566 q 433 708 433 647 l 433 761 q 404 862 433 821 q 315 903 375 903 q 227 862 256 903 q 198 761 198 821 l 198 708 z "},"α":{"ha":784,"x_min":56,"x_max":778,"o":"m 56 359 q 89 561 56 473 q 186 698 122 648 q 343 747 250 747 q 482 700 427 747 q 568 569 537 652 q 610 378 599 486 l 610 343 q 568 158 599 239 q 482 32 537 78 q 342 -14 427 -14 q 186 32 250 -14 q 89 159 122 78 q 56 345 56 241 l 56 359 m 230 345 q 245 234 230 283 q 294 155 260 184 q 385 126 328 126 q 476 154 441 126 q 529 228 510 181 q 557 334 548 275 l 557 380 q 539 469 551 427 q 508 541 528 510 q 458 590 488 572 q 387 608 428 608 q 295 574 330 608 q 245 484 261 540 q 230 359 230 427 l 230 345 m 694 734 l 694 226 q 708 151 694 170 q 745 132 722 132 q 754 133 750 132 q 762 134 758 134 l 778 5 q 736 -11 756 -7 q 693 -14 715 -14 q 573 35 618 -14 q 520 195 528 85 l 520 576 l 545 734 l 694 734 z "},"א":{"ha":917,"x_min":85,"x_max":861,"o":"m 656 0 l 85 808 l 285 808 l 854 0 l 656 0 m 117 0 l 117 277 q 159 467 117 397 q 295 570 201 537 l 360 480 q 289 351 289 442 l 289 0 l 117 0 m 861 808 l 589 307 l 473 446 l 661 808 l 861 808 z "},"אַ":{"ha":917,"x_min":85,"x_max":861,"o":"m 656 0 l 85 808 l 285 808 l 854 0 l 656 0 m 117 0 l 117 277 q 159 467 117 397 q 295 570 201 537 l 360 480 q 289 351 289 442 l 289 0 l 117 0 m 861 808 l 589 307 l 473 446 l 661 808 l 861 808 m 317 -207 l 317 -127 l 621 -127 l 621 -207 l 317 -207 z "},"אָ":{"ha":917,"x_min":85,"x_max":861,"o":"m 656 0 l 85 808 l 285 808 l 854 0 l 656 0 m 117 0 l 117 277 q 159 467 117 397 q 295 570 201 537 l 360 480 q 289 351 289 442 l 289 0 l 117 0 m 861 808 l 589 307 l 473 446 l 661 808 l 861 808 m 469 -384 q 425 -367 443 -384 q 407 -327 407 -350 q 415 -296 407 -309 q 432 -265 423 -284 q 444 -207 441 -245 l 332 -207 l 332 -127 l 606 -127 l 606 -207 l 494 -207 q 507 -265 498 -245 q 524 -296 516 -284 q 532 -327 532 -309 q 514 -368 532 -351 q 469 -384 496 -384 z "},"אּ":{"ha":917,"x_min":85,"x_max":861,"o":"m 656 0 l 85 808 l 285 808 l 854 0 l 656 0 m 117 0 l 117 277 q 159 467 117 397 q 295 570 201 537 l 360 480 q 289 351 289 442 l 289 0 l 117 0 m 861 808 l 589 307 l 473 446 l 661 808 l 861 808 m 412 69 q 367 86 385 69 q 349 126 349 102 q 367 167 349 151 q 412 183 385 183 q 456 167 439 183 q 474 126 474 151 q 456 85 474 102 q 412 69 439 69 z "},"ב":{"ha":747,"x_min":38,"x_max":720,"o":"m 38 0 l 38 140 l 447 140 l 625 146 l 720 134 l 720 0 l 38 0 m 447 41 l 447 515 q 409 631 447 594 q 290 668 372 668 l 82 668 l 82 808 l 302 808 q 541 731 458 808 q 625 509 625 654 l 625 41 l 447 41 z "},"בּ":{"ha":747,"x_min":38,"x_max":720,"o":"m 38 0 l 38 140 l 447 140 l 625 146 l 720 134 l 720 0 l 38 0 m 447 41 l 447 515 q 409 631 447 594 q 290 668 372 668 l 82 668 l 82 808 l 302 808 q 541 731 458 808 q 625 509 625 654 l 625 41 l 447 41 m 245 352 q 200 369 218 352 q 182 409 182 385 q 200 450 182 433 q 245 466 218 466 q 290 450 272 466 q 307 409 307 433 q 290 368 307 385 q 245 352 272 352 z "},"בֿ":{"ha":747,"x_min":38,"x_max":720,"o":"m 38 0 l 38 140 l 447 140 l 625 146 l 720 134 l 720 0 l 38 0 m 447 41 l 447 515 q 409 631 447 594 q 290 668 372 668 l 82 668 l 82 808 l 302 808 q 541 731 458 808 q 625 509 625 654 l 625 41 l 447 41 m 153 924 l 153 1018 l 523 1018 l 523 924 l 153 924 z "},"ג":{"ha":585,"x_min":10,"x_max":524,"o":"m 54 -7 q 33 -7 44 -7 q 10 -5 21 -6 l 10 157 q 38 154 24 155 q 64 153 52 153 q 166 174 123 154 q 237 231 209 195 q 280 316 266 268 l 280 668 l 102 668 l 102 808 l 456 808 l 456 395 q 469 269 456 330 l 524 0 l 359 0 l 311 213 l 307 213 q 262 102 297 153 q 173 22 227 52 q 54 -7 119 -7 z "},"גּ":{"ha":585,"x_min":10,"x_max":524,"o":"m 54 -7 q 33 -7 44 -7 q 10 -5 21 -6 l 10 157 q 38 154 24 155 q 64 153 52 153 q 166 174 123 154 q 237 231 209 195 q 280 316 266 268 l 280 668 l 102 668 l 102 808 l 456 808 l 456 395 q 469 269 456 330 l 524 0 l 359 0 l 311 213 l 307 213 q 262 102 297 153 q 173 22 227 52 q 54 -7 119 -7 m 123 352 q 78 369 96 352 q 60 409 60 385 q 78 450 60 433 q 123 466 96 466 q 168 450 151 466 q 186 409 186 433 q 168 368 186 385 q 123 352 151 352 z "},"ד":{"ha":762,"x_min":41,"x_max":717,"o":"m 41 808 l 717 808 l 717 668 l 578 668 l 578 0 l 399 0 l 399 668 l 41 668 l 41 808 z "},"דּ":{"ha":762,"x_min":41,"x_max":717,"o":"m 41 808 l 717 808 l 717 668 l 578 668 l 578 0 l 399 0 l 399 668 l 41 668 l 41 808 m 205 352 q 160 369 178 352 q 142 409 142 385 q 160 450 142 433 q 205 466 178 466 q 250 450 233 466 q 268 409 268 433 q 250 368 268 385 q 205 352 233 352 z "},"ה":{"ha":846,"x_min":98,"x_max":751,"o":"m 573 0 l 573 515 q 535 631 573 594 q 416 668 497 668 l 99 668 l 99 808 l 428 808 q 668 731 584 808 q 751 509 751 654 l 751 0 l 573 0 m 98 0 l 98 277 q 114 393 98 355 q 141 449 130 431 l 284 449 q 274 383 278 420 q 270 293 270 346 l 270 0 l 98 0 z "},"הּ":{"ha":846,"x_min":98,"x_max":751,"o":"m 573 0 l 573 515 q 535 631 573 594 q 416 668 497 668 l 99 668 l 99 808 l 428 808 q 668 731 584 808 q 751 509 751 654 l 751 0 l 573 0 m 98 0 l 98 277 q 114 393 98 355 q 141 449 130 431 l 284 449 q 274 383 278 420 q 270 293 270 346 l 270 0 l 98 0 m 422 352 q 377 369 395 352 q 359 409 359 385 q 377 450 359 433 q 422 466 395 466 q 467 450 449 466 q 484 409 484 433 q 467 368 484 385 q 422 352 449 352 z "},"ו":{"ha":432,"x_min":58,"x_max":317,"o":"m 138 0 l 138 668 l 58 668 l 58 808 l 317 808 l 317 0 l 138 0 z "},"וּ":{"ha":432,"x_min":-33,"x_max":317,"o":"m 138 0 l 138 668 l 58 668 l 58 808 l 317 808 l 317 0 l 138 0 m 29 352 q -16 369 2 352 q -34 409 -34 385 q -16 450 -34 433 q 29 466 2 466 q 74 450 56 466 q 92 409 92 433 q 74 368 92 385 q 29 352 56 352 z "},"וֹ":{"ha":432,"x_min":58,"x_max":317,"o":"m 138 0 l 138 668 l 58 668 l 58 808 l 317 808 l 317 0 l 138 0 m 189 911 q 144 928 162 911 q 126 968 126 945 q 144 1009 126 993 q 189 1025 162 1025 q 235 1008 217 1025 q 252 968 252 992 q 235 927 252 943 q 189 911 217 911 z "},"ז":{"ha":520,"x_min":48,"x_max":474,"o":"m 196 0 l 98 661 l 48 673 l 48 808 l 474 808 l 474 668 l 273 668 l 379 0 l 196 0 z "},"זּ":{"ha":520,"x_min":48,"x_max":479,"o":"m 196 0 l 98 661 l 48 673 l 48 808 l 474 808 l 474 668 l 273 668 l 379 0 l 196 0 m 416 352 q 371 369 389 352 q 353 409 353 385 q 371 450 353 433 q 416 466 389 466 q 461 450 444 466 q 479 409 479 433 q 461 368 479 385 q 416 352 444 352 z "},"ח":{"ha":865,"x_min":116,"x_max":769,"o":"m 116 0 l 117 808 l 449 808 q 688 731 608 808 q 769 500 768 654 l 769 0 l 592 0 l 591 514 q 557 631 591 593 q 450 668 522 668 l 294 668 l 294 0 l 116 0 z "},"ט":{"ha":876,"x_min":116,"x_max":795,"o":"m 456 -16 q 277 27 354 -16 q 158 145 201 69 q 116 323 116 222 l 116 808 l 294 808 l 294 304 q 338 173 294 223 q 456 122 383 122 q 573 173 528 122 q 617 304 617 223 l 617 552 q 592 640 617 610 q 517 670 567 670 q 478 666 499 670 q 435 654 457 661 l 414 769 q 494 803 450 791 q 577 816 538 816 q 737 749 679 816 q 795 566 795 683 l 795 323 q 753 145 795 222 q 634 27 711 69 q 456 -16 558 -16 z "},"טּ":{"ha":876,"x_min":116,"x_max":795,"o":"m 456 -16 q 277 27 354 -16 q 158 145 201 69 q 116 323 116 222 l 116 808 l 294 808 l 294 304 q 338 173 294 223 q 456 122 383 122 q 573 173 528 122 q 617 304 617 223 l 617 552 q 592 640 617 610 q 517 670 567 670 q 478 666 499 670 q 435 654 457 661 l 414 769 q 494 803 450 791 q 577 816 538 816 q 737 749 679 816 q 795 566 795 683 l 795 323 q 753 145 795 222 q 634 27 711 69 q 456 -16 558 -16 m 456 352 q 411 369 429 352 q 393 409 393 385 q 411 450 393 433 q 456 466 429 466 q 501 450 484 466 q 519 409 519 433 q 501 368 519 385 q 456 352 484 352 z "},"י":{"ha":454,"x_min":36,"x_max":349,"o":"m 171 351 l 171 668 l 36 668 l 36 808 l 349 808 l 349 351 l 171 351 z "},"יּ":{"ha":454,"x_min":-16,"x_max":349,"o":"m 171 351 l 171 668 l 36 668 l 36 808 l 349 808 l 349 351 l 171 351 m 47 465 q 2 482 20 465 q -16 522 -16 498 q 2 563 -16 547 q 47 579 20 579 q 92 563 75 579 q 110 522 110 547 q 92 481 110 498 q 47 465 75 465 z "},"ך":{"ha":710,"x_min":46,"x_max":595,"o":"m 419 -282 l 419 668 l 46 668 l 46 808 l 595 808 l 595 -282 l 419 -282 z "},"ךּ":{"ha":710,"x_min":46,"x_max":595,"o":"m 419 -282 l 419 668 l 46 668 l 46 808 l 595 808 l 595 -282 l 419 -282 m 213 378 q 168 394 186 378 q 150 435 150 411 q 168 475 150 459 q 213 492 186 492 q 258 475 240 492 q 275 435 275 459 q 258 394 275 410 q 213 378 240 378 z "},"כ":{"ha":759,"x_min":48,"x_max":644,"o":"m 281 -12 q 170 -4 228 -12 q 48 21 111 5 l 75 152 q 260 126 183 126 q 415 176 364 128 q 466 315 466 224 l 466 668 l 78 668 l 78 808 l 644 808 l 644 349 q 599 143 644 223 q 473 25 554 63 q 281 -12 391 -12 z "},"כּ":{"ha":759,"x_min":48,"x_max":644,"o":"m 281 -12 q 170 -4 228 -12 q 48 21 111 5 l 75 152 q 260 126 183 126 q 415 176 364 128 q 466 315 466 224 l 466 668 l 78 668 l 78 808 l 644 808 l 644 349 q 599 143 644 223 q 473 25 554 63 q 281 -12 391 -12 m 258 352 q 213 369 231 352 q 195 409 195 385 q 213 450 195 433 q 258 466 231 466 q 303 450 286 466 q 321 409 321 433 q 303 368 321 385 q 258 352 286 352 z "},"כֿ":{"ha":759,"x_min":48,"x_max":644,"o":"m 281 -12 q 170 -4 228 -12 q 48 21 111 5 l 75 152 q 260 126 183 126 q 415 176 364 128 q 466 315 466 224 l 466 668 l 78 668 l 78 808 l 644 808 l 644 349 q 599 143 644 223 q 473 25 554 63 q 281 -12 391 -12 m 155 924 l 155 1018 l 525 1018 l 525 924 l 155 924 z "},"ל":{"ha":739,"x_min":49,"x_max":690,"o":"m 49 668 l 49 1042 l 227 1042 l 227 808 l 627 808 l 627 668 l 49 668 m 690 694 l 412 0 l 222 0 l 555 808 l 690 808 l 690 694 z "},"לּ":{"ha":739,"x_min":49,"x_max":690,"o":"m 49 668 l 49 1042 l 227 1042 l 227 808 l 627 808 l 627 668 l 49 668 m 690 694 l 412 0 l 222 0 l 555 808 l 690 808 l 690 694 m 203 395 q 158 411 176 395 q 140 452 140 428 q 158 492 140 476 q 203 509 176 509 q 248 492 231 509 q 266 452 266 476 q 248 411 266 427 q 203 395 231 395 z "},"ם":{"ha":902,"x_min":115,"x_max":787,"o":"m 115 0 l 115 808 l 787 808 l 787 0 l 115 0 m 294 140 l 608 140 l 608 668 l 294 668 l 294 140 z "},"מ":{"ha":907,"x_min":79,"x_max":811,"o":"m 109 0 l 165 477 q 195 583 172 533 q 248 659 217 632 q 253 664 250 661 q 258 668 256 666 l 257 670 q 189 655 229 666 q 117 632 148 644 l 79 763 q 194 796 131 782 q 325 818 258 810 q 451 826 391 826 q 719 735 627 826 q 811 467 810 644 l 811 0 l 466 0 l 466 140 l 633 140 l 633 490 q 594 630 633 581 q 483 680 555 680 q 385 632 422 680 q 338 499 348 585 l 286 0 l 109 0 z "},"מּ":{"ha":907,"x_min":79,"x_max":811,"o":"m 109 0 l 165 477 q 195 583 172 533 q 248 659 217 632 q 253 664 250 661 q 258 668 256 666 l 257 670 q 189 655 229 666 q 117 632 148 644 l 79 763 q 194 796 131 782 q 325 818 258 810 q 451 826 391 826 q 719 735 627 826 q 811 467 810 644 l 811 0 l 466 0 l 466 140 l 633 140 l 633 490 q 594 630 633 581 q 483 680 555 680 q 385 632 422 680 q 338 499 348 585 l 286 0 l 109 0 m 480 352 q 435 369 453 352 q 417 409 417 385 q 435 450 417 433 q 480 466 453 466 q 525 450 507 466 q 543 409 543 433 q 525 368 543 385 q 480 352 507 352 z "},"ן":{"ha":426,"x_min":53,"x_max":311,"o":"m 135 -282 l 135 668 l 53 668 l 53 808 l 311 808 l 311 -282 l 135 -282 z "},"נ":{"ha":535,"x_min":41,"x_max":419,"o":"m 186 -14 q 114 -9 147 -14 q 41 4 81 -5 l 43 139 q 141 132 90 132 q 216 160 191 132 q 241 247 241 188 l 241 668 l 92 668 l 92 808 l 419 808 l 419 233 q 358 50 419 114 q 186 -14 297 -14 z "},"נּ":{"ha":535,"x_min":40,"x_max":419,"o":"m 186 -14 q 114 -9 147 -14 q 41 4 81 -5 l 43 139 q 141 132 90 132 q 216 160 191 132 q 241 247 241 188 l 241 668 l 92 668 l 92 808 l 419 808 l 419 233 q 358 50 419 114 q 186 -14 297 -14 m 103 352 q 58 369 76 352 q 40 409 40 385 q 58 450 40 433 q 103 466 76 466 q 148 450 130 466 q 165 409 165 433 q 148 368 165 385 q 103 352 130 352 z "},"ס":{"ha":893,"x_min":52,"x_max":812,"o":"m 458 -16 q 275 31 354 -16 q 151 163 195 78 q 104 360 106 248 l 104 422 q 116 514 104 467 q 150 599 128 560 q 197 660 171 638 q 202 664 199 662 q 207 668 204 667 l 205 671 q 148 659 183 667 q 85 642 113 650 l 52 773 q 171 801 106 789 q 305 820 237 813 q 433 826 373 826 q 638 782 553 826 q 768 653 723 737 q 812 446 812 568 l 812 360 q 768 163 812 248 q 645 31 724 78 q 458 -16 565 -16 m 458 132 q 550 161 511 132 q 612 240 590 189 q 635 359 635 291 l 635 444 q 613 571 635 518 q 551 652 592 624 q 454 680 511 680 q 363 651 401 680 q 304 567 325 622 q 282 433 283 512 l 282 359 q 304 240 282 291 q 366 161 326 189 q 458 132 406 132 z "},"סּ":{"ha":893,"x_min":52,"x_max":812,"o":"m 458 -16 q 275 31 354 -16 q 151 163 195 78 q 104 360 106 248 l 104 422 q 116 514 104 467 q 150 599 128 560 q 197 660 171 638 q 202 664 199 662 q 207 668 204 667 l 205 671 q 148 659 183 667 q 85 642 113 650 l 52 773 q 171 801 106 789 q 305 820 237 813 q 433 826 373 826 q 638 782 553 826 q 768 653 723 737 q 812 446 812 568 l 812 360 q 768 163 812 248 q 645 31 724 78 q 458 -16 565 -16 m 458 132 q 550 161 511 132 q 612 240 590 189 q 635 359 635 291 l 635 444 q 613 571 635 518 q 551 652 592 624 q 454 680 511 680 q 363 651 401 680 q 304 567 325 622 q 282 433 283 512 l 282 359 q 304 240 282 291 q 366 161 326 189 q 458 132 406 132 m 458 352 q 413 369 431 352 q 395 409 395 385 q 413 450 395 433 q 458 466 431 466 q 503 450 486 466 q 521 409 521 433 q 503 368 521 385 q 458 352 486 352 z "},"ע":{"ha":844,"x_min":41,"x_max":728,"o":"m 349 -19 q 203 -6 281 -19 q 41 39 126 7 l 80 170 q 211 130 151 143 q 323 116 272 117 q 488 170 427 116 q 550 328 550 224 l 550 808 l 728 808 l 728 336 q 680 141 728 220 q 547 21 632 62 q 349 -19 461 -19 m 80 808 l 259 808 l 382 227 q 406 151 392 184 q 446 91 419 117 l 310 92 q 248 153 277 114 q 208 243 219 192 l 80 808 z "},"ף":{"ha":852,"x_min":92,"x_max":737,"o":"m 737 808 l 737 -282 l 561 -282 l 561 668 l 335 668 q 315 611 323 642 q 303 548 307 581 q 298 484 298 515 l 298 406 q 335 399 313 401 q 384 398 357 397 l 384 268 q 285 266 331 263 q 199 281 239 269 q 126 312 160 292 l 125 429 q 131 518 125 473 q 151 601 138 562 q 182 668 164 640 l 92 668 l 92 808 l 737 808 z "},"ףּ":{"ha":852,"x_min":92,"x_max":737,"o":"m 737 808 l 737 -282 l 561 -282 l 561 668 l 335 668 q 315 611 323 642 q 303 548 307 581 q 298 484 298 515 l 298 406 q 335 399 313 401 q 384 398 357 397 l 384 268 q 285 266 331 263 q 199 281 239 269 q 126 312 160 292 l 125 429 q 131 518 125 473 q 151 601 138 562 q 182 668 164 640 l 92 668 l 92 808 l 737 808 m 432 465 q 387 482 405 465 q 369 522 369 498 q 387 563 369 547 q 432 579 405 579 q 477 563 459 579 q 494 522 494 547 q 477 481 494 498 q 432 465 459 465 z "},"פ":{"ha":902,"x_min":92,"x_max":786,"o":"m 408 -16 q 268 -4 344 -16 q 123 33 192 9 l 157 164 q 287 136 222 145 q 397 126 351 126 q 554 176 500 127 q 608 315 608 224 l 608 668 l 335 668 q 308 584 317 629 q 298 492 298 538 l 298 444 q 335 437 313 439 q 384 435 357 435 l 384 305 q 284 303 330 300 q 199 318 239 306 q 126 349 160 330 l 125 436 q 140 565 125 503 q 182 668 155 627 l 92 668 l 92 808 l 786 808 l 786 343 q 736 138 786 218 q 600 21 686 58 q 408 -16 515 -16 z "},"פּ":{"ha":902,"x_min":92,"x_max":786,"o":"m 408 -16 q 268 -4 344 -16 q 123 33 192 9 l 157 164 q 287 136 222 145 q 397 126 351 126 q 554 176 500 127 q 608 315 608 224 l 608 668 l 335 668 q 308 584 317 629 q 298 492 298 538 l 298 444 q 335 437 313 439 q 384 435 357 435 l 384 305 q 284 303 330 300 q 199 318 239 306 q 126 349 160 330 l 125 436 q 140 565 125 503 q 182 668 155 627 l 92 668 l 92 808 l 786 808 l 786 343 q 736 138 786 218 q 600 21 686 58 q 408 -16 515 -16 m 458 477 q 413 493 431 477 q 395 534 395 510 q 413 574 395 558 q 458 591 431 591 q 503 574 485 591 q 520 534 520 558 q 503 493 520 509 q 458 477 485 477 z "},"פֿ":{"ha":902,"x_min":92,"x_max":786,"o":"m 408 -16 q 268 -4 344 -16 q 123 33 192 9 l 157 164 q 287 136 222 145 q 397 126 351 126 q 554 176 500 127 q 608 315 608 224 l 608 668 l 335 668 q 308 584 317 629 q 298 492 298 538 l 298 444 q 335 437 313 439 q 384 435 357 435 l 384 305 q 284 303 330 300 q 199 318 239 306 q 126 349 160 330 l 125 436 q 140 565 125 503 q 182 668 155 627 l 92 668 l 92 808 l 786 808 l 786 343 q 736 138 786 218 q 600 21 686 58 q 408 -16 515 -16 m 259 924 l 259 1018 l 629 1018 l 629 924 l 259 924 z "},"ץ":{"ha":780,"x_min":28,"x_max":756,"o":"m 394 -282 l 394 222 q 368 305 394 267 l 28 808 l 227 808 l 448 456 l 519 353 q 553 283 543 319 q 563 203 563 248 l 563 -282 l 394 -282 m 490 314 l 380 456 l 557 808 l 756 808 l 490 314 z "},"צ":{"ha":794,"x_min":28,"x_max":756,"o":"m 87 0 l 87 140 l 481 140 l 28 808 l 227 808 l 454 453 l 709 83 l 709 0 l 87 0 m 490 314 l 380 456 l 557 808 l 756 808 l 490 314 z "},"צּ":{"ha":794,"x_min":28,"x_max":756,"o":"m 87 0 l 87 140 l 481 140 l 28 808 l 227 808 l 454 453 l 709 83 l 709 0 l 87 0 m 490 314 l 380 456 l 557 808 l 756 808 l 490 314 m 207 215 q 162 232 180 215 q 144 272 144 248 q 162 313 144 296 q 207 329 180 329 q 252 313 234 329 q 269 272 269 296 q 252 231 269 248 q 207 215 234 215 z "},"ק":{"ha":890,"x_min":115,"x_max":774,"o":"m 400 0 l 400 137 q 544 193 491 140 q 596 345 596 246 l 596 668 l 115 668 l 115 808 l 774 808 l 774 349 q 729 163 774 240 q 600 45 684 86 q 400 0 515 3 m 125 -282 l 125 291 q 141 406 125 368 q 169 463 157 444 l 312 463 q 301 397 304 434 q 298 307 298 360 l 298 -282 l 125 -282 z "},"קּ":{"ha":890,"x_min":115,"x_max":774,"o":"m 400 0 l 400 137 q 544 193 491 140 q 596 345 596 246 l 596 668 l 115 668 l 115 808 l 774 808 l 774 349 q 729 163 774 240 q 600 45 684 86 q 400 0 515 3 m 125 -282 l 125 291 q 141 406 125 368 q 169 463 157 444 l 312 463 q 301 397 304 434 q 298 307 298 360 l 298 -282 l 125 -282 m 445 352 q 400 369 418 352 q 382 409 382 385 q 400 450 382 433 q 445 466 418 466 q 490 450 472 466 q 507 409 507 433 q 490 368 507 385 q 445 352 472 352 z "},"ר":{"ha":687,"x_min":31,"x_max":591,"o":"m 413 0 l 413 545 q 379 636 413 604 q 285 668 346 668 l 31 668 l 31 808 l 296 808 q 513 736 435 808 q 591 535 591 664 l 591 0 l 413 0 z "},"רּ":{"ha":687,"x_min":31,"x_max":591,"o":"m 413 0 l 413 545 q 379 636 413 604 q 285 668 346 668 l 31 668 l 31 808 l 296 808 q 513 736 435 808 q 591 535 591 664 l 591 0 l 413 0 m 208 352 q 163 369 181 352 q 145 409 145 385 q 163 450 145 433 q 208 466 181 466 q 253 450 235 466 q 271 409 271 433 q 253 368 271 385 q 208 352 235 352 z "},"ש":{"ha":1163,"x_min":116,"x_max":1048,"o":"m 288 808 l 288 174 q 417 133 348 149 q 547 118 486 118 q 715 145 642 118 q 832 228 789 172 q 875 372 875 284 l 875 808 l 1048 808 l 1048 353 q 1009 187 1048 258 q 902 70 970 117 q 745 0 833 23 q 555 -22 656 -22 q 334 3 449 -22 q 116 78 220 28 l 116 808 l 288 808 m 455 243 q 483 317 473 270 q 492 422 492 365 l 492 808 l 665 808 l 665 458 q 648 333 665 390 q 601 242 632 276 l 455 243 z "},"שׁ":{"ha":1163,"x_min":116,"x_max":1048,"o":"m 288 808 l 288 174 q 417 133 348 149 q 547 118 486 118 q 715 145 642 118 q 832 228 789 172 q 875 372 875 284 l 875 808 l 1048 808 l 1048 353 q 1009 187 1048 258 q 902 70 970 117 q 745 0 833 23 q 555 -22 656 -22 q 334 3 449 -22 q 116 78 220 28 l 116 808 l 288 808 m 455 243 q 483 317 473 270 q 492 422 492 365 l 492 808 l 665 808 l 665 458 q 648 333 665 390 q 601 242 632 276 l 455 243 m 954 911 q 909 928 927 911 q 890 968 890 945 q 909 1008 890 992 q 954 1025 927 1025 q 998 1008 981 1025 q 1016 968 1016 992 q 998 927 1016 943 q 954 911 981 911 z "},"שׂ":{"ha":1163,"x_min":116,"x_max":1048,"o":"m 288 808 l 288 174 q 417 133 348 149 q 547 118 486 118 q 715 145 642 118 q 832 228 789 172 q 875 372 875 284 l 875 808 l 1048 808 l 1048 353 q 1009 187 1048 258 q 902 70 970 117 q 745 0 833 23 q 555 -22 656 -22 q 334 3 449 -22 q 116 78 220 28 l 116 808 l 288 808 m 455 243 q 483 317 473 270 q 492 422 492 365 l 492 808 l 665 808 l 665 458 q 648 333 665 390 q 601 242 632 276 l 455 243 m 198 911 q 153 928 171 911 q 135 968 135 945 q 153 1009 135 993 q 197 1025 171 1025 q 243 1008 225 1025 q 260 968 260 992 q 243 927 260 943 q 198 911 225 911 z "},"שּׁ":{"ha":1163,"x_min":116,"x_max":1048,"o":"m 288 808 l 288 174 q 417 133 348 149 q 547 118 486 118 q 715 145 642 118 q 832 228 789 172 q 875 372 875 284 l 875 808 l 1048 808 l 1048 353 q 1009 187 1048 258 q 902 70 970 117 q 745 0 833 23 q 555 -22 656 -22 q 334 3 449 -22 q 116 78 220 28 l 116 808 l 288 808 m 455 243 q 483 317 473 270 q 492 422 492 365 l 492 808 l 665 808 l 665 458 q 648 333 665 390 q 601 242 632 276 l 455 243 m 768 352 q 723 369 741 352 q 705 409 705 385 q 723 450 705 433 q 768 466 741 466 q 813 450 795 466 q 831 409 831 433 q 813 368 831 385 q 768 352 795 352 m 954 911 q 909 928 927 911 q 890 968 890 945 q 909 1008 890 992 q 954 1025 927 1025 q 998 1008 981 1025 q 1016 968 1016 992 q 998 927 1016 943 q 954 911 981 911 z "},"שּׂ":{"ha":1163,"x_min":116,"x_max":1048,"o":"m 288 808 l 288 174 q 417 133 348 149 q 547 118 486 118 q 715 145 642 118 q 832 228 789 172 q 875 372 875 284 l 875 808 l 1048 808 l 1048 353 q 1009 187 1048 258 q 902 70 970 117 q 745 0 833 23 q 555 -22 656 -22 q 334 3 449 -22 q 116 78 220 28 l 116 808 l 288 808 m 455 243 q 483 317 473 270 q 492 422 492 365 l 492 808 l 665 808 l 665 458 q 648 333 665 390 q 601 242 632 276 l 455 243 m 768 352 q 723 369 741 352 q 705 409 705 385 q 723 450 705 433 q 768 466 741 466 q 813 450 795 466 q 831 409 831 433 q 813 368 831 385 q 768 352 795 352 m 198 911 q 153 928 171 911 q 135 968 135 945 q 153 1009 135 993 q 197 1025 171 1025 q 243 1008 225 1025 q 260 968 260 992 q 243 927 260 943 q 198 911 225 911 z "},"שּ":{"ha":1163,"x_min":116,"x_max":1048,"o":"m 288 808 l 288 174 q 417 133 348 149 q 547 118 486 118 q 715 145 642 118 q 832 228 789 172 q 875 372 875 284 l 875 808 l 1048 808 l 1048 353 q 1009 187 1048 258 q 902 70 970 117 q 745 0 833 23 q 555 -22 656 -22 q 334 3 449 -22 q 116 78 220 28 l 116 808 l 288 808 m 455 243 q 483 317 473 270 q 492 422 492 365 l 492 808 l 665 808 l 665 458 q 648 333 665 390 q 601 242 632 276 l 455 243 m 768 352 q 723 369 741 352 q 705 409 705 385 q 723 450 705 433 q 768 466 741 466 q 813 450 795 466 q 831 409 831 433 q 813 368 831 385 q 768 352 795 352 z "},"ת":{"ha":885,"x_min":7,"x_max":790,"o":"m 469 808 q 709 731 629 808 q 790 500 790 654 l 790 0 l 612 0 l 611 514 q 577 631 611 593 q 471 668 543 668 l 362 668 q 338 581 347 630 q 330 484 330 531 l 330 236 q 269 54 330 117 q 100 -9 209 -9 q 53 -7 75 -9 q 7 -2 31 -5 l 7 137 q 30 136 18 136 q 52 135 41 135 q 130 162 104 135 q 156 248 156 190 l 156 468 q 169 573 156 517 q 208 668 182 629 l 73 668 l 73 808 l 469 808 z "},"תּ":{"ha":885,"x_min":7,"x_max":790,"o":"m 469 808 q 709 731 629 808 q 790 500 790 654 l 790 0 l 612 0 l 611 514 q 577 631 611 593 q 471 668 543 668 l 362 668 q 338 581 347 630 q 330 484 330 531 l 330 236 q 269 54 330 117 q 100 -9 209 -9 q 53 -7 75 -9 q 7 -2 31 -5 l 7 137 q 30 136 18 136 q 52 135 41 135 q 130 162 104 135 q 156 248 156 190 l 156 468 q 169 573 156 517 q 208 668 182 629 l 73 668 l 73 808 l 469 808 m 469 352 q 424 369 442 352 q 406 409 406 385 q 424 450 406 433 q 469 466 442 466 q 514 450 496 466 q 532 409 532 433 q 514 368 532 385 q 469 352 496 352 z "},"ױ":{"ha":886,"x_min":36,"x_max":770,"o":"m 592 0 l 592 668 l 513 668 l 513 808 l 771 808 l 771 0 l 592 0 m 171 351 l 171 668 l 36 668 l 36 808 l 349 808 l 349 351 l 171 351 z "},"יִ":{"ha":458,"x_min":36,"x_max":349,"o":"m 260 -224 q 216 -208 234 -224 q 198 -168 198 -191 q 216 -126 198 -142 q 260 -111 234 -111 q 305 -126 288 -111 q 323 -168 323 -142 q 305 -208 323 -192 q 260 -224 288 -224 m 171 351 l 171 668 l 36 668 l 36 808 l 349 808 l 349 351 l 171 351 z "},"ײַ":{"ha":909,"x_min":36,"x_max":803,"o":"m 625 351 l 625 668 l 490 668 l 490 808 l 804 808 l 804 351 l 625 351 m 171 351 l 171 668 l 36 668 l 36 808 l 349 808 l 349 351 l 171 351 m 328 -207 l 328 -127 l 631 -127 l 631 -207 l 328 -207 z "},"ﬠ":{"ha":865,"x_min":41,"x_max":749,"o":"m 349 -26 q 41 36 211 -26 l 80 168 q 211 127 151 140 q 323 113 272 113 q 486 166 427 113 q 550 325 546 220 l 572 808 l 749 808 l 728 333 q 618 66 720 159 q 349 -26 517 -26 m 92 808 l 271 808 l 394 227 q 418 151 404 184 q 457 91 431 118 l 321 92 q 260 152 290 113 q 220 243 231 191 l 92 808 z "},"ﬡ":{"ha":1259,"x_min":85,"x_max":1202,"o":"m 938 0 l 85 808 l 321 808 l 1181 0 l 938 0 m 140 0 l 140 347 q 182 536 140 467 q 318 640 224 606 l 383 549 q 312 420 312 511 l 312 0 l 140 0 m 877 197 l 761 336 l 1002 808 l 1202 808 l 877 197 z "},"ﬢ":{"ha":951,"x_min":41,"x_max":907,"o":"m 41 808 l 907 808 l 907 675 l 736 658 l 736 0 l 559 0 l 559 668 l 41 668 l 41 808 z "},"ﬣ":{"ha":1119,"x_min":98,"x_max":1023,"o":"m 98 0 l 98 269 q 109 371 98 332 q 125 427 120 411 l 284 449 l 292 441 q 284 395 289 424 q 276 333 279 366 q 273 267 273 299 l 273 0 l 98 0 m 845 0 l 845 545 q 812 636 845 604 q 718 668 779 668 l 100 668 l 100 808 l 728 808 q 945 736 867 808 q 1023 535 1023 664 l 1023 0 l 845 0 z "},"ﬤ":{"ha":1056,"x_min":48,"x_max":941,"o":"m 456 -25 q 264 -12 371 -25 q 48 25 157 1 l 74 165 q 280 132 182 143 q 450 121 379 121 q 687 176 613 121 q 762 334 762 231 l 762 668 l 76 668 l 76 808 l 941 808 l 941 333 q 882 133 940 213 q 715 14 823 54 q 456 -25 607 -25 z "},"ﬥ":{"ha":977,"x_min":49,"x_max":929,"o":"m 736 668 l 49 668 l 49 1003 l 227 1003 l 227 808 l 901 808 l 736 668 m 929 694 l 527 0 l 338 0 l 793 808 l 929 808 l 929 694 z "},"ﬦ":{"ha":1219,"x_min":92,"x_max":1114,"o":"m 92 0 l 92 808 l 1114 808 l 1114 0 l 92 0 m 270 140 l 937 140 l 937 668 l 270 668 l 270 140 z "},"ﬧ":{"ha":954,"x_min":31,"x_max":859,"o":"m 680 0 l 680 545 q 647 636 680 604 q 553 668 614 668 l 31 668 l 31 808 l 563 808 q 781 736 703 808 q 859 535 859 664 l 859 0 l 680 0 z "},"ﬨ":{"ha":1216,"x_min":7,"x_max":1121,"o":"m 801 808 q 1040 731 960 808 q 1121 500 1121 654 l 1121 0 l 943 0 l 943 514 q 908 631 943 593 q 802 668 874 668 l 362 668 q 338 581 347 630 q 330 484 330 531 l 330 236 q 269 54 330 117 q 100 -9 209 -9 q 53 -7 75 -9 q 7 -2 31 -5 l 7 137 q 30 136 18 136 q 52 135 41 135 q 130 162 104 135 q 156 248 156 190 l 156 468 q 169 573 156 517 q 208 668 182 629 l 73 668 l 73 808 l 801 808 z "},"װ":{"ha":863,"x_min":58,"x_max":748,"o":"m 570 0 l 570 668 l 490 668 l 490 808 l 749 808 l 749 0 l 570 0 m 138 0 l 138 668 l 58 668 l 58 808 l 317 808 l 317 0 l 138 0 z "},"ײ":{"ha":909,"x_min":36,"x_max":803,"o":"m 625 351 l 625 668 l 490 668 l 490 808 l 804 808 l 804 351 l 625 351 m 171 351 l 171 668 l 36 668 l 36 808 l 349 808 l 349 351 l 171 351 z "},"ﭏ":{"ha":840,"x_min":49,"x_max":783,"o":"m 570 0 l 49 742 l 49 1003 l 227 1003 l 227 773 l 768 0 l 570 0 m 783 808 l 513 307 l 396 446 l 583 808 l 783 808 z "},"⁄":{"ha":623,"x_min":27,"x_max":597,"o":"m 115 74 l 27 124 l 509 896 l 597 846 l 115 74 z "},"½":{"ha":1099,"x_min":90,"x_max":1052,"o":"m 347 74 l 258 124 l 741 896 l 829 846 l 347 74 m 351 370 l 223 370 l 223 754 l 90 722 l 90 823 l 339 904 l 351 904 l 351 370 m 1052 0 l 635 0 l 635 87 l 831 264 q 888 330 871 300 q 905 376 905 359 q 887 422 905 405 q 834 439 869 439 q 773 416 793 439 q 753 359 753 392 l 623 359 q 648 452 623 410 q 720 518 673 493 q 829 543 766 543 q 980 499 926 543 q 1034 377 1034 455 q 1018 307 1034 338 q 970 244 1002 276 q 893 175 939 213 l 804 103 l 1052 103 l 1052 0 z "},"¼":{"ha":1024,"x_min":90,"x_max":985,"o":"m 353 74 l 265 124 l 747 896 l 836 846 l 353 74 m 351 370 l 223 370 l 223 754 l 90 722 l 90 823 l 339 904 l 351 904 l 351 370 m 985 111 l 552 111 l 545 195 l 791 535 l 893 535 l 783 359 l 670 216 l 985 216 l 985 111 m 922 0 l 792 0 l 792 535 l 922 535 l 922 0 z "},"¾":{"ha":1090,"x_min":36,"x_max":1052,"o":"m 243 682 q 306 700 285 682 q 326 747 326 718 q 308 787 326 769 q 249 805 290 805 q 196 792 218 805 q 174 757 174 779 l 44 757 q 72 839 44 806 q 145 890 100 873 q 245 908 191 908 q 397 869 338 908 q 455 755 455 831 q 431 686 455 715 q 363 641 406 657 q 264 625 321 625 l 183 625 l 183 682 l 243 682 m 183 651 l 264 651 q 372 637 327 651 q 440 594 416 624 q 465 515 465 564 q 402 399 465 440 q 245 358 339 358 q 147 375 195 358 q 67 428 98 391 q 36 523 36 464 l 165 523 q 189 480 165 498 q 252 462 212 462 q 315 480 295 462 q 335 526 335 499 q 311 579 335 564 q 243 594 286 594 l 183 594 l 183 651 m 420 74 l 332 124 l 814 896 l 902 846 l 420 74 m 1052 111 l 618 111 l 612 195 l 858 535 l 960 535 l 849 359 l 736 216 l 1052 216 l 1052 111 m 988 0 l 859 0 l 859 535 l 988 535 l 988 0 z "},"₀":{"ha":515,"x_min":50,"x_max":464,"o":"m 464 -33 q 407 -200 464 -146 q 258 -254 349 -254 q 108 -200 166 -254 q 50 -33 50 -146 l 50 73 q 107 241 50 186 q 257 296 165 296 q 406 241 349 296 q 464 73 464 186 l 464 -33 m 335 80 q 314 165 335 140 q 257 191 294 191 q 200 165 220 191 q 180 80 180 140 l 180 -39 q 200 -125 180 -100 q 258 -151 221 -151 q 315 -125 294 -151 q 335 -39 335 -100 l 335 80 z "},"₁":{"ha":515,"x_min":90,"x_max":351,"o":"m 351 -247 l 223 -247 l 223 137 l 90 105 l 90 206 l 339 287 l 351 287 l 351 -247 z "},"₂":{"ha":515,"x_min":40,"x_max":469,"o":"m 469 -247 l 52 -247 l 52 -159 l 248 18 q 305 83 288 54 q 322 130 322 112 q 304 175 322 158 q 251 193 286 193 q 190 169 210 193 q 170 113 170 145 l 40 113 q 65 205 40 163 q 136 271 90 246 q 246 296 182 296 q 397 252 343 296 q 451 130 451 208 q 435 60 451 92 q 387 -2 418 29 q 310 -72 356 -34 l 220 -144 l 469 -144 l 469 -247 z "},"₃":{"ha":515,"x_min":36,"x_max":465,"o":"m 243 70 q 306 87 285 70 q 326 134 326 105 q 308 175 326 157 q 249 193 290 193 q 196 180 218 193 q 174 144 174 167 l 44 144 q 72 227 44 193 q 145 278 100 260 q 245 296 191 296 q 397 257 338 296 q 455 143 455 218 q 431 74 455 103 q 363 28 406 45 q 264 12 321 12 l 183 12 l 183 70 l 243 70 m 183 39 l 264 39 q 372 25 327 39 q 440 -18 416 12 q 465 -97 465 -48 q 402 -213 465 -172 q 245 -254 339 -254 q 147 -238 195 -254 q 67 -185 98 -221 q 36 -90 36 -149 l 165 -90 q 189 -133 165 -115 q 252 -151 212 -151 q 315 -132 295 -151 q 335 -86 335 -113 q 311 -34 335 -49 q 243 -18 286 -18 l 183 -18 l 183 39 z "},"₄":{"ha":515,"x_min":37,"x_max":477,"o":"m 477 -136 l 43 -136 l 37 -52 l 283 288 l 385 288 l 274 113 l 161 -31 l 477 -31 l 477 -136 m 413 -247 l 283 -247 l 283 288 l 413 288 l 413 -247 z "},"₅":{"ha":515,"x_min":52,"x_max":466,"o":"m 65 14 l 100 288 l 436 288 l 436 185 l 206 185 l 191 86 q 228 97 202 90 q 282 104 253 104 q 418 59 371 104 q 466 -68 466 14 q 444 -158 466 -116 q 376 -228 421 -201 q 260 -254 330 -254 q 160 -235 208 -254 q 83 -181 113 -216 q 52 -97 54 -146 l 180 -97 q 204 -138 182 -126 q 260 -151 225 -151 q 320 -126 304 -151 q 336 -68 336 -101 q 315 -8 336 -31 q 249 15 293 15 q 196 5 214 15 q 168 -12 178 -4 l 65 14 z "},"₆":{"ha":515,"x_min":52,"x_max":475,"o":"m 383 298 l 383 192 l 376 192 q 273 177 317 192 q 205 126 229 163 q 180 23 180 90 l 180 -57 q 203 -128 180 -105 q 265 -151 225 -151 q 323 -127 301 -151 q 346 -68 346 -103 q 325 -12 346 -31 q 264 7 303 7 q 216 -3 237 7 q 184 -26 195 -12 q 172 -53 173 -40 l 138 -32 q 158 32 139 -1 q 214 87 178 64 q 304 110 251 110 q 431 59 388 110 q 475 -69 475 9 q 449 -164 475 -122 q 376 -230 422 -206 q 269 -254 330 -254 q 156 -230 205 -254 q 79 -158 107 -206 q 52 -38 52 -110 l 52 -2 q 75 133 52 76 q 140 226 98 189 q 239 280 182 262 q 363 298 296 298 l 383 298 z "},"₇":{"ha":515,"x_min":37,"x_max":466,"o":"m 466 216 l 237 -247 l 101 -247 l 330 184 l 37 184 l 37 288 l 466 288 l 466 216 z "},"₈":{"ha":515,"x_min":50,"x_max":465,"o":"m 258 -254 q 110 -215 170 -254 q 50 -99 50 -176 q 110 12 50 -28 q 257 51 169 51 q 406 12 347 51 q 465 -99 465 -28 q 406 -215 465 -176 q 258 -254 347 -254 m 258 -151 q 314 -134 293 -151 q 336 -87 336 -117 q 314 -41 336 -57 q 257 -26 292 -26 q 201 -41 222 -26 q 180 -87 180 -57 q 201 -134 180 -117 q 258 -151 223 -151 m 258 4 q 118 42 173 4 q 63 145 63 81 q 118 257 63 219 q 257 296 172 296 q 397 257 342 296 q 452 145 452 219 q 397 42 452 81 q 258 4 343 4 m 258 79 q 306 95 290 79 q 323 136 323 111 q 306 178 323 163 q 257 193 289 193 q 209 178 226 193 q 192 136 192 163 q 209 95 192 111 q 258 79 227 79 z "},"₉":{"ha":515,"x_min":47,"x_max":460,"o":"m 154 -151 q 253 -138 214 -151 q 312 -93 292 -125 q 332 -3 332 -60 l 332 102 q 310 171 332 149 q 253 192 288 192 q 197 165 218 192 q 176 101 176 138 q 197 43 176 64 q 258 21 217 21 q 303 30 285 21 q 330 53 321 39 q 340 77 340 66 l 379 60 q 358 -6 379 25 q 302 -56 337 -37 q 224 -75 267 -75 q 129 -55 169 -75 q 68 6 90 -34 q 47 102 47 46 q 73 199 47 155 q 146 269 100 243 q 253 296 192 296 q 360 272 313 296 q 434 200 407 249 q 460 77 460 151 l 460 40 q 439 -96 460 -40 q 377 -187 418 -153 q 281 -238 337 -222 q 155 -254 224 -254 l 144 -254 l 144 -151 l 154 -151 z "},"⁰":{"ha":515,"x_min":50,"x_max":464,"o":"m 464 666 q 407 499 464 553 q 258 445 349 445 q 108 499 166 445 q 50 666 50 553 l 50 772 q 107 940 50 886 q 257 995 165 995 q 406 940 349 995 q 464 772 464 886 l 464 666 m 335 779 q 314 865 335 839 q 257 890 294 890 q 200 865 220 890 q 180 779 180 839 l 180 660 q 200 574 180 599 q 258 549 221 549 q 315 574 294 549 q 335 660 335 599 l 335 779 z "},"¹":{"ha":515,"x_min":90,"x_max":351,"o":"m 351 452 l 223 452 l 223 836 l 90 804 l 90 905 l 339 986 l 351 986 l 351 452 z "},"²":{"ha":515,"x_min":40,"x_max":469,"o":"m 469 452 l 52 452 l 52 540 l 248 717 q 305 782 288 753 q 322 829 322 811 q 304 874 322 857 q 251 892 286 892 q 190 868 210 892 q 170 812 170 844 l 40 812 q 65 904 40 863 q 136 970 90 945 q 246 995 182 995 q 397 951 343 995 q 451 829 451 907 q 435 760 451 791 q 387 697 418 728 q 310 627 356 665 l 220 555 l 469 555 l 469 452 z "},"³":{"ha":515,"x_min":36,"x_max":465,"o":"m 243 769 q 306 787 285 769 q 326 833 326 804 q 308 874 326 856 q 249 892 290 892 q 196 879 218 892 q 174 844 174 866 l 44 844 q 72 926 44 892 q 145 977 100 960 q 245 995 191 995 q 397 956 338 995 q 455 842 455 918 q 431 773 455 802 q 363 728 406 744 q 264 711 321 711 l 183 711 l 183 769 l 243 769 m 183 738 l 264 738 q 372 724 327 738 q 440 681 416 711 q 465 602 465 651 q 402 486 465 527 q 245 445 339 445 q 147 461 195 445 q 67 514 98 478 q 36 610 36 551 l 165 610 q 189 567 165 585 q 252 549 212 549 q 315 567 295 549 q 335 613 335 586 q 311 666 335 650 q 243 681 286 681 l 183 681 l 183 738 z "},"⁴":{"ha":515,"x_min":37,"x_max":477,"o":"m 477 563 l 43 563 l 37 647 l 283 987 l 385 987 l 274 812 l 161 668 l 477 668 l 477 563 m 413 452 l 283 452 l 283 987 l 413 987 l 413 452 z "},"⁵":{"ha":515,"x_min":52,"x_max":466,"o":"m 65 713 l 100 987 l 436 987 l 436 884 l 206 884 l 191 785 q 228 797 202 789 q 282 804 253 804 q 418 759 371 804 q 466 631 466 713 q 444 541 466 583 q 376 472 421 498 q 260 445 330 445 q 160 464 208 445 q 83 518 113 483 q 52 602 54 553 l 180 602 q 204 561 182 573 q 260 549 225 549 q 320 573 304 549 q 336 631 336 598 q 315 691 336 669 q 249 714 293 714 q 196 705 214 714 q 168 687 178 695 l 65 713 z "},"⁶":{"ha":515,"x_min":52,"x_max":475,"o":"m 383 997 l 383 891 l 376 891 q 273 877 317 891 q 205 825 229 862 q 180 722 180 789 l 180 642 q 203 571 180 594 q 265 549 225 549 q 323 572 301 549 q 346 631 346 596 q 325 687 346 668 q 264 706 303 706 q 216 696 237 706 q 184 673 195 687 q 172 646 173 659 l 138 667 q 158 731 139 699 q 214 786 178 764 q 304 809 251 809 q 431 759 388 809 q 475 630 475 708 q 449 535 475 577 q 376 469 422 493 q 269 445 330 445 q 156 469 205 445 q 79 541 107 493 q 52 661 52 589 l 52 697 q 75 832 52 775 q 140 925 98 888 q 239 979 182 962 q 363 997 296 997 l 383 997 z "},"⁷":{"ha":515,"x_min":37,"x_max":466,"o":"m 466 915 l 237 452 l 101 452 l 330 884 l 37 884 l 37 987 l 466 987 l 466 915 z "},"⁸":{"ha":515,"x_min":50,"x_max":465,"o":"m 258 445 q 110 484 170 445 q 50 600 50 523 q 110 711 50 671 q 257 750 169 750 q 406 711 347 750 q 465 600 465 671 q 406 484 465 523 q 258 445 347 445 m 258 549 q 314 566 293 549 q 336 612 336 583 q 314 658 336 642 q 257 673 292 673 q 201 658 222 673 q 180 612 180 642 q 201 566 180 583 q 258 549 223 549 m 258 703 q 118 742 173 703 q 63 844 63 780 q 118 957 63 918 q 257 995 172 995 q 397 957 342 995 q 452 844 452 918 q 397 742 452 780 q 258 703 343 703 m 258 778 q 306 794 290 778 q 323 836 323 810 q 306 877 323 862 q 257 892 289 892 q 209 877 226 892 q 192 836 192 862 q 209 794 192 810 q 258 778 227 778 z "},"⁹":{"ha":515,"x_min":47,"x_max":460,"o":"m 154 548 q 253 561 214 548 q 312 606 292 574 q 332 696 332 639 l 332 802 q 310 870 332 848 q 253 891 288 891 q 197 864 218 891 q 176 800 176 838 q 197 742 176 764 q 258 720 217 720 q 303 729 285 720 q 330 752 321 739 q 340 777 340 765 l 379 759 q 358 693 379 724 q 302 643 337 663 q 224 624 267 624 q 129 645 169 624 q 68 705 90 665 q 47 802 47 745 q 73 898 47 854 q 146 968 100 942 q 253 995 192 995 q 360 971 313 995 q 434 899 407 948 q 460 776 460 850 l 460 739 q 439 603 460 659 q 377 512 418 547 q 281 461 337 477 q 155 445 224 445 l 144 445 l 144 548 l 154 548 z "}," ":{"ha":346,"x_min":0,"x_max":0,"o":""}," ":{"ha":346,"x_min":0,"x_max":0,"o":""},"‌":{"ha":0,"x_min":-453,"x_max":-336,"o":"m -453 831 l -336 831 l -336 -136 l -453 -136 l -453 831 z "},"‍":{"ha":0,"x_min":-205,"x_max":203,"o":"m -60 -136 l -60 681 l -117 623 l -205 707 l -85 829 l -205 951 l -118 1036 l -1 916 l 117 1036 l 203 951 l 84 829 l 203 707 l 117 623 l 57 684 l 57 -136 l -60 -136 z "},"‎":{"ha":0,"x_min":-583,"x_max":-120,"o":"m -583 903 l -205 903 l -205 791 l -583 791 l -583 903 m -411 682 l -210 887 l -120 847 l -272 682 l -411 682 m -268 1019 l -120 847 l -211 809 l -408 1019 l -268 1019 m -583 875 l -465 875 l -465 -136 l -583 -136 l -583 875 z "},"‏":{"ha":0,"x_min":-647,"x_max":-185,"o":"m -303 -136 l -303 875 l -185 875 l -185 -136 l -303 -136 m -496 682 l -647 847 l -557 887 l -356 682 l -496 682 m -556 809 l -647 847 l -499 1019 l -359 1019 l -556 809 m -562 791 l -562 903 l -185 903 l -185 791 l -562 791 z "},"׳":{"ha":282,"x_min":12,"x_max":240,"o":"m 119 594 l 12 639 q 62 735 43 682 q 80 840 80 788 l 80 977 l 240 977 l 239 854 q 224 758 239 806 q 181 667 208 709 q 119 594 154 625 z "},"״":{"ha":563,"x_min":26,"x_max":509,"o":"m 134 594 l 26 639 q 76 735 58 682 q 94 840 94 788 l 94 977 l 254 977 l 253 854 q 237 758 253 806 q 195 667 222 709 q 134 594 168 625 m 389 594 l 281 639 q 331 735 313 682 q 349 840 349 788 l 349 977 l 509 977 l 508 854 q 493 758 508 806 q 451 667 477 709 q 389 594 424 625 z "},"־":{"ha":380,"x_min":41,"x_max":340,"o":"m 340 668 l 41 668 l 41 808 l 340 808 l 340 668 z "},".":{"ha":392,"x_min":90,"x_max":290,"o":"m 190 -7 q 116 20 143 -7 q 90 87 90 47 q 116 155 90 127 q 190 182 143 182 q 263 155 237 182 q 290 87 290 127 q 263 20 290 47 q 190 -7 237 -7 z "},",":{"ha":318,"x_min":22,"x_max":244,"o":"m 244 39 q 209 -108 244 -33 q 115 -231 173 -182 l 22 -179 q 57 -117 41 -149 q 82 -50 73 -86 q 92 31 92 -14 l 92 161 l 244 161 l 244 39 z "},":":{"ha":375,"x_min":86,"x_max":287,"o":"m 186 -7 q 113 20 140 -7 q 86 87 86 47 q 113 155 86 127 q 186 182 140 182 q 260 155 233 182 q 287 87 287 127 q 260 20 287 47 q 186 -7 233 -7 m 186 562 q 113 589 140 562 q 86 656 86 616 q 113 725 86 697 q 186 752 140 752 q 260 725 233 752 q 287 656 287 697 q 260 589 287 616 q 186 562 233 562 z "},";":{"ha":342,"x_min":35,"x_max":274,"o":"m 174 562 q 100 589 127 562 q 73 656 73 616 q 100 725 73 697 q 174 752 127 752 q 247 725 220 752 q 274 656 274 697 q 247 589 274 616 q 174 562 220 562 m 257 39 q 221 -108 257 -33 q 127 -231 186 -182 l 35 -179 q 70 -117 54 -149 q 95 -50 85 -86 q 104 31 104 -14 l 104 161 l 257 161 l 257 39 z "},"…":{"ha":996,"x_min":93,"x_max":911,"o":"m 193 -7 q 120 20 146 -7 q 93 87 93 47 q 120 155 93 127 q 193 182 146 182 q 267 155 240 182 q 294 87 294 127 q 267 20 294 47 q 193 -7 240 -7 m 507 -7 q 433 20 460 -7 q 406 87 406 47 q 433 155 406 127 q 507 182 460 182 q 580 155 553 182 q 607 87 607 127 q 580 20 607 47 q 507 -7 553 -7 m 811 -7 q 738 20 764 -7 q 711 87 711 47 q 738 155 711 127 q 811 182 764 182 q 885 155 858 182 q 911 87 911 127 q 885 20 911 47 q 811 -7 858 -7 z "},"!":{"ha":372,"x_min":92,"x_max":290,"o":"m 116 296 l 97 987 l 281 987 l 263 296 l 116 296 m 191 -10 q 118 17 144 -10 q 92 83 92 44 q 118 150 92 123 q 191 177 144 177 q 263 150 237 177 q 290 83 290 123 q 263 17 290 44 q 191 -10 237 -10 z "},"¡":{"ha":376,"x_min":90,"x_max":286,"o":"m 98 -249 l 116 444 l 263 444 l 281 -249 l 98 -249 m 189 560 q 116 588 142 560 q 90 654 90 615 q 116 720 90 694 q 189 747 142 747 q 260 720 235 747 q 286 654 286 694 q 260 588 286 615 q 189 560 235 560 z "},"?":{"ha":681,"x_min":37,"x_max":629,"o":"m 237 295 q 248 402 238 358 q 282 481 258 446 q 345 555 305 517 q 401 610 376 584 q 440 665 426 636 q 455 731 455 694 q 425 825 455 792 q 336 857 395 857 q 251 828 289 857 q 212 736 212 800 l 37 736 q 78 883 39 824 q 185 971 118 942 q 336 1001 253 1001 q 552 932 475 1001 q 629 738 629 863 q 605 631 629 678 q 544 542 582 583 q 462 460 506 501 q 410 387 423 426 q 396 295 397 347 l 237 295 m 321 -7 q 249 19 275 -7 q 222 85 222 45 q 249 152 222 125 q 321 178 275 178 q 393 152 367 178 q 420 85 420 125 q 393 19 420 45 q 321 -7 367 -7 z "},"¿":{"ha":681,"x_min":47,"x_max":642,"o":"m 342 -262 q 125 -193 203 -262 q 47 1 47 -125 q 71 110 47 62 q 134 201 96 159 q 215 283 173 243 q 253 331 240 307 q 271 382 266 355 q 276 444 276 410 l 435 444 q 425 339 435 382 q 392 261 415 296 q 330 187 370 227 q 275 131 300 158 q 236 74 250 104 q 221 3 221 44 q 253 -87 221 -57 q 340 -117 284 -117 q 429 -88 391 -117 q 467 5 467 -58 l 642 5 q 601 -142 641 -83 q 494 -232 561 -202 q 342 -262 427 -262 m 355 562 q 283 589 309 562 q 256 655 256 616 q 283 721 256 694 q 355 747 309 747 q 427 721 401 747 q 453 655 453 694 q 427 589 453 616 q 355 562 401 562 z "},"·":{"ha":401,"x_min":96,"x_max":297,"o":"m 197 385 q 123 413 151 385 q 96 480 96 440 q 123 548 96 521 q 197 576 151 576 q 270 548 243 576 q 297 480 297 521 q 270 413 297 440 q 197 385 243 385 z "},"•":{"ha":490,"x_min":93,"x_max":400,"o":"m 93 521 q 134 628 93 587 q 245 670 175 670 q 359 628 318 670 q 400 521 400 587 l 400 495 q 359 389 400 430 q 247 347 318 347 q 134 389 176 347 q 93 495 93 430 l 93 521 z "},"*":{"ha":620,"x_min":19,"x_max":608,"o":"m 229 658 l 19 718 l 56 834 l 264 752 l 254 988 l 378 988 l 366 748 l 570 829 l 608 711 l 394 650 l 533 469 l 432 397 l 309 593 l 186 402 l 85 473 l 229 658 z "},"#":{"ha":838,"x_min":56,"x_max":813,"o":"m 342 987 l 458 987 l 278 0 l 162 0 l 342 987 m 604 987 l 720 987 l 540 0 l 424 0 l 604 987 m 107 595 l 107 705 l 813 705 l 813 595 l 107 595 m 56 278 l 56 388 l 762 388 l 762 278 l 56 278 z "},"/":{"ha":538,"x_min":-2,"x_max":511,"o":"m 132 -85 l -2 -85 l 378 987 l 511 987 l 132 -85 z "},"\\":{"ha":581,"x_min":9,"x_max":595,"o":"m 9 987 l 183 987 l 595 -85 l 421 -85 l 9 987 z "},"-":{"ha":488,"x_min":58,"x_max":424,"o":"m 424 352 l 58 352 l 58 492 l 424 492 l 424 352 z "},"–":{"ha":889,"x_min":97,"x_max":791,"o":"m 791 416 l 97 416 l 97 557 l 791 557 l 791 416 z "},"—":{"ha":1068,"x_min":70,"x_max":997,"o":"m 997 416 l 70 416 l 70 557 l 997 557 l 997 416 z "},"_":{"ha":623,"x_min":1,"x_max":621,"o":"m 621 -137 l 1 -137 l 1 0 l 621 0 l 621 -137 z "},"(":{"ha":484,"x_min":86,"x_max":457,"o":"m 86 401 q 118 664 86 546 q 201 871 150 782 q 310 1018 252 960 q 423 1102 369 1077 l 457 1004 q 380 924 418 975 q 310 800 342 873 q 259 627 278 726 q 240 403 240 528 l 240 387 q 259 163 240 262 q 310 -10 278 64 q 380 -136 342 -84 q 457 -218 418 -187 l 423 -312 q 310 -228 369 -286 q 201 -81 252 -170 q 118 126 150 8 q 86 389 86 243 l 86 401 z "},")":{"ha":488,"x_min":27,"x_max":404,"o":"m 404 389 q 372 130 404 247 q 288 -78 340 12 q 177 -227 237 -168 q 61 -312 117 -286 l 27 -218 q 104 -137 66 -189 q 174 -12 142 -86 q 225 162 206 63 q 244 387 244 262 l 244 403 q 224 628 244 528 q 172 802 205 728 q 102 927 140 876 q 27 1007 64 979 l 61 1102 q 177 1017 117 1077 q 288 867 237 958 q 372 660 340 777 q 404 401 404 543 l 404 389 z "},"{":{"ha":463,"x_min":37,"x_max":442,"o":"m 442 985 q 350 903 374 962 q 325 768 325 844 l 325 629 q 295 505 325 561 q 202 417 266 450 q 37 384 139 384 l 37 482 q 134 522 104 482 q 164 629 164 562 l 164 768 q 186 901 164 839 q 262 1010 209 963 q 408 1083 315 1057 l 442 985 m 408 -245 q 262 -172 315 -219 q 186 -63 209 -125 q 164 71 164 -1 l 164 209 q 134 315 164 275 q 37 355 104 355 l 37 454 q 202 421 139 454 q 295 333 266 389 q 325 209 325 278 l 325 71 q 350 -64 325 -5 q 442 -146 374 -123 l 408 -245 z "},"}":{"ha":463,"x_min":20,"x_max":426,"o":"m 54 1083 q 201 1010 148 1057 q 276 901 254 963 q 298 768 298 839 l 298 629 q 328 522 298 562 q 426 482 358 482 l 426 387 q 260 419 323 387 q 167 506 197 451 q 137 629 137 561 l 137 768 q 113 903 137 844 q 20 985 88 962 l 54 1083 m 20 -146 q 113 -64 88 -123 q 137 71 137 -5 l 137 209 q 167 332 137 278 q 260 418 197 387 q 426 450 323 450 l 426 355 q 328 315 358 355 q 298 209 298 275 l 298 71 q 276 -63 298 -1 q 201 -172 254 -125 q 54 -245 148 -219 l 20 -146 z "},"[":{"ha":381,"x_min":87,"x_max":369,"o":"m 369 1007 l 261 1007 l 261 -89 l 369 -89 l 369 -224 l 87 -224 l 87 1142 l 369 1142 l 369 1007 z "},"]":{"ha":381,"x_min":8,"x_max":290,"o":"m 8 1142 l 290 1142 l 290 -224 l 8 -224 l 8 -89 l 117 -89 l 117 1007 l 8 1007 l 8 1142 z "},"‚":{"ha":323,"x_min":38,"x_max":247,"o":"m 246 47 q 230 -42 246 5 q 187 -130 214 -88 q 123 -202 159 -172 l 38 -150 q 81 -61 66 -108 q 96 47 96 -14 l 96 145 l 247 145 l 246 47 z "},"„":{"ha":535,"x_min":38,"x_max":470,"o":"m 246 47 q 231 -46 246 3 q 190 -140 216 -96 q 127 -216 163 -184 l 38 -163 q 81 -68 66 -119 q 96 47 96 -18 l 96 175 l 247 175 l 246 47 m 470 47 q 454 -46 470 3 q 410 -140 438 -96 q 347 -216 382 -184 l 258 -163 q 302 -68 286 -119 q 319 47 319 -18 l 319 175 l 470 175 l 470 47 z "},"“":{"ha":541,"x_min":75,"x_max":511,"o":"m 75 812 q 91 902 75 856 q 134 990 106 948 q 197 1062 162 1032 l 283 1010 q 239 921 256 968 q 221 813 221 873 l 221 716 l 75 716 l 75 812 m 302 812 q 318 902 302 856 q 361 990 334 948 q 425 1062 389 1032 l 511 1010 q 466 921 484 968 q 448 813 448 873 l 448 716 l 302 716 l 302 812 z "},"”":{"ha":546,"x_min":46,"x_max":481,"o":"m 254 943 q 238 853 254 899 q 195 765 222 806 q 132 692 168 723 l 46 745 q 91 834 73 787 q 108 942 108 882 l 108 1042 l 254 1042 l 254 943 m 481 943 q 466 853 481 899 q 422 765 450 806 q 359 692 395 723 l 273 745 q 318 834 300 787 q 335 942 335 882 l 335 1042 l 481 1042 l 481 943 z "},"‘":{"ha":310,"x_min":68,"x_max":277,"o":"m 68 812 q 84 902 68 856 q 128 990 100 948 q 191 1062 156 1032 l 277 1010 q 233 921 250 968 q 215 813 215 873 l 215 716 l 68 716 l 68 812 z "},"’":{"ha":306,"x_min":37,"x_max":245,"o":"m 245 943 q 230 853 245 899 q 186 765 214 806 q 123 692 159 723 l 37 745 q 82 834 64 787 q 99 942 99 882 l 99 1042 l 245 1042 l 245 943 z "},"«":{"ha":680,"x_min":56,"x_max":617,"o":"m 198 358 l 56 359 l 56 368 l 250 632 l 367 632 l 198 358 m 367 91 l 250 91 l 56 355 l 56 363 l 198 364 l 367 91 m 448 358 l 307 359 l 307 368 l 500 632 l 617 632 l 448 358 m 617 91 l 500 91 l 307 355 l 307 363 l 448 364 l 617 91 z "},"»":{"ha":680,"x_min":62,"x_max":629,"o":"m 230 364 l 372 363 l 372 355 l 178 91 l 62 91 l 230 364 m 178 632 l 372 368 l 372 359 l 230 358 l 62 632 l 178 632 m 488 364 l 629 363 l 629 355 l 436 91 l 319 91 l 488 364 m 436 632 l 629 368 l 629 359 l 488 358 l 319 632 l 436 632 z "},"‹":{"ha":428,"x_min":73,"x_max":384,"o":"m 215 359 l 73 359 l 73 368 l 267 633 l 384 633 l 215 359 m 384 92 l 267 92 l 73 355 l 73 364 l 215 365 l 384 92 z "},"›":{"ha":419,"x_min":57,"x_max":367,"o":"m 225 364 l 367 363 l 367 355 l 174 91 l 57 91 l 225 364 m 174 632 l 367 368 l 367 359 l 225 358 l 57 632 l 174 632 z "},"\"":{"ha":446,"x_min":60,"x_max":392,"o":"m 183 949 l 159 682 l 60 682 l 60 941 l 60 1042 l 183 1042 l 183 949 m 392 949 l 368 682 l 269 682 l 269 947 l 269 1042 l 392 1042 l 392 949 z "},"'":{"ha":231,"x_min":52,"x_max":182,"o":"m 182 950 l 164 684 l 52 684 l 52 941 l 52 1042 l 182 1042 l 182 950 z "},"﬩":{"ha":755,"x_min":39,"x_max":715,"o":"m 295 818 l 456 818 l 456 536 l 715 536 l 715 387 l 39 387 l 39 536 l 295 536 l 295 818 z "},"@":{"ha":1244,"x_min":56,"x_max":1190,"o":"m 604 -307 q 304 -234 428 -307 q 118 -21 180 -161 q 64 317 56 119 q 114 575 70 457 q 234 780 157 692 q 417 916 311 867 q 654 964 524 964 q 951 888 831 964 q 1130 676 1071 813 q 1182 356 1190 540 q 1162 224 1179 290 q 1110 104 1145 158 q 1022 18 1076 50 q 891 -14 968 -14 q 752 47 800 -14 q 711 212 703 108 l 746 598 l 871 598 l 837 212 q 838 148 833 173 q 856 110 844 123 q 882 91 867 96 q 913 86 897 86 q 995 122 960 86 q 1049 218 1029 157 q 1071 353 1069 279 q 1036 622 1079 509 q 898 798 994 736 q 652 860 803 860 q 410 790 512 860 q 251 598 309 720 q 186 317 194 475 q 206 97 180 193 q 286 -66 231 1 q 421 -166 340 -132 q 607 -200 502 -200 q 728 -186 667 -200 q 831 -151 789 -173 l 858 -247 q 739 -292 810 -277 q 604 -307 668 -307 m 549 -13 q 437 25 483 -13 q 371 131 391 62 q 359 289 351 199 q 415 492 371 406 q 525 625 459 578 q 667 671 591 671 q 788 649 744 671 q 871 598 831 627 l 806 511 q 754 546 785 530 q 679 563 722 563 q 590 532 628 563 q 528 440 552 500 q 496 289 505 379 q 500 186 491 229 q 532 123 509 144 q 591 101 555 101 q 637 115 612 101 q 685 164 662 130 q 724 260 709 199 l 778 197 q 686 40 747 94 q 549 -13 625 -13 z "},"&":{"ha":896,"x_min":55,"x_max":884,"o":"m 422 652 q 482 706 465 680 q 499 770 499 733 q 473 832 499 804 q 400 861 448 861 q 324 829 349 861 q 298 751 298 797 q 333 657 298 706 q 419 547 368 608 l 884 0 l 684 0 l 305 444 q 185 603 231 533 q 138 748 138 672 q 171 883 138 826 q 262 970 203 939 q 401 1001 321 1001 q 532 970 476 1001 q 617 889 587 939 q 648 778 648 838 q 631 693 648 732 q 584 622 614 654 q 515 561 554 590 l 304 410 q 255 358 271 383 q 234 312 239 334 q 229 273 229 291 q 248 198 229 232 q 300 145 266 165 q 384 126 335 126 q 491 151 439 126 q 585 223 543 176 q 651 333 627 269 q 675 475 675 397 l 825 475 q 793 272 825 365 q 684 113 760 179 q 673 102 680 109 q 662 91 667 95 q 531 12 603 37 q 377 -14 458 -14 q 205 22 278 -14 q 94 121 133 58 q 55 266 55 184 q 80 371 55 326 q 149 455 105 416 q 249 534 192 494 l 422 652 z "},"¶":{"ha":680,"x_min":50,"x_max":582,"o":"m 440 0 l 440 353 l 383 353 q 201 394 275 353 q 88 507 127 435 q 50 670 50 578 q 88 833 50 761 q 201 946 127 905 q 383 987 275 987 l 582 987 l 582 0 l 440 0 z "},"§":{"ha":866,"x_min":62,"x_max":793,"o":"m 465 179 q 580 213 539 179 q 621 302 621 248 q 601 362 621 337 q 536 409 582 387 q 408 455 490 431 q 235 517 307 483 q 125 606 163 552 q 86 746 86 660 q 129 881 86 823 q 249 970 172 938 q 432 1002 327 1002 q 686 927 593 1002 q 779 711 779 852 l 604 711 q 585 787 604 753 q 527 841 566 821 q 432 861 489 861 q 301 828 342 861 q 260 747 260 794 q 277 687 260 711 q 340 644 294 663 q 470 602 385 625 q 645 540 572 575 q 755 452 718 505 q 793 315 793 399 q 704 146 793 205 q 465 87 614 87 l 465 179 m 380 500 q 272 466 307 500 q 238 380 238 432 q 255 317 238 342 q 317 271 272 292 q 448 226 363 251 q 623 164 551 198 q 733 76 695 130 q 771 -64 771 22 q 677 -251 771 -186 q 427 -317 583 -317 q 294 -302 359 -317 q 177 -255 229 -288 q 93 -167 124 -222 q 62 -31 62 -112 l 236 -30 q 253 -101 236 -73 q 297 -146 269 -130 q 359 -170 325 -163 q 427 -176 393 -176 q 553 -145 509 -176 q 597 -66 597 -115 q 578 -8 597 -32 q 513 36 559 15 q 386 79 467 56 q 213 141 286 106 q 102 230 141 176 q 64 366 64 283 q 150 534 64 473 q 380 595 237 595 l 380 500 z "},"©":{"ha":1090,"x_min":60,"x_max":1022,"o":"m 541 -14 q 354 24 441 -14 q 201 133 267 63 q 97 294 134 202 q 60 494 60 387 q 97 694 60 602 q 201 856 134 787 q 354 963 267 924 q 541 1001 441 1001 q 728 963 641 1001 q 881 856 815 924 q 985 694 947 787 q 1022 494 1022 602 q 985 294 1022 387 q 881 133 947 202 q 728 24 815 63 q 541 -14 641 -14 m 532 192 q 359 265 422 192 q 295 454 295 338 l 295 534 q 359 724 295 651 q 532 797 422 797 q 697 744 636 797 q 759 584 759 690 l 655 584 q 624 678 655 650 q 532 707 592 707 q 458 685 488 707 q 414 624 429 663 q 399 535 399 585 l 399 454 q 432 330 399 378 q 532 282 466 282 q 623 310 592 282 q 654 405 654 338 l 758 405 q 697 245 758 298 q 532 192 636 192 m 541 70 q 696 102 624 70 q 823 192 768 134 q 909 327 878 250 q 940 494 940 405 q 909 662 940 585 q 823 796 878 739 q 696 885 768 853 q 541 918 624 918 q 386 885 458 918 q 258 795 313 853 q 172 661 203 738 q 141 494 141 585 q 172 327 141 405 q 258 192 203 250 q 386 102 313 134 q 541 70 458 70 z "},"®":{"ha":1090,"x_min":60,"x_max":1023,"o":"m 541 -14 q 354 24 441 -14 q 201 133 267 63 q 97 294 134 202 q 60 494 60 387 q 97 694 60 602 q 201 856 134 787 q 354 963 267 924 q 541 1001 441 1001 q 727 963 640 1001 q 881 856 814 924 q 985 694 947 787 q 1023 494 1023 602 q 985 294 1023 387 q 881 133 947 202 q 727 24 814 63 q 541 -14 640 -14 m 657 214 q 649 264 650 232 q 648 312 648 297 l 648 349 q 626 420 648 397 q 551 443 604 443 l 565 513 q 710 467 671 513 q 749 349 749 420 l 749 311 q 752 263 749 286 q 761 225 754 241 l 761 214 l 657 214 m 541 70 q 696 102 624 70 q 823 192 768 134 q 909 327 878 250 q 940 494 940 405 q 909 662 940 585 q 823 796 878 739 q 696 885 768 853 q 541 918 624 918 q 386 885 458 918 q 258 795 313 853 q 172 661 203 738 q 141 494 141 585 q 172 327 141 405 q 258 192 203 250 q 386 102 313 134 q 541 70 458 70 m 342 214 l 342 791 l 532 791 q 692 746 633 791 q 751 614 751 702 q 713 523 751 559 q 604 467 675 486 q 599 463 602 467 q 595 457 597 458 q 584 449 587 452 q 576 445 581 446 q 557 443 571 443 l 412 443 l 412 533 l 539 533 q 617 554 583 534 q 652 612 652 574 q 625 682 652 663 q 532 702 599 702 l 443 702 l 443 214 l 342 214 z "},"™":{"ha":1335,"x_min":54,"x_max":1282,"o":"m 360 724 l 246 724 l 246 1350 l 360 1350 l 360 724 m 555 1257 l 54 1257 l 54 1350 l 555 1350 l 555 1257 m 783 1350 l 958 878 l 1133 1350 l 1234 1350 l 998 724 l 918 724 l 683 1350 l 783 1350 m 732 1350 l 749 920 l 749 724 l 635 724 l 635 1350 l 732 1350 m 1282 1350 l 1282 724 l 1168 724 l 1168 920 l 1184 1350 l 1282 1350 z "},"°":{"ha":533,"x_min":87,"x_max":446,"o":"m 268 637 q 177 661 218 637 q 112 726 136 685 q 87 818 87 768 q 112 910 87 868 q 177 977 136 951 q 268 1002 218 1002 q 357 977 317 1002 q 421 910 397 951 q 446 818 446 868 q 421 726 446 768 q 357 661 397 685 q 268 637 317 637 m 268 732 q 327 757 303 732 q 351 818 351 781 q 327 880 351 855 q 268 905 303 905 q 207 880 233 905 q 182 818 182 855 q 207 757 182 781 q 268 732 233 732 z "},"|":{"ha":349,"x_min":118,"x_max":232,"o":"m 232 -183 l 118 -183 l 118 987 l 232 987 l 232 -183 z "},"¦":{"ha":345,"x_min":91,"x_max":252,"o":"m 91 -183 l 91 355 l 252 355 l 252 -183 l 91 -183 m 252 473 l 91 473 l 91 987 l 252 987 l 252 473 z "},"¢":{"ha":787,"x_min":68,"x_max":704,"o":"m 468 696 l 334 696 l 334 894 l 468 894 l 468 696 m 468 -166 l 334 -166 l 334 31 l 468 31 l 468 -166 m 404 -14 q 216 36 291 -14 q 105 170 142 86 q 68 355 68 254 l 68 378 q 105 564 68 480 q 217 697 142 648 q 403 747 291 747 q 559 712 492 747 q 665 615 627 677 q 704 467 703 552 l 541 467 q 522 538 539 506 q 474 589 505 570 q 400 608 444 608 q 303 574 337 608 q 255 489 269 541 q 242 378 242 436 l 242 355 q 255 244 242 297 q 302 159 268 192 q 401 126 337 126 q 471 141 440 126 q 520 184 502 157 q 541 247 539 211 l 704 247 q 662 115 703 174 q 554 21 621 56 q 404 -14 486 -14 z "},"¤":{"ha":971,"x_min":60,"x_max":919,"o":"m 488 -14 q 331 19 404 -14 q 202 110 258 52 q 116 245 147 168 q 84 412 84 322 q 116 580 84 503 q 202 715 147 657 q 331 805 258 772 q 488 837 404 837 q 644 805 571 837 q 773 715 718 772 q 860 580 829 657 q 891 412 891 503 q 860 245 891 322 q 773 110 829 168 q 644 19 718 52 q 488 -14 571 -14 m 155 -18 l 60 79 l 197 218 l 292 122 l 155 -18 m 488 111 q 597 134 546 111 q 686 199 648 157 q 746 295 724 240 q 768 412 768 350 q 746 530 768 475 q 686 626 724 585 q 597 689 648 667 q 488 712 546 712 q 379 689 430 712 q 290 626 328 667 q 230 530 252 585 q 208 412 208 475 q 230 295 208 350 q 290 199 252 240 q 379 134 328 157 q 488 111 430 111 m 825 -18 l 688 121 l 782 218 l 919 79 l 825 -18 m 197 621 l 60 761 l 155 857 l 292 718 l 197 621 m 782 621 l 688 718 l 825 858 l 919 761 l 782 621 z "},"$":{"ha":791,"x_min":66,"x_max":724,"o":"m 401 -14 q 281 2 340 -14 q 173 55 221 18 q 96 153 125 92 q 66 304 66 214 l 240 304 q 254 219 240 253 q 291 164 268 184 q 343 136 315 144 q 401 127 372 127 q 483 144 450 127 q 533 190 516 161 q 550 258 550 220 q 535 325 550 297 q 485 376 519 353 q 393 420 451 399 q 241 490 306 451 q 140 585 176 528 q 104 728 104 642 q 142 873 104 812 q 250 968 181 935 q 412 1002 319 1002 q 576 964 507 1002 q 683 856 645 927 q 721 683 721 784 l 547 683 q 511 813 547 767 q 410 860 474 860 q 335 843 365 860 q 292 796 306 826 q 277 728 277 766 q 292 664 277 692 q 341 614 307 637 q 437 569 376 591 q 589 497 525 536 q 689 402 654 458 q 724 260 724 345 q 684 111 724 172 q 571 18 643 50 q 401 -14 498 -14 m 351 -144 l 351 38 l 457 38 l 457 -144 l 351 -144 m 363 943 l 363 1145 l 471 1145 l 471 943 l 363 943 z "},"€":{"ha":791,"x_min":62,"x_max":732,"o":"m 562 -14 q 364 30 450 -14 q 228 158 277 73 q 178 370 178 243 l 178 602 q 228 822 178 734 q 367 956 278 911 q 571 1001 455 1001 q 652 995 612 1001 q 732 980 692 989 l 711 833 q 648 849 682 843 q 578 855 613 855 q 418 795 476 855 q 360 604 360 736 l 360 370 q 387 231 360 283 q 463 155 414 178 q 576 132 511 132 q 646 137 612 132 q 711 153 680 142 l 732 7 q 650 -8 693 -3 q 562 -14 606 -14 m 62 355 l 62 452 l 597 452 l 597 355 l 62 355 m 62 540 l 62 637 l 597 637 l 597 540 l 62 540 z "},"₪":{"ha":1251,"x_min":96,"x_max":1137,"o":"m 392 0 l 392 537 l 557 537 l 557 144 l 746 144 q 907 198 843 144 q 972 351 972 252 l 972 808 l 1136 808 l 1136 355 q 1090 165 1137 245 q 955 43 1043 85 q 741 0 866 0 l 392 0 m 96 0 l 96 808 l 840 808 l 840 452 q 836 394 840 425 q 825 334 832 363 q 806 277 818 304 l 664 255 l 655 262 q 670 348 665 302 q 675 437 675 393 l 675 665 l 260 665 l 260 0 l 96 0 z "},"£":{"ha":820,"x_min":65,"x_max":781,"o":"m 68 0 l 68 145 l 781 145 l 781 0 l 68 0 m 65 401 l 65 543 l 564 543 l 564 401 l 65 401 m 362 290 q 338 174 363 224 q 254 94 313 124 l 127 145 q 160 173 149 151 q 176 225 172 195 q 180 281 180 254 l 166 705 q 205 864 166 798 q 313 966 244 930 q 472 1001 382 1001 q 693 925 615 1001 q 771 724 771 848 l 597 724 q 579 801 597 772 q 532 842 561 829 q 468 855 503 855 q 381 817 416 855 q 346 705 346 779 l 362 290 z "},"¥":{"ha":740,"x_min":8,"x_max":732,"o":"m 661 395 l 68 395 l 68 502 l 661 502 l 661 395 m 661 199 l 68 199 l 68 305 l 661 305 l 661 199 m 541 987 l 732 987 l 451 388 l 347 388 l 324 472 l 541 987 m 420 467 l 393 388 l 290 388 l 8 987 l 200 987 l 420 467 m 458 0 l 277 0 l 277 519 l 458 519 l 458 0 z "},"∕":{"ha":511,"x_min":-2,"x_max":511,"o":"m 132 -85 l -2 -85 l 378 987 l 511 987 l 132 -85 z "},"+":{"ha":773,"x_min":48,"x_max":725,"o":"m 725 388 l 48 388 l 48 545 l 725 545 l 725 388 m 471 99 l 304 99 l 304 818 l 471 818 l 471 99 z "},"−":{"ha":773,"x_min":97,"x_max":676,"o":"m 676 416 l 97 416 l 97 557 l 676 557 l 676 416 z "},"×":{"ha":773,"x_min":71,"x_max":703,"o":"m 71 244 l 599 783 l 703 678 l 175 140 l 71 244 m 71 678 l 175 783 l 703 244 l 599 140 l 71 678 z "},"÷":{"ha":773,"x_min":41,"x_max":732,"o":"m 41 393 l 41 540 l 732 540 l 732 393 l 41 393 m 388 96 q 315 123 341 96 q 288 189 288 149 q 315 256 288 230 q 388 283 341 283 q 462 256 435 283 q 489 189 489 230 q 462 123 489 149 q 388 96 435 96 m 388 648 q 315 674 341 648 q 288 741 288 701 q 315 809 288 782 q 388 836 341 836 q 462 809 435 836 q 489 741 489 782 q 462 674 489 701 q 388 648 435 648 z "},"=":{"ha":773,"x_min":90,"x_max":683,"o":"m 683 522 l 90 522 l 90 665 l 683 665 l 683 522 m 683 232 l 90 232 l 90 375 l 683 375 l 683 232 z "},">":{"ha":773,"x_min":93,"x_max":680,"o":"m 93 578 l 93 747 l 680 497 l 680 380 l 543 415 l 93 578 m 543 443 l 680 473 l 680 357 l 93 106 l 93 276 l 543 443 z "},"<":{"ha":773,"x_min":100,"x_max":673,"o":"m 673 277 l 673 106 l 100 357 l 100 473 l 231 442 l 673 277 m 232 408 l 100 380 l 100 496 l 673 747 l 673 576 l 232 408 z "},"±":{"ha":773,"x_min":76,"x_max":697,"o":"m 697 476 l 464 476 l 464 218 l 310 218 l 310 476 l 76 476 l 76 620 l 310 620 l 310 868 l 464 868 l 464 620 l 697 620 l 697 476 m 676 1 l 97 1 l 97 142 l 676 142 l 676 1 z "},"¬":{"ha":773,"x_min":104,"x_max":669,"o":"m 669 420 l 104 420 l 104 545 l 669 545 l 669 420 m 669 254 l 526 254 l 526 494 l 669 494 l 669 254 z "},"~":{"ha":882,"x_min":61,"x_max":821,"o":"m 821 534 q 792 393 821 454 q 713 296 764 331 q 597 261 663 261 q 497 283 541 261 q 404 352 453 306 q 347 396 373 380 q 290 412 320 412 q 221 377 246 412 q 195 286 195 342 l 61 287 q 89 429 61 368 q 168 522 117 489 q 283 555 218 555 q 386 532 340 555 q 479 465 431 509 q 535 420 509 435 q 590 405 562 405 q 662 442 634 405 q 689 535 689 479 l 821 534 z "},"^":{"ha":773,"x_min":122,"x_max":652,"o":"m 265 494 l 122 494 l 325 987 l 425 987 l 393 827 l 265 494 m 380 827 l 349 987 l 449 987 l 652 494 l 508 494 l 380 827 z "},"µ":{"ha":774,"x_min":60,"x_max":694,"o":"m 78 410 l 225 410 l 243 -282 l 60 -282 l 78 410 m 519 734 l 694 734 l 694 0 l 530 0 l 519 174 l 519 734 m 600 328 q 570 153 600 230 q 479 31 541 75 q 321 -14 418 -14 q 145 50 212 -14 q 78 260 78 114 l 78 734 l 252 734 l 252 258 q 267 181 252 209 q 308 141 282 153 q 366 129 334 129 q 471 155 433 129 q 527 226 510 181 q 543 327 543 271 l 600 328 z "},"%":{"ha":1023,"x_min":67,"x_max":963,"o":"m 313 74 l 226 124 l 708 896 l 795 846 l 313 74 m 753 -14 q 638 14 686 -14 q 566 87 591 41 q 541 189 541 134 l 541 242 q 566 344 541 298 q 637 418 591 390 q 752 446 684 446 q 867 418 821 446 q 939 344 914 390 q 963 242 963 298 l 963 189 q 939 87 963 134 q 868 14 915 41 q 753 -14 821 -14 m 753 89 q 807 103 787 89 q 835 140 827 117 q 844 189 844 163 l 844 242 q 821 312 844 281 q 752 342 798 342 q 683 312 706 342 q 661 242 661 281 l 661 189 q 671 140 661 163 q 703 103 682 117 q 753 89 724 89 m 278 543 q 163 570 210 543 q 92 644 116 598 q 67 745 67 690 l 67 798 q 92 900 67 854 q 163 974 116 946 q 277 1002 210 1002 q 392 974 345 1002 q 464 900 439 946 q 488 798 488 854 l 488 745 q 464 644 488 690 q 393 570 439 598 q 278 543 346 543 m 278 646 q 329 660 309 646 q 359 697 349 674 q 369 745 369 720 l 369 798 q 359 847 369 824 q 328 884 349 870 q 277 899 308 899 q 227 884 247 899 q 196 847 206 870 q 186 798 186 824 l 186 745 q 196 697 186 720 q 227 660 206 674 q 278 646 248 646 z "},"ׁ":{"ha":0,"x_min":876,"x_max":1002,"o":"m 939 911 q 895 928 913 911 q 876 968 876 945 q 895 1008 876 992 q 939 1025 913 1025 q 984 1008 966 1025 q 1002 968 1002 992 q 984 927 1002 943 q 939 911 966 911 z "},"ְ":{"ha":0,"x_min":357,"x_max":482,"o":"m 420 -224 q 375 -208 393 -224 q 357 -168 357 -192 q 375 -126 357 -142 q 420 -111 393 -111 q 465 -126 447 -111 q 482 -168 482 -142 q 465 -208 482 -192 q 420 -224 447 -224 m 420 -398 q 375 -382 393 -398 q 357 -341 357 -366 q 375 -300 357 -317 q 420 -284 393 -284 q 465 -300 447 -284 q 482 -341 482 -317 q 465 -382 482 -366 q 420 -398 447 -398 z "},"ֱ":{"ha":0,"x_min":182,"x_max":659,"o":"m 245 -224 q 200 -208 218 -224 q 182 -168 182 -192 q 200 -126 182 -142 q 245 -111 218 -111 q 290 -126 272 -111 q 307 -168 307 -142 q 290 -208 307 -192 q 245 -224 272 -224 m 420 -224 q 375 -208 393 -224 q 357 -168 357 -192 q 375 -126 357 -142 q 420 -111 393 -111 q 465 -126 447 -111 q 482 -168 482 -142 q 465 -208 482 -192 q 420 -224 447 -224 m 597 -224 q 552 -208 570 -224 q 534 -168 534 -192 q 552 -126 534 -142 q 597 -111 570 -111 q 641 -126 624 -111 q 659 -168 659 -142 q 641 -208 659 -192 q 597 -224 624 -224 m 333 -372 q 288 -356 306 -372 q 270 -316 270 -340 q 288 -275 270 -292 q 333 -259 306 -259 q 377 -275 359 -259 q 395 -316 395 -292 q 377 -356 395 -340 q 333 -372 359 -372 m 597 -398 q 552 -382 570 -398 q 534 -341 534 -366 q 552 -300 534 -317 q 597 -284 570 -284 q 641 -300 624 -284 q 659 -341 659 -317 q 641 -382 659 -366 q 597 -398 624 -398 z "},"ֲ":{"ha":0,"x_min":186,"x_max":655,"o":"m 186 -207 l 186 -127 l 477 -127 l 477 -207 l 186 -207 m 593 -398 q 548 -382 566 -398 q 530 -341 530 -366 q 548 -300 530 -317 q 593 -284 566 -284 q 637 -300 620 -284 q 655 -341 655 -317 q 637 -382 655 -366 q 593 -398 620 -398 m 593 -224 q 548 -208 566 -224 q 530 -168 530 -192 q 548 -126 530 -142 q 593 -111 566 -111 q 637 -126 620 -111 q 655 -168 655 -142 q 637 -208 655 -192 q 593 -224 620 -224 z "},"ֳ":{"ha":0,"x_min":186,"x_max":655,"o":"m 332 -392 q 288 -375 306 -392 q 270 -335 270 -359 q 278 -304 270 -317 q 295 -271 286 -292 q 307 -207 304 -250 l 186 -207 l 186 -127 l 478 -127 l 478 -207 l 357 -207 q 369 -271 360 -250 q 386 -304 378 -292 q 394 -335 394 -317 q 377 -376 394 -359 q 332 -392 359 -392 m 593 -398 q 548 -382 566 -398 q 530 -341 530 -366 q 548 -300 530 -317 q 593 -284 566 -284 q 637 -300 620 -284 q 655 -341 655 -317 q 637 -382 655 -366 q 593 -398 620 -398 m 593 -224 q 548 -208 566 -224 q 530 -168 530 -192 q 548 -126 530 -142 q 593 -111 566 -111 q 637 -126 620 -111 q 655 -168 655 -142 q 637 -208 655 -192 q 593 -224 620 -224 z "},"ִ":{"ha":0,"x_min":357,"x_max":482,"o":"m 420 -224 q 375 -208 393 -224 q 357 -168 357 -191 q 375 -126 357 -142 q 420 -111 393 -111 q 465 -126 447 -111 q 482 -168 482 -142 q 465 -208 482 -192 q 420 -224 447 -224 z "},"ֵ":{"ha":0,"x_min":270,"x_max":569,"o":"m 507 -224 q 462 -208 480 -224 q 444 -168 444 -191 q 462 -126 444 -142 q 507 -111 480 -111 q 551 -126 534 -111 q 569 -168 569 -142 q 551 -208 569 -192 q 507 -224 534 -224 m 333 -224 q 288 -208 306 -224 q 270 -168 270 -191 q 288 -126 270 -142 q 333 -111 306 -111 q 377 -126 359 -111 q 395 -168 395 -142 q 377 -208 395 -192 q 333 -224 359 -224 z "},"ֶ":{"ha":0,"x_min":270,"x_max":569,"o":"m 507 -224 q 462 -208 480 -224 q 444 -168 444 -191 q 462 -126 444 -142 q 507 -111 480 -111 q 551 -126 534 -111 q 569 -168 569 -142 q 551 -208 569 -192 q 507 -224 534 -224 m 420 -372 q 375 -356 393 -372 q 357 -316 357 -340 q 375 -275 357 -292 q 420 -259 393 -259 q 465 -275 447 -259 q 482 -316 482 -292 q 465 -356 482 -340 q 420 -372 447 -372 m 333 -224 q 288 -208 306 -224 q 270 -168 270 -191 q 288 -126 270 -142 q 333 -111 306 -111 q 377 -126 359 -111 q 395 -168 395 -142 q 377 -208 395 -192 q 333 -224 359 -224 z "},"ַ":{"ha":0,"x_min":268,"x_max":572,"o":"m 268 -207 l 268 -127 l 572 -127 l 572 -207 l 268 -207 z "},"ָ":{"ha":0,"x_min":283,"x_max":557,"o":"m 420 -384 q 376 -367 394 -384 q 358 -327 358 -350 q 366 -296 358 -309 q 384 -265 374 -284 q 395 -207 393 -245 l 283 -207 l 283 -127 l 557 -127 l 557 -207 l 446 -207 q 458 -265 449 -245 q 475 -296 467 -284 q 483 -327 483 -309 q 465 -368 483 -351 q 420 -384 448 -384 z "},"ֹ":{"ha":0,"x_min":131,"x_max":257,"o":"m 194 911 q 149 928 167 911 q 131 968 131 945 q 149 1009 131 993 q 194 1025 167 1025 q 239 1008 222 1025 q 257 968 257 992 q 239 927 257 943 q 194 911 222 911 z "},"ֺ":{"ha":0,"x_min":131,"x_max":257,"o":"m 194 911 q 149 928 167 911 q 131 968 131 945 q 149 1009 131 993 q 194 1025 167 1025 q 239 1008 222 1025 q 257 968 257 992 q 239 927 257 943 q 194 911 222 911 z "},"ֻ":{"ha":0,"x_min":357,"x_max":665,"o":"m 420 -224 q 375 -208 393 -224 q 357 -168 357 -191 q 375 -126 357 -142 q 420 -111 393 -111 q 465 -126 448 -111 q 482 -168 482 -142 q 465 -208 482 -192 q 420 -224 448 -224 m 603 -513 q 558 -497 576 -513 q 541 -457 541 -480 q 558 -416 541 -432 q 603 -399 576 -399 q 648 -416 630 -399 q 665 -457 665 -432 q 648 -497 665 -481 q 603 -513 630 -513 m 512 -368 q 467 -352 485 -368 q 449 -313 449 -336 q 467 -271 449 -288 q 512 -255 485 -255 q 556 -272 538 -255 q 574 -313 574 -289 q 556 -352 574 -336 q 512 -368 538 -368 z "},"ּ":{"ha":0,"x_min":159,"x_max":284,"o":"m 222 351 q 177 367 195 351 q 159 408 159 384 q 177 448 159 432 q 222 465 195 465 q 267 448 249 465 q 284 408 284 432 q 267 367 284 383 q 222 351 249 351 z "},"ֿ":{"ha":0,"x_min":155,"x_max":524,"o":"m 155 924 l 155 1018 l 524 1018 l 524 924 l 155 924 z "},"ׂ":{"ha":0,"x_min":121,"x_max":246,"o":"m 184 911 q 139 928 157 911 q 121 968 121 945 q 139 1009 121 993 q 183 1025 157 1025 q 229 1008 211 1025 q 246 968 246 992 q 229 927 246 943 q 184 911 211 911 z "},"ׇ":{"ha":0,"x_min":283,"x_max":557,"o":"m 420 -407 q 376 -390 394 -407 q 358 -350 358 -373 q 369 -313 358 -329 q 388 -270 379 -298 q 393 -241 391 -260 q 395 -207 395 -222 l 283 -207 l 283 -127 l 557 -127 l 557 -207 l 446 -207 q 448 -240 446 -221 q 454 -270 451 -260 q 473 -313 463 -298 q 483 -350 483 -329 q 465 -391 483 -374 q 420 -407 448 -407 z "},"̈":{"ha":0,"x_min":54,"x_max":548,"o":"m 460 817 q 396 840 420 817 q 372 898 372 863 q 396 956 372 932 q 460 979 420 979 q 524 956 499 979 q 548 898 548 932 q 524 840 548 863 q 460 817 499 817 m 142 817 q 78 840 102 817 q 54 898 54 863 q 78 956 54 932 q 142 979 102 979 q 206 956 182 979 q 230 898 230 932 q 206 840 230 863 q 142 817 182 817 z "},"̇":{"ha":0,"x_min":23,"x_max":220,"o":"m 121 809 q 49 835 75 809 q 23 900 23 861 q 49 966 23 940 q 121 992 75 992 q 194 966 168 992 q 220 900 220 940 q 194 835 220 861 q 121 809 168 809 z "},"̀":{"ha":0,"x_min":54,"x_max":382,"o":"m 382 812 l 238 812 l 54 1018 l 250 1018 l 382 812 z "},"́":{"ha":0,"x_min":54,"x_max":381,"o":"m 187 1018 l 381 1018 l 195 812 l 54 812 l 187 1018 z "},"̋":{"ha":0,"x_min":34,"x_max":517,"o":"m 111 1018 l 286 1018 l 155 812 l 34 812 l 111 1018 m 342 1018 l 517 1018 l 386 812 l 264 812 l 342 1018 z "},"̂":{"ha":0,"x_min":54,"x_max":537,"o":"m 537 830 l 537 822 l 398 822 l 294 926 l 191 822 l 54 822 l 54 831 l 244 1018 l 345 1018 l 537 830 z "},"̌":{"ha":0,"x_min":54,"x_max":537,"o":"m 537 1006 l 345 819 l 244 819 l 54 1005 l 54 1015 l 191 1015 l 294 911 l 398 1015 l 537 1015 l 537 1006 z "},"̆":{"ha":0,"x_min":68,"x_max":467,"o":"m 268 812 q 157 835 202 812 q 90 899 113 859 q 68 992 68 940 q 68 1004 68 997 q 68 1015 68 1011 l 172 1015 q 172 1007 172 1011 q 172 998 172 1002 q 181 949 172 971 q 212 915 191 928 q 268 902 233 902 q 324 915 303 902 q 355 949 345 928 q 364 998 364 971 q 364 1007 364 1002 q 363 1015 364 1011 l 467 1015 q 467 1004 467 1011 q 467 992 467 997 q 445 899 467 940 q 378 835 422 859 q 268 812 334 812 z "},"̊":{"ha":0,"x_min":63,"x_max":362,"o":"m 213 812 q 106 851 149 812 q 63 949 63 891 q 106 1047 63 1006 q 213 1088 149 1088 q 319 1047 277 1088 q 362 949 362 1006 q 319 851 362 891 q 213 812 277 812 m 213 881 q 262 901 243 881 q 281 949 281 922 q 262 998 281 977 q 213 1019 243 1019 q 163 998 182 1019 q 144 949 144 977 q 163 901 144 922 q 213 881 182 881 z "},"̃":{"ha":0,"x_min":54,"x_max":555,"o":"m 159 835 l 54 841 q 74 930 54 890 q 127 994 94 970 q 205 1018 161 1018 q 256 1009 233 1018 q 299 988 279 1000 q 342 967 320 976 q 390 958 363 958 q 433 976 415 958 q 451 1026 451 994 l 555 1018 q 535 929 555 968 q 481 866 515 889 q 404 843 447 843 q 347 852 370 843 q 305 873 324 861 q 266 894 286 885 q 219 903 246 903 q 176 885 193 903 q 159 835 159 866 z "},"̄":{"ha":0,"x_min":72,"x_max":536,"o":"m 536 876 l 72 876 l 72 984 l 536 984 l 536 876 z "},"̒":{"ha":0,"x_min":81,"x_max":279,"o":"m 81 968 q 105 1089 81 1041 q 187 1185 129 1137 l 279 1133 q 256 1095 265 1110 q 243 1065 248 1080 q 236 1030 238 1051 q 233 976 233 1010 l 233 869 l 81 869 l 81 968 z "},"̦":{"ha":0,"x_min":102,"x_max":300,"o":"m 300 -214 q 276 -333 300 -286 q 194 -430 252 -381 l 102 -378 q 124 -340 115 -355 q 138 -311 134 -325 q 145 -276 143 -296 q 147 -221 147 -255 l 147 -115 l 300 -115 l 300 -214 z "},"̧":{"ha":0,"x_min":36,"x_max":280,"o":"m 186 3 l 178 -35 q 248 -67 216 -41 q 280 -152 280 -94 q 222 -265 280 -222 q 53 -307 165 -307 l 48 -208 q 93 -202 73 -208 q 125 -183 113 -196 q 137 -149 137 -170 q 113 -107 137 -119 q 36 -92 89 -96 l 57 3 l 186 3 z "},"̨":{"ha":0,"x_min":34,"x_max":296,"o":"m 174 -260 q 68 -229 102 -260 q 34 -161 34 -199 q 61 -84 34 -118 q 126 -27 88 -51 q 197 10 165 -3 l 293 0 q 268 -16 280 -8 q 245 -32 256 -24 q 201 -73 218 -52 q 184 -120 184 -95 q 197 -146 184 -137 q 233 -155 210 -155 q 263 -151 247 -155 q 296 -141 279 -148 l 296 -242 q 238 -254 268 -249 q 174 -260 208 -260 z "},"¨":{"ha":602,"x_min":54,"x_max":548,"o":"m 460 817 q 396 840 420 817 q 372 898 372 863 q 396 956 372 932 q 460 979 420 979 q 524 956 499 979 q 548 898 548 932 q 524 840 548 863 q 460 817 499 817 m 142 817 q 78 840 102 817 q 54 898 54 863 q 78 956 54 932 q 142 979 102 979 q 206 956 182 979 q 230 898 230 932 q 206 840 230 863 q 142 817 182 817 z "},"˙":{"ha":624,"x_min":23,"x_max":220,"o":"m 121 809 q 49 835 75 809 q 23 900 23 861 q 49 966 23 940 q 121 992 75 992 q 194 966 168 992 q 220 900 220 940 q 194 835 220 861 q 121 809 168 809 z "},"`":{"ha":436,"x_min":54,"x_max":382,"o":"m 382 812 l 238 812 l 54 1018 l 250 1018 l 382 812 z "},"´":{"ha":435,"x_min":54,"x_max":381,"o":"m 187 1018 l 381 1018 l 195 812 l 54 812 l 187 1018 z "},"˝":{"ha":624,"x_min":34,"x_max":517,"o":"m 111 1018 l 286 1018 l 155 812 l 34 812 l 111 1018 m 342 1018 l 517 1018 l 386 812 l 264 812 l 342 1018 z "},"ˆ":{"ha":591,"x_min":54,"x_max":537,"o":"m 537 830 l 537 822 l 398 822 l 294 926 l 191 822 l 54 822 l 54 831 l 244 1018 l 345 1018 l 537 830 z "},"ˇ":{"ha":624,"x_min":54,"x_max":537,"o":"m 537 1006 l 345 819 l 244 819 l 54 1005 l 54 1015 l 191 1015 l 294 911 l 398 1015 l 537 1015 l 537 1006 z "},"˘":{"ha":624,"x_min":68,"x_max":467,"o":"m 268 812 q 157 835 202 812 q 90 899 113 859 q 68 992 68 940 q 68 1004 68 997 q 68 1015 68 1011 l 172 1015 q 172 1007 172 1011 q 172 998 172 1002 q 181 949 172 971 q 212 915 191 928 q 268 902 233 902 q 324 915 303 902 q 355 949 345 928 q 364 998 364 971 q 364 1007 364 1002 q 363 1015 364 1011 l 467 1015 q 467 1004 467 1011 q 467 992 467 997 q 445 899 467 940 q 378 835 422 859 q 268 812 334 812 z "},"˚":{"ha":558,"x_min":63,"x_max":362,"o":"m 213 812 q 106 851 149 812 q 63 949 63 891 q 106 1047 63 1006 q 213 1088 149 1088 q 319 1047 277 1088 q 362 949 362 1006 q 319 851 362 891 q 213 812 277 812 m 213 881 q 262 901 243 881 q 281 949 281 922 q 262 998 281 977 q 213 1019 243 1019 q 163 998 182 1019 q 144 949 144 977 q 163 901 144 922 q 213 881 182 881 z "},"˜":{"ha":609,"x_min":54,"x_max":555,"o":"m 159 835 l 54 841 q 74 930 54 890 q 127 994 94 970 q 205 1018 161 1018 q 256 1009 233 1018 q 299 988 279 1000 q 342 967 320 976 q 390 958 363 958 q 433 976 415 958 q 451 1026 451 994 l 555 1018 q 535 929 555 968 q 481 866 515 889 q 404 843 447 843 q 347 852 370 843 q 305 873 324 861 q 266 894 286 885 q 219 903 246 903 q 176 885 193 903 q 159 835 159 866 z "},"¯":{"ha":625,"x_min":72,"x_max":536,"o":"m 536 876 l 72 876 l 72 984 l 536 984 l 536 876 z "},"¸":{"ha":554,"x_min":36,"x_max":280,"o":"m 186 3 l 178 -35 q 248 -67 216 -41 q 280 -152 280 -94 q 222 -265 280 -222 q 53 -307 165 -307 l 48 -208 q 93 -202 73 -208 q 125 -183 113 -196 q 137 -149 137 -170 q 113 -107 137 -119 q 36 -92 89 -96 l 57 3 l 186 3 z "},"˛":{"ha":330,"x_min":34,"x_max":296,"o":"m 174 -260 q 68 -229 102 -260 q 34 -161 34 -199 q 61 -84 34 -118 q 126 -27 88 -51 q 197 10 165 -3 l 293 0 q 268 -16 280 -8 q 245 -32 256 -24 q 201 -73 218 -52 q 184 -120 184 -95 q 197 -146 184 -137 q 233 -155 210 -155 q 263 -151 247 -155 q 296 -141 279 -148 l 296 -242 q 238 -254 268 -249 q 174 -260 208 -260 z "}}}
